<?xml version="1.0" encoding="UTF-8"?>
<svg width="250.33" height="74.27" viewBox="0 0 250.33 74.27" xmlns="http://www.w3.org/2000/svg">
 <path class="st1" d="m41.889-5.1676e-4c-4.42 0-6.7793 2.0213-6.7793 5.0312 0 3.84 2.9812 4.5999 6.4512 5.1699 3.47 0.57997 4.8789 0.89947 4.8789 2.6895 0 1.52-1.3202 2.2109-3.8203 2.2109-3.0799 0-4.3198-1.1513-5.1797-3.0312l-2.8906 1.291c0.85999 2.76 3.4704 4.5488 7.9102 4.5488 4.3499 0 7.2598-1.4298 7.2598-5.0098 0-4-2.7992-5.0292-6.959-5.6992-3.0799-0.48-4.5098-0.63985-4.5098-2.3398 0-1.42 1.0393-2.1113 3.6094-2.1113 2.4699 0 3.88 1.1298 4.7402 2.7598l2.6406-1.6797c-1.2-2.39-3.5116-3.8101-7.3516-3.8301zm50.541 0.20117v6.5898c-0.69996-1.03-1.7793-1.7012-3.6797-1.7012-3.0697 0-5.2695 2.28-5.2695 6.25 0 4.07 1.9193 6.5706 5.2793 6.5605 2.0598 0 3.1688-1.0991 3.7188-2.0391l-0.04883 1.75h2.7695v-17.41zm6.1094 0v3.0801h2.9609v-3.0801zm17.291 0.009766v17.41h2.7793v-6.4609c0-2.53 1.2892-3.6797 3.0293-3.6797 1.59 0 2.2402 1.0609 2.2402 2.7109v7.4199h2.7812v-8.0605c0-3.27-2.4503-4.4609-4.2305-4.4609-2.18 0-3.2205 1.1002-3.8203 2.1602v-7.0391zm22.99 0.099609-6.041 17.301h3.0098l1.3711-4.041h6.3789l1.3203 4.041h3.2109l-5.8301-17.301zm1.5684 3.7305 2.2617 6.8691h-4.6016zm-31.969 1.0293c-2.62 0-4.7012 1.0794-4.7012 3.6094 0 2.97 2.1918 3.5002 4.6719 3.9102 2.0398 0.34998 2.8691 0.51152 2.8691 1.5215 0 1.01-1.02 1.3789-2.3398 1.3789-1.92 0-2.8406-0.88938-3.5606-2.1094l-2.1309 1.2402c0.95018 2.05 2.8704 3.2187 5.7402 3.2187 3.6499 0 4.9707-1.6098 4.9707-3.8398 0-2.94-2.3896-3.6292-4.7695-3.9492-1.9597-0.25001-2.8203-0.44991-2.8203-1.4199 0-0.77998 0.64923-1.2402 2.1992-1.2402 1.3599 0 2.431 0.5907 3.1211 1.7207l1.9902-1.4902c-1.09-1.61-2.7302-2.5307-5.2402-2.5508zm73.93 0.03125c-2.1698 0-3.2792 1.1485-3.8594 2.2285l0.0488-1.9785h-2.7793v12.279h2.7695v-6.4609c0-2.53 1.2892-3.6797 3.0293-3.6797 1.59 0 2.2402 1.0609 2.2402 2.7109v7.4199h2.7812v-8.0605c0-3.27-2.4503-4.459-4.2305-4.459zm12.133 0c-3.4698 0.076614-5.8437 2.5583-5.8437 6.2891 0 3.95 2.43 6.4297 5.8301 6.4297 2.9397 0 4.4708-1.2204 5.3711-3.1504l-2.2695-1.3984c-0.53027 1.45-1.3806 2.2285-2.9805 2.2285-2.16 0-3.1504-1.63-3.1504-4.25 0-2.6 1.2304-3.8594 3.1504-3.8594 1.46 0 2.25 0.76 2.7402 2.25l2.3398-1.1895c-0.72-2.2-2.4997-3.3496-5.0195-3.3496-0.0556 0-0.11289-0.00122-0.16797 0zm-118.4 0.00977c-3.3301 0-5.7109 2.4291-5.7109 6.2891 0 4.27 2.4608 6.4297 5.8105 6.4297 3.3301 0 4.8607-1.5394 5.4609-3.6094l-2.3613-0.84961c-0.48983 1.42-1.3899 2.1094-3.0098 2.1094-2.1101 0-2.9803-1.1507-3.1504-3.3906h8.5605c0-5-2.3197-6.9785-5.5996-6.9785zm91.809 0c-3.3298 0-5.709 2.4291-5.709 6.2891 0 4.27 2.4506 6.4297 5.8008 6.4297 3.3298 0 4.8588-1.5394 5.459-3.6094l-2.3594-0.84961c-0.49021 1.42-1.3899 2.1094-3.0098 2.1094-2.1101 0-2.9906-1.1507-3.1406-3.3906h8.5605c0-5-2.3213-6.9785-5.6016-6.9785zm-12.84 0.029297c-2.7999 0-4.7891 1.7007-4.7891 4.3906 0 1.33 0.53905 2.3901 1.459 3.0801-1.3697 0.39001-2.1992 1.1395-2.1992 2.2695 0 1.28 0.62999 2.0195 1.9902 2.2695-1.2503 0.36998-2.1504 0.93985-2.1504 2.0898 0 1.98 2.0604 2.7598 5.8301 2.7598 4.19 0 6.1289-1.1185 6.1289-3.6484 0-1.33-0.48877-2.1814-1.3887-2.6914-0.86022-0.48-2.1994-0.5293-4.3496-0.5293-3.0497 0-3.7695-0.12009-3.7695-0.83008 0-0.53 0.71894-0.7793 1.3887-0.7793 0.67011 0 0.74074 0.08984 1.7109 0.08984 2.8898 0 4.8086-1.3998 4.8086-4.0898 0-0.32001-0.0684-0.62139-0.0684-0.94141 0-0.51999 0.52921-1.0293 1.0391-1.0293 0.28007 0 0.51055 0.14029 0.65039 0.32031h0.0488l0.53125-2.3398c-0.14022-0.15999-0.49131-0.32031-0.86133-0.32031-0.87987 0-1.6601 0.42941-2.1699 1.6094-0.74003-0.98997-2.1697-1.6797-3.8398-1.6797zm-104.08 0.21093 3.5215 12.26h2.8398l2.5898-9.1211 2.5 9.1211h2.8496l3.8594-12.26h-2.7988l-2.4805 8.5195-2.4492-8.5195h-2.8398l-2.4805 8.5195-2.2207-8.5195zm47.65 0v12.27h2.7812v-12.27zm102.03 0 4.2695 12.109-0.41992 1.0293c-0.37002 0.96998-1.0197 1.2207-1.7598 1.2207-0.51023 0-0.94114-0.14107-1.2012-0.37109h-0.0488l-0.7207 2.3203c0.5503 0.32999 1.3808 0.50976 2.3106 0.50976 0.88025 0 1.7996-0.20945 2.4297-0.68945 0.80996-0.61999 1.3693-1.5693 1.6895-2.5293l4.4199-13.6h-2.709l-2.5703 8.4082-2.7305-8.4082zm-45.602 1.9297c1.5001 0 2.1699 1.0102 2.1699 2.1602 0 1.19-0.71903 2.0391-2.2188 2.0391-1.4801 0-2.2402-0.71001-2.2402-2 0-1.24 0.71905-2.1992 2.2891-2.1992zm-78.959 0.058594c1.66 0 2.5203 0.99106 2.6602 2.6211h-5.5508c0.3001-1.82 1.2707-2.6211 2.8906-2.6211zm91.789 0c1.6702 0 2.5199 0.99106 2.6602 2.6211h-5.5488c0.29972-1.82 1.2688-2.6211 2.8887-2.6211zm-78.59 0.12109c1.8901 0 3.2105 1.1702 3.2207 3.9102 0 2.89-1.2498 4.1797-3.3301 4.1797-2.0398 0-2.9395-1.5602-2.9395-4.1602 0-2.71 1.0389-3.9297 3.0488-3.9297zm65.73 10.16c1.7397 0 2.7504-3.32e-4 3.2402 0.17969 0.30009 0.10998 0.41992 0.47932 0.41992 0.7793 0 0.70998-0.70961 1.1914-3.3496 1.1914-2.7099 0-3.4512-0.3018-3.4512-1.0918 0-0.87999 0.87064-1.0586 3.1406-1.0586zm-149.65 8.6387c-2.15 0-3.4492 1.3112-3.4492 3.7012v1.5195h-1.9199v2.3398h1.9199v9.9199h2.7793v-9.9199h2.3613v-2.3398h-2.3613v-1.7207c0-0.83002 0.48086-1.1289 1.1309-1.1289 0.38997 0 0.87971 0.13017 1.1797 0.41016h0.070312l0.43945-2.1602c-0.44001-0.37002-1.1604-0.62109-2.1504-0.62109zm74.27 0.07031v3.0801h2.9609v-3.0801zm72.102 0.0098v6.5898c-0.69997-1.03-1.7797-1.6992-3.6797-1.6992-3.0701 0-5.2715 2.28-5.2715 6.25 0 4.0598 1.9212 6.5704 5.2812 6.5605 2.0602 0 3.1684-1.1007 3.7187-2.041l-0.0488 1.75h2.7695v-17.41zm-115.78 0.1113v17.299h2.8516v-13.07l4.6895 13.07h2.0898l4.8105-13.07v13.07h3.0293v-17.299h-4.2793l-4.4414 11.9-4.3496-11.9zm-21.83 4.7285c-3.42 0-5.9199 2.3916-5.9199 6.4316 0 3.8799 2.36 6.4297 5.9199 6.4297 3.68 0 5.9004-2.2711 5.9004-6.4512 0-4-2.3604-6.4102-5.9004-6.4102zm48.361 0.05078c-2.62 0-4.5599 0.80993-5.6699 2.9199l2.0586 1.3301c0.6497-1.38 1.7806-1.8594 3.3105-1.8594 1.3799 0 2.3105 0.4089 2.3105 1.8789h0.0098v0.53125c-5.2501 0.37002-7.9805 1.3391-7.9805 4.459 0 2.55 1.991 3.4707 4.1211 3.4707 2.1997 0 3.2385-0.71032 3.9785-1.8105 0.30009 1.1002 1.0199 1.8105 2.4297 1.8105 0.46035 0 1.0813-0.03995 1.3613-0.08984l0.39062-2.25h-0.05078c-0.18973 0.04989-0.39035 0.07031-0.58008 0.07031-0.51024 0-0.90039-0.22978-0.90039-0.91992v-5.3105c0-2.99-2.109-4.2305-4.7891-4.2305zm29.1 0c-2.1702 0-3.2796 1.1505-3.8594 2.2305l0.04883-1.9707h-2.7891v12.27h2.7793v-6.459c0-2.53 1.2994-3.6797 3.0293-3.6797 1.59 0 2.2402 1.059 2.2402 2.709v7.4199h2.7812v-8.0586c0-3.27-2.4507-4.4609-4.2305-4.4609zm30.279 0c-2.62 0-4.5602 0.80993-5.6699 2.9199l2.0606 1.3301c0.65008-1.38 1.7802-1.8594 3.3106-1.8594 1.3897 0 2.3086 0.4089 2.3086 1.8789v0.53125c-5.2498 0.37002-7.9785 1.3391-7.9785 4.459 0 2.55 1.989 3.4707 4.1191 3.4707 2.1997 0 3.2404-0.71032 3.9805-1.8105 0.3001 1.1002 1.0199 1.8105 2.4297 1.8105 0.47017 0 1.0891-0.03995 1.3691-0.08984l0.39062-2.25h-0.0508c-0.19011 0.04989-0.40017 0.07031-0.58008 0.07031-0.50985 0-0.89843-0.22978-0.89843-0.91992v-5.3105c0-2.99-2.111-4.2305-4.791-4.2305zm14.561 0c-2.1702 0-3.2796 1.1505-3.8594 2.2305l0.0488-1.9707h-2.7793v12.27h2.7793v-6.459c0-2.53 1.2912-3.6797 3.0312-3.6797 1.59 0 2.2383 1.059 2.2383 2.709v7.4199h2.7715v-8.0586c0-3.27-2.4507-4.4609-4.2305-4.4609zm-32.32 0.0098c-3.3298 0-5.709 2.431-5.709 6.291 0 4.2699 2.4584 6.4297 5.8086 6.4297 3.3301 0 4.8611-1.5393 5.4609-3.6094l-2.3613-0.85156c-0.48983 1.42-1.3899 2.1113-3.0098 2.1113-2.1101 0-2.9886-1.1505-3.1484-3.3906h8.5586c0-4.9999-2.3095-6.9805-5.5996-6.9805zm-76.57 0.06055c-1.45 0-2.2597 0.96033-2.6797 2.3203l0.05078-2.1406h-2.791v12.269h2.7812v-6.2891c0-1.73 0.68962-3.3809 2.0996-3.3809 0.77 0 1.1191 0.32139 1.3691 0.69141h0.08984l1.0215-2.7109c-0.36998-0.39001-1.0114-0.75976-1.9414-0.75976zm48.031 0c-1.4498 0-2.2598 0.96033-2.6797 2.3203l0.04883-2.1406h-2.7793v12.269h2.7793v-6.2891c0-1.73 0.68985-3.3809 2.0996-3.3809 0.76006 0 1.1095 0.32139 1.3594 0.69141h0.0918l1.0195-2.7109c-0.37002-0.39001-1.0093-0.75976-1.9395-0.75976zm4.1602 0.17969v12.269h2.7793v-12.27zm-65.684 1.8809c0.03408-8.07e-4 0.06883 0 0.10352 0 2.19 0 3.1191 1.88 3.1191 4.25 0 2.48-0.71946 4.2285-3.1895 4.2285-2.31 0-3.1211-1.93-3.1211-4.4102 0-2.3723 0.94095-4.0175 3.0879-4.0684zm90.062 0.11914c1.6702 0 2.5203 0.9911 2.6602 2.6211h-5.5508c0.30009-1.82 1.2707-2.6211 2.8906-2.6211zm44.49 0.10938c1.9 0 3.2109 1.1802 3.2207 3.9102 0 2.8901-1.2498 4.1816-3.3301 4.1816-2.0398 0-2.9414-1.5603-2.9414-4.1602 0-2.71 1.0408-3.9316 3.0508-3.9316zm-84.1 4.5117v0.73828c0 1.7197-1.6206 2.8516-3.4707 2.8516-1.18 0-1.7988-0.46142-1.7988-1.3613 0-1.66 2.0996-1.9987 5.2695-2.2285zm59.379 0v0.73828c0 1.7197-1.6187 2.8516-3.4688 2.8516-1.18 0-1.8008-0.46142-1.8008-1.3613 0-1.66 2.0996-1.9987 5.2695-2.2285zm-89.559 14.488 4.6289 17.291h3.4395l3.5215-13.07 3.5391 13.07h3.3105l4.9902-17.291h-3.2109l-3.4297 12.561-3.4004-12.561h-3.3496l-3.4492 12.58-3.1914-12.58zm72.77 0v17.291h2.8496v-13.07l4.6894 13.07h2.0801l4.8105-13.07v13.07h3.0293v-17.291h-4.2695l-4.4492 11.9-4.3398-11.9zm-31.77 0.89063c-0.95017 1.0598-1.7611 1.7507-2.7109 2.3906v1.75h-2.1289v2.3398h2.1289v6.8203c0 2.3199 1.2303 3.3984 3.2402 3.3984 0.9702 0 1.6006-0.159 2.0605-0.36914l0.16016-2.5h-0.07031c-0.32995 0.28006-0.86141 0.45898-1.6211 0.45898-0.64025 0-0.99023-0.31973-0.99023-0.91992v-6.8887h2.5918v-2.3398h-2.5918v-4.1406zm172.25 0c-0.94979 1.0598-1.7588 1.7507-2.709 2.3906v1.75h-2.1191v2.3398h2.1289v6.8203c0 2.3199 1.2303 3.3984 3.2402 3.3984 0.96982 0 1.6006-0.159 2.0606-0.36914l0.16015-2.5h-0.0703c-0.31975 0.28006-0.86103 0.45898-1.6211 0.45898-0.65007 0-0.99999-0.31973-0.99999-0.91992v-6.8887h2.5898v-2.3398h-2.5898v-4.1406zm-37.949 3.8809c-2.05 0-3.3701 0.72006-4.3301 2.3203-0.76006-1.6101-2.2399-2.3008-3.5801-2.3008-2.1698 0-3.2093 1.2002-3.7891 2.2305l0.0488-1.9805h-2.7695v12.27h2.7695v-6.459c0-2.53 1.2307-3.6816 2.9609-3.6816 1.59 0 2.1699 1.0608 2.1699 2.7109v7.4199h2.7793v-6.459c0-2.53 1.2208-3.6816 2.9609-3.6816 1.59 0 2.1699 1.0612 2.1699 2.7109v7.4199h2.7695v-8.0605c0-3.27-2.38-4.459-4.1602-4.459zm-146.02 0.0098c-2.62 0-4.5599 0.80981-5.6699 2.9199l2.0605 1.3301c0.65008-1.3803 1.7786-1.8613 3.3086-1.8613 1.3799 0 2.3105 0.41062 2.3105 1.8809h0.0098v0.5293c-5.2498 0.37002-7.9785 1.3409-7.9785 4.4609 0 2.55 1.989 3.4687 4.1191 3.4687 2.1997 0 3.2404-0.70837 3.9805-1.8086 0.30009 1.1002 1.0199 1.8086 2.4297 1.8086 0.45997 0 1.0793-0.03995 1.3594-0.08984l0.39063-2.25h-0.05078c-0.18973 0.04989-0.39035 0.07031-0.58008 0.07031-0.51024 0-0.90039-0.22978-0.90039-0.91992v-5.3086c0-2.99-2.109-4.2305-4.7891-4.2305zm69.859 0c-2.6203 0-4.5599 0.80981-5.6699 2.9199l2.0605 1.3301c0.65008-1.3803 1.7806-1.8613 3.3105-1.8613 1.3799 0 2.3086 0.41062 2.3086 1.8809h0.01v0.5293c-5.2498 0.37002-7.9785 1.3409-7.9785 4.4609 0 2.55 1.9894 3.4687 4.1191 3.4687 2.2001 0 3.2404-0.70837 3.9805-1.8086 0.29971 1.1002 1.0195 1.8086 2.4297 1.8086 0.45996 0 1.0793-0.03995 1.3594-0.08984l0.39063-2.25h-0.0488c-0.19011 0.04989-0.40175 0.07031-0.58203 0.07031-0.50986 0-0.89844-0.22978-0.89844-0.91992v-5.3086c0-2.99-2.1113-4.2305-4.791-4.2305zm14.83 0c-2.1698 0-3.2792 1.1487-3.8594 2.2285l0.0508-1.9687h-2.7812v12.27h2.7695v-6.459c0-2.53 1.2912-3.6816 3.0312-3.6816 1.59 0 2.2402 1.0608 2.2402 2.7109v7.4199h2.7793v-8.0605c0-3.27-2.4503-4.459-4.2305-4.459zm12.52 0c-2.62 0-4.5599 0.80981-5.6699 2.9199l2.0606 1.3301c0.6497-1.3803 1.7806-1.8613 3.3106-1.8613 1.3799 0 2.3105 0.41062 2.3105 1.8809h0.01v0.5293c-5.2501 0.37002-7.9805 1.3409-7.9805 4.4609 0 2.55 1.989 3.4687 4.1191 3.4687 2.1997 0 3.2404-0.70837 3.9805-1.8086 0.30009 1.1002 1.0199 1.8086 2.4297 1.8086 0.46034 0 1.0813-0.03995 1.3613-0.08984l0.38867-2.25h-0.0488c-0.18974 0.04989-0.40018 0.07031-0.58008 0.07031-0.51024 0-0.90039-0.22978-0.90039-0.91992v-5.3086c0-2.99-2.111-4.2305-4.791-4.2305zm75.842 0c-2.1702 0-3.2816 1.1487-3.8613 2.2285l0.0508-1.9687h-2.791v12.27h2.7812v-6.459c0-2.53 1.2892-3.6816 3.0293-3.6816 1.5897 0 2.2402 1.0608 2.2402 2.7109v7.4199h2.7793v-8.0605c0-3.27-2.4487-4.459-4.2285-4.459zm-151.96 0.0098c-3.3298 0-5.709 2.429-5.709 6.2891 0 4.2697 2.4487 6.4297 5.7988 6.4297 3.3298 0 4.8607-1.5393 5.4609-3.6094l-2.3613-0.84961c-0.4902 1.42-1.3899 2.1094-3.0098 2.1094-2.1003 0-2.9788-1.1485-3.1387-3.3887h8.5586c0-4.9999-2.3194-6.9805-5.5996-6.9805zm102.34 0c-3.3301 0-5.709 2.429-5.709 6.2891 0 4.2697 2.4486 6.4297 5.7988 6.4297 3.3298 0 4.8611-1.5393 5.4609-3.6094l-2.3613-0.84961c-0.4902 1.42-1.3899 2.1094-3.0098 2.1094-2.0999 0-2.9788-1.1485-3.1387-3.3887h8.5586c0-4.9999-2.3197-6.9805-5.5996-6.9805zm34.881 0c-3.3298 0-5.7109 2.429-5.7109 6.2891 0 4.2697 2.451 6.4297 5.8008 6.4297 3.3301 0 4.8588-1.5393 5.459-3.6094l-2.3594-0.84961c-0.48983 1.42-1.3895 2.1094-3.0098 2.1094-2.1097 0-2.991-1.1485-3.1406-3.3887h8.5606c0-4.9999-2.3194-6.9805-5.5996-6.9805zm-48.201 0.02929c-2.7999 0-4.7891 1.7007-4.7891 4.3906 0 1.33 0.53867 2.3899 1.459 3.0801-1.3701 0.39005-2.1992 1.1395-2.1992 2.2695 0 1.2801 0.63036 2.0197 1.9902 2.2695-1.2499 0.37002-2.1504 0.93973-2.1504 2.0898 0 1.9801 2.06 2.7598 5.8301 2.7598 4.19 0 6.1309-1.1184 6.1309-3.6484 0-1.33-0.49073-2.1815-1.3906-2.6914-0.86022-0.48-2.2014-0.5293-4.3516-0.5293-3.0497 0-3.7695-0.1199-3.7695-0.83008 0-0.52989 0.72089-0.7793 1.3906-0.7793 0.67011 0 0.74073 0.08984 1.7109 0.08984 2.8898 0 4.8086-1.3996 4.8086-4.0898 0-0.31975-0.0703-0.62128-0.0703-0.94141 0-0.51968 0.53078-1.0293 1.041-1.0293 0.28006 0 0.51054 0.1404 0.65038 0.32031h0.0488l0.53125-2.3398c-0.13984-0.16025-0.49131-0.32031-0.86133-0.32031-0.88025 0-1.6597 0.42941-2.1699 1.6094-0.74003-0.99024-2.1799-1.6797-3.8398-1.6797zm-75.478 0.03125c-1.4502 0-2.2617 0.95848-2.6816 2.3184l0.05078-2.1387h-2.7793v12.27h2.7793v-6.291c0-1.7299 0.68947-3.3789 2.0996-3.3789 0.75968 0 1.1095 0.31944 1.3594 0.68945h0.0918l1.0195-2.709c-0.37002-0.39011-1.0195-0.75982-1.9395-0.75982zm75.478 2.1094c1.5001 0 2.1699 1.01 2.1699 2.1602 0 1.1898-0.71865 2.0391-2.2188 2.0391-1.4801 0-2.2402-0.71005-2.2402-2 0-1.2401 0.71905-2.1992 2.2891-2.1992zm-89.02 0.06055c1.6702 0 2.5203 0.98903 2.6602 2.6191h-5.5508c0.3001-1.8202 1.2707-2.6191 2.8906-2.6191zm102.34 0c1.6698 0 2.5199 0.98903 2.6602 2.6191h-5.5508c0.30009-1.8202 1.2703-2.6191 2.8906-2.6191zm34.871 0c1.6698 0 2.518 0.98903 2.6582 2.6191h-5.5488c0.30009-1.8202 1.2703-2.6191 2.8906-2.6191zm-156.29 4.6191v0.74024c0 1.7201-1.6206 2.8496-3.4707 2.8496-1.18 0-1.7988-0.45909-1.7988-1.3594 0-1.6498 2.0996-2.0003 5.2695-2.2305zm69.85 0v0.74024c0 1.7201-1.6187 2.8496-3.4687 2.8496-1.1698 0-1.8008-0.45909-1.8008-1.3594 0-1.6498 2.1095-2.0003 5.2695-2.2305zm27.361 0v0.74024c0 1.7201-1.6206 2.8496-3.4707 2.8496-1.18 0-1.8008-0.45909-1.8008-1.3594 0-1.6498 2.1016-2.0003 5.2715-2.2305zm10.859 5.6602c1.7401 0 2.7504-2.15e-4 3.2402 0.17969 0.3103 0.10998 0.41992 0.48116 0.41992 0.78125 0 0.7098-0.70961 1.1895-3.3496 1.1895-2.7099 0-3.4512-0.29992-3.4512-1.0898 0-0.87987 0.87064-1.0605 3.1406-1.0605z" />
</svg>
