<?xml version="1.0" encoding="UTF-8"?>
<svg width="284px" height="114px" viewBox="0 0 284 114" version="1.1" xmlns="http://www.w3.org/2000/svg" xmlns:xlink="http://www.w3.org/1999/xlink">
    <!-- Generator: Sketch 58 (84663) - https://sketch.com -->
    <title>Object/havlogo/orange</title>
    <desc>Created with Sketch.</desc>
    <defs>
        <polygon id="path-1" points="162.961 78.073 190.779 78.073 190.779 112.94 162.961 112.94"></polygon>
        <polygon id="path-3" points="0.06 46.799 173.869 46.799 173.869 67.104 0.06 67.104"></polygon>
    </defs>
    <g id="Object/havlogo/orange" stroke="none" stroke-width="1" fill="none" fill-rule="evenodd">
        <polyline id="Fill-1" fill="#E84E0F" points="88.953 0.406 94.169 0.406 94.169 27.711 88.953 27.711 88.953 15.962 75.284 15.962 75.284 27.711 70.068 27.711 70.068 0.406 75.284 0.406 75.284 11.466 88.953 11.466 88.953 0.406"></polyline>
        <path d="M101.214,22.308 C101.214,23.722 102.242,24.447 104.184,24.447 C107.23,24.447 109.895,22.67 109.895,19.951 L109.895,18.791 C104.679,19.153 101.214,19.697 101.214,22.308 Z M109.895,14.693 C109.895,12.372 108.372,11.719 106.087,11.719 C103.575,11.719 101.709,12.481 100.643,14.656 L97.254,12.553 C99.082,9.218 102.28,7.948 106.583,7.948 C110.999,7.948 114.464,9.906 114.464,14.62 L114.464,22.996 C114.464,24.085 115.111,24.447 115.949,24.447 C116.253,24.447 116.596,24.411 116.901,24.339 L116.977,24.339 L116.33,27.892 C115.873,27.965 114.845,28.037 114.083,28.037 C111.761,28.037 110.58,26.913 110.085,25.173 C108.867,26.913 107.154,28.037 103.537,28.037 C100.034,28.037 96.76,26.586 96.76,22.562 C96.76,17.63 101.252,16.107 109.895,15.527 L109.895,14.693 L109.895,14.693 Z" id="Fill-2" fill="#E84E0F"></path>
        <polyline id="Fill-3" fill="#E84E0F" points="120.334 8.347 125.055 22.888 129.701 8.347 134.155 8.347 127.606 27.711 122.314 27.711 115.537 8.347 120.334 8.347"></polyline>
        <path d="M151.268,11.937 L147.993,14.294 C146.852,12.517 145.1,11.574 142.853,11.574 C140.302,11.574 139.235,12.3 139.235,13.533 C139.235,15.055 140.645,15.382 143.881,15.781 C147.803,16.288 151.725,17.376 151.725,22.018 C151.725,25.535 149.554,28.073 143.538,28.073 C138.817,28.073 135.657,26.224 134.096,22.996 L137.599,21.038 C138.779,22.96 140.302,24.375 143.462,24.375 C145.633,24.375 147.308,23.794 147.308,22.199 C147.308,20.603 145.938,20.349 142.586,19.805 C138.512,19.153 134.895,18.319 134.895,13.641 C134.895,9.652 138.322,7.948 142.625,7.948 C146.775,7.948 149.479,9.399 151.268,11.937" id="Fill-4" fill="#E84E0F"></path>
        <path d="M92.988,85.798 C95.92,85.798 99.842,87.682 99.842,92.832 L99.842,105.559 L95.273,105.559 L95.273,93.847 C95.273,91.237 94.321,89.569 91.694,89.569 C88.838,89.569 86.82,91.382 86.82,95.37 L86.82,105.559 L82.251,105.559 L82.251,93.847 C82.251,91.237 81.3,89.569 78.672,89.569 C75.817,89.569 73.799,91.382 73.799,95.37 L73.799,105.559 L69.23,105.559 L69.23,86.196 L73.799,86.196 L73.723,89.315 C74.675,87.682 76.388,85.798 79.967,85.798 C82.175,85.798 84.612,86.885 85.869,89.424 C87.43,86.922 89.6,85.798 92.988,85.798" id="Fill-5" fill="#E84E0F"></path>
        <path d="M100.614,86.196 L105.487,86.196 L109.98,99.467 L114.206,86.196 L118.661,86.196 L111.389,107.663 C110.855,109.186 109.942,110.673 108.609,111.651 C107.581,112.413 106.058,112.739 104.611,112.739 C103.088,112.739 101.718,112.45 100.804,111.942 L101.984,108.28 L102.06,108.28 C102.479,108.641 103.203,108.86 104.04,108.86 C105.259,108.86 106.325,108.461 106.934,106.938 L107.619,105.305 L100.614,86.196" id="Fill-6" fill="#E84E0F"></path>
        <path d="M125.013,86.196 L124.937,89.315 C125.888,87.61 127.716,85.798 131.294,85.798 C134.226,85.798 138.263,87.682 138.263,92.832 L138.263,105.559 L133.693,105.559 L133.693,93.847 C133.693,91.237 132.627,89.569 130,89.569 C127.145,89.569 125.013,91.382 125.013,95.37 L125.013,105.559 L120.444,105.559 L120.444,86.196 L125.013,86.196" id="Fill-7" fill="#E84E0F"></path>
        <path d="M150.199,89.532 C146.887,89.532 145.174,91.454 145.174,95.733 C145.174,99.831 146.658,102.296 150.01,102.296 C153.436,102.296 155.492,100.266 155.492,95.696 C155.492,91.382 153.322,89.532 150.199,89.532 Z M140.644,95.661 C140.644,89.387 144.26,85.798 149.324,85.798 C152.446,85.798 154.236,86.848 155.378,88.481 L155.378,78.073 L159.947,78.073 L159.947,105.559 L155.378,105.559 L155.454,102.803 C154.54,104.29 152.713,106.031 149.324,106.031 C143.803,106.031 140.644,102.079 140.644,95.661 L140.644,95.661 Z" id="Fill-8" fill="#E84E0F"></path>
        <mask id="mask-2" fill="white">
            <use xlink:href="#path-1"></use>
        </mask>
        <g id="Clip-10"></g>
        <path d="M163.113,105.559 L167.682,105.559 L167.682,86.196 L163.113,86.196 L163.113,105.559 Z M162.961,82.932 L167.834,82.932 L167.834,78.073 L162.961,78.073 L162.961,82.932 Z" id="Fill-9" fill="#E84E0F"></path>
        <path d="M175.236,92.801 C175.236,94.878 176.531,96.026 179.043,96.026 C181.595,96.026 182.812,94.655 182.812,92.727 C182.812,90.875 181.673,89.245 179.121,89.245 C176.453,89.245 175.236,90.8 175.236,92.801 Z M179.593,109.405 C184.066,109.405 185.284,108.627 185.284,107.477 C185.284,106.997 185.088,106.403 184.578,106.218 C183.754,105.922 182.027,105.922 179.082,105.922 C175.236,105.922 173.744,106.218 173.744,107.626 C173.744,108.923 175,109.405 179.593,109.405 Z M189.326,85.909 C189.955,85.909 190.543,86.169 190.779,86.427 L189.876,90.208 L189.798,90.208 C189.563,89.911 189.17,89.688 188.699,89.688 C187.836,89.688 186.933,90.505 186.933,91.356 C186.933,91.876 187.051,92.356 187.051,92.876 C187.051,97.212 183.793,99.473 178.887,99.473 C177.238,99.473 177.121,99.325 175.982,99.325 C174.844,99.325 173.627,99.731 173.627,100.585 C173.627,101.733 174.844,101.919 180.024,101.919 C183.675,101.919 185.951,101.993 187.403,102.771 C188.934,103.587 189.758,104.958 189.758,107.107 C189.758,111.184 186.461,113 179.357,113 C172.959,113 169.467,111.74 169.467,108.553 C169.467,106.7 170.997,105.773 173.117,105.18 C170.801,104.772 169.741,103.587 169.741,101.51 C169.741,99.695 171.154,98.471 173.47,97.842 C171.9,96.73 170.997,95.025 170.997,92.876 C170.997,88.54 174.373,85.798 179.121,85.798 C181.947,85.798 184.381,86.909 185.638,88.503 C186.501,86.613 187.836,85.909 189.326,85.909 L189.326,85.909 Z" id="Fill-11" fill="#E84E0F"></path>
        <path d="M196.547,78.073 L196.547,89.206 C197.537,87.538 199.251,85.798 202.83,85.798 C205.762,85.798 209.797,87.682 209.797,92.832 L209.797,105.559 L205.229,105.559 L205.229,93.847 C205.229,91.237 204.162,89.569 201.535,89.569 C198.68,89.569 196.547,91.382 196.547,95.37 L196.547,105.559 L191.979,105.559 L191.979,78.073 L196.547,78.073" id="Fill-13" fill="#E84E0F"></path>
        <path d="M225.893,93.485 C225.664,90.911 224.256,89.35 221.514,89.35 C218.849,89.35 217.25,90.62 216.754,93.485 L225.893,93.485 Z M221.818,102.187 C224.484,102.187 225.969,101.099 226.768,98.851 L230.652,100.193 C229.662,103.457 227.148,105.885 221.666,105.885 C216.146,105.885 212.109,102.477 212.109,95.733 C212.109,89.641 216.031,85.798 221.514,85.798 C226.92,85.798 230.729,88.916 230.729,96.821 L216.641,96.821 C216.906,100.374 218.354,102.187 221.818,102.187 L221.818,102.187 Z" id="Fill-14" fill="#E84E0F"></path>
        <path d="M239.354,100.773 C239.354,101.716 239.924,102.223 240.99,102.223 C242.246,102.223 243.122,101.933 243.655,101.499 L243.77,101.499 L243.503,105.451 C242.741,105.778 241.713,106.031 240.114,106.031 C236.802,106.031 234.783,104.327 234.783,100.665 L234.783,89.895 L231.281,89.895 L231.281,86.196 L234.783,86.196 L234.783,83.44 C236.346,82.425 237.678,81.337 239.238,79.669 L239.354,79.669 L239.354,86.196 L243.617,86.196 L243.617,89.895 L239.354,89.895 L239.354,100.773" id="Fill-15" fill="#E84E0F"></path>
        <path d="M258.355,93.485 C258.128,90.911 256.719,89.35 253.978,89.35 C251.313,89.35 249.713,90.62 249.219,93.485 L258.355,93.485 Z M254.282,102.187 C256.947,102.187 258.432,101.099 259.232,98.851 L263.115,100.193 C262.125,103.457 259.612,105.885 254.13,105.885 C248.609,105.885 244.573,102.477 244.573,95.733 C244.573,89.641 248.494,85.798 253.978,85.798 C259.385,85.798 263.191,88.916 263.191,96.821 L249.104,96.821 C249.371,100.374 250.817,102.187 254.282,102.187 L254.282,102.187 Z" id="Fill-16" fill="#E84E0F"></path>
        <path d="M270.215,86.196 L270.139,89.315 C271.091,87.61 272.918,85.798 276.497,85.798 C279.429,85.798 283.465,87.682 283.465,92.832 L283.465,105.559 L278.896,105.559 L278.896,93.847 C278.896,91.237 277.83,89.569 275.202,89.569 C272.348,89.569 270.215,91.382 270.215,95.37 L270.215,105.559 L265.646,105.559 L265.646,86.196 L270.215,86.196" id="Fill-17" fill="#E84E0F"></path>
        <polyline id="Fill-18" fill="#E84E0F" points="82.861 66.633 77.759 66.633 67.289 39.329 73.038 39.329 80.348 59.344 87.239 39.329 92.608 39.329 82.861 66.633"></polyline>
        <path d="M94.289,61.231 C94.289,62.644 95.317,63.37 97.259,63.37 C100.305,63.37 102.97,61.592 102.97,58.874 L102.97,57.714 C97.754,58.076 94.289,58.62 94.289,61.231 Z M102.97,53.615 C102.97,51.295 101.447,50.642 99.163,50.642 C96.65,50.642 94.784,51.404 93.718,53.579 L90.33,51.476 C92.157,48.14 95.355,46.871 99.658,46.871 C104.074,46.871 107.539,48.829 107.539,53.543 L107.539,61.92 C107.539,63.008 108.186,63.37 109.024,63.37 C109.329,63.37 109.671,63.334 109.976,63.262 L110.052,63.262 L109.405,66.815 C108.948,66.887 107.919,66.96 107.158,66.96 C104.836,66.96 103.655,65.836 103.16,64.094 C101.942,65.836 100.229,66.96 96.612,66.96 C93.109,66.96 89.835,65.508 89.835,61.484 C89.835,56.552 94.327,55.03 102.97,54.449 L102.97,53.615 L102.97,53.615 Z" id="Fill-19" fill="#E84E0F"></path>
        <path d="M117.223,61.846 C117.223,62.79 117.794,63.298 118.86,63.298 C120.117,63.298 120.993,63.008 121.526,62.572 L121.64,62.572 L121.374,66.524 C120.612,66.851 119.584,67.104 117.985,67.104 C114.672,67.104 112.654,65.401 112.654,61.738 L112.654,50.968 L109.152,50.968 L109.152,47.27 L112.654,47.27 L112.654,44.514 C114.215,43.499 115.548,42.411 117.109,40.743 L117.223,40.743 L117.223,47.27 L120.94,47.27 L120.94,50.968 L117.223,50.968 L117.223,61.846" id="Fill-20" fill="#E84E0F"></path>
        <path d="M129.646,61.846 C129.646,62.79 130.217,63.298 131.283,63.298 C132.54,63.298 133.415,63.008 133.948,62.572 L134.063,62.572 L133.796,66.524 C133.035,66.851 132.006,67.104 130.407,67.104 C127.095,67.104 125.077,65.401 125.077,61.738 L125.077,50.968 L122.122,50.968 L122.122,47.27 L125.077,47.27 L125.077,44.514 C126.638,43.499 127.971,42.411 129.532,40.743 L129.646,40.743 L129.646,47.27 L133.91,47.27 L133.91,50.968 L129.646,50.968 L129.646,61.846" id="Fill-21" fill="#E84E0F"></path>
        <path d="M148.761,54.558 C148.532,51.984 147.123,50.425 144.382,50.425 C141.717,50.425 140.118,51.694 139.622,54.558 L148.761,54.558 Z M144.687,63.262 C147.352,63.262 148.836,62.173 149.637,59.925 L153.52,61.266 C152.529,64.53 150.018,66.96 144.534,66.96 C139.011,66.96 134.976,63.551 134.976,56.806 C134.976,50.715 138.897,46.871 144.382,46.871 C149.789,46.871 153.596,49.989 153.596,57.895 L139.508,57.895 C139.774,61.448 141.222,63.262 144.687,63.262 L144.687,63.262 Z" id="Fill-22" fill="#E84E0F"></path>
        <mask id="mask-4" fill="white">
            <use xlink:href="#path-3"></use>
        </mask>
        <g id="Clip-24"></g>
        <path d="M160.619,47.27 L160.543,50.388 C161.495,48.684 163.322,46.871 166.901,46.871 C169.833,46.871 173.869,48.757 173.869,53.905 L173.869,66.633 L169.3,66.633 L169.3,54.921 C169.3,52.31 168.234,50.642 165.607,50.642 C162.752,50.642 160.619,52.455 160.619,56.444 L160.619,66.633 L156.051,66.633 L156.051,47.27 L160.619,47.27" id="Fill-23" fill="#E84E0F" mask="url(#mask-4)"></path>
        <path d="M4.531,56.661 C4.531,60.578 5.863,63.624 9.671,63.624 C13.745,63.624 14.925,60.868 14.925,56.951 C14.925,53.216 13.402,50.243 9.785,50.243 C6.13,50.243 4.531,52.854 4.531,56.661 Z M19.456,56.915 C19.456,63.515 15.801,67.104 9.747,67.104 C3.884,67.104 0,63.08 0,56.951 C0,50.57 4.112,46.799 9.747,46.799 C15.572,46.799 19.456,50.606 19.456,56.915 L19.456,56.915 Z" id="Fill-25" fill="#E84E0F" mask="url(#mask-4)"></path>
        <path d="M30.975,50.497 C27.815,50.497 25.797,52.492 25.797,56.589 C25.797,60.723 27.435,63.298 30.975,63.298 C33.603,63.298 35.011,62.065 35.887,59.78 L39.618,61.992 C38.133,65.038 35.62,66.96 30.785,66.96 C25.188,66.96 21.19,63.044 21.19,56.806 C21.19,50.823 25.226,46.871 31.089,46.871 C35.239,46.871 38.171,48.684 39.352,52.165 L35.506,54.05 C34.669,51.694 33.374,50.497 30.975,50.497" id="Fill-27" fill="#E84E0F"></path>
        <path d="M46.026,39.147 L46.026,50.279 C47.017,48.612 48.73,46.871 52.309,46.871 C55.241,46.871 59.276,48.757 59.276,53.905 L59.276,66.633 L54.707,66.633 L54.707,54.921 C54.707,52.31 53.641,50.642 51.014,50.642 C48.159,50.642 46.026,52.455 46.026,56.444 L46.026,66.633 L41.457,66.633 L41.457,39.147 L46.026,39.147" id="Fill-28" fill="#E84E0F"></path>
    </g>
</svg>