<?xml version="1.0" encoding="UTF-8"?>
<svg width="284px" height="114px" viewBox="0 0 284 114" xmlns="http://www.w3.org/2000/svg">
 <g id="Object/havlogo" fill-rule="evenodd">
  <path d="m88.953 0.406h5.216v27.305h-5.216v-11.749h-13.669v11.749h-5.216v-27.305h5.216v11.06h13.669v-11.06"/>
  <path d="m101.21 22.308c0 1.414 1.028 2.139 2.97 2.139 3.046 0 5.711-1.777 5.711-4.496v-1.16c-5.216 0.362-8.681 0.906-8.681 3.517zm8.681-7.615c0-2.321-1.523-2.974-3.808-2.974-2.512 0-4.378 0.762-5.444 2.937l-3.389-2.103c1.828-3.335 5.026-4.605 9.329-4.605 4.416 0 7.881 1.958 7.881 6.672v8.376c0 1.089 0.647 1.451 1.485 1.451 0.304 0 0.647-0.036 0.952-0.108h0.076l-0.647 3.553c-0.457 0.073-1.485 0.145-2.247 0.145-2.322 0-3.503-1.124-3.998-2.864-1.218 1.74-2.931 2.864-6.548 2.864-3.503 0-6.777-1.451-6.777-5.475 0-4.932 4.492-6.455 13.135-7.035z"/>
  <path d="m120.33 8.347 4.721 14.541 4.646-14.541h4.454l-6.549 19.364h-5.292l-6.777-19.364h4.797"/>
  <path d="m151.27 11.937-3.275 2.357c-1.141-1.777-2.893-2.72-5.14-2.72-2.551 0-3.618 0.726-3.618 1.959 0 1.522 1.41 1.849 4.646 2.248 3.922 0.507 7.844 1.595 7.844 6.237 0 3.517-2.171 6.055-8.187 6.055-4.721 0-7.881-1.849-9.442-5.077l3.503-1.958c1.18 1.922 2.703 3.337 5.863 3.337 2.171 0 3.846-0.581 3.846-2.176 0-1.596-1.37-1.85-4.722-2.394-4.074-0.652-7.691-1.486-7.691-6.164 0-3.989 3.427-5.693 7.73-5.693 4.15 0 6.854 1.451 8.643 3.989"/>
  <path d="m92.988 85.798c2.932 0 6.854 1.884 6.854 7.034v12.727h-4.569v-11.712c0-2.61-0.952-4.278-3.579-4.278-2.856 0-4.874 1.813-4.874 5.801v10.189h-4.569v-11.712c0-2.61-0.951-4.278-3.579-4.278-2.855 0-4.873 1.813-4.873 5.801v10.189h-4.569v-19.363h4.569l-0.076 3.119c0.952-1.633 2.665-3.517 6.244-3.517 2.208 0 4.645 1.087 5.902 3.626 1.561-2.502 3.731-3.626 7.119-3.626"/>
  <path d="m100.61 86.196h4.873l4.493 13.271 4.226-13.271h4.455l-7.272 21.467c-0.534 1.523-1.447 3.01-2.78 3.988-1.028 0.762-2.551 1.088-3.998 1.088-1.523 0-2.893-0.289-3.807-0.797l1.18-3.662h0.076c0.419 0.361 1.143 0.58 1.98 0.58 1.219 0 2.285-0.399 2.894-1.922l0.685-1.633-7.005-19.109"/>
  <path d="m125.01 86.196-0.076 3.119c0.951-1.705 2.779-3.517 6.357-3.517 2.932 0 6.969 1.884 6.969 7.034v12.727h-4.57v-11.712c0-2.61-1.066-4.278-3.693-4.278-2.855 0-4.987 1.813-4.987 5.801v10.189h-4.569v-19.363h4.569"/>
  <path d="m150.2 89.532c-3.312 0-5.025 1.922-5.025 6.201 0 4.098 1.484 6.563 4.836 6.563 3.426 0 5.482-2.03 5.482-6.6 0-4.314-2.17-6.164-5.293-6.164zm-9.555 6.129c0-6.274 3.616-9.863 8.68-9.863 3.122 0 4.912 1.05 6.054 2.683v-10.408h4.569v27.486h-4.569l0.076-2.756c-0.914 1.487-2.741 3.228-6.13 3.228-5.521 0-8.68-3.952-8.68-10.37z"/>
  <path d="m163.11 105.56h4.569v-19.363h-4.569zm-0.152-22.627h4.873v-4.859h-4.873z"/>
  <path d="m175.24 92.801c0 2.077 1.295 3.225 3.807 3.225 2.552 0 3.769-1.371 3.769-3.299 0-1.852-1.139-3.482-3.691-3.482-2.668 0-3.885 1.555-3.885 3.556zm4.357 16.604c4.473 0 5.691-0.778 5.691-1.928 0-0.48-0.196-1.074-0.706-1.259-0.824-0.296-2.551-0.296-5.496-0.296-3.846 0-5.338 0.296-5.338 1.704 0 1.297 1.256 1.779 5.849 1.779zm9.733-23.496c0.629 0 1.217 0.26 1.453 0.518l-0.903 3.781h-0.078c-0.235-0.297-0.628-0.52-1.099-0.52-0.863 0-1.766 0.817-1.766 1.668 0 0.52 0.118 1 0.118 1.52 0 4.336-3.258 6.597-8.164 6.597-1.649 0-1.766-0.148-2.905-0.148-1.138 0-2.355 0.406-2.355 1.26 0 1.148 1.217 1.334 6.397 1.334 3.651 0 5.927 0.074 7.379 0.852 1.531 0.816 2.355 2.187 2.355 4.336 0 4.077-3.297 5.893-10.401 5.893-6.398 0-9.89-1.26-9.89-4.447 0-1.853 1.53-2.78 3.65-3.373-2.316-0.408-3.376-1.593-3.376-3.67 0-1.815 1.413-3.039 3.729-3.668-1.57-1.112-2.473-2.817-2.473-4.966 0-4.336 3.376-7.078 8.124-7.078 2.826 0 5.26 1.111 6.517 2.705 0.863-1.89 2.198-2.594 3.688-2.594z"/>
  <path d="m196.55 78.073v11.133c0.99-1.668 2.704-3.408 6.283-3.408 2.932 0 6.967 1.884 6.967 7.034v12.727h-4.568v-11.712c0-2.61-1.067-4.278-3.694-4.278-2.855 0-4.988 1.813-4.988 5.801v10.189h-4.568v-27.486h4.568"/>
  <path d="m225.89 93.485c-0.229-2.574-1.637-4.135-4.379-4.135-2.665 0-4.264 1.27-4.76 4.135zm-4.075 8.702c2.666 0 4.151-1.088 4.95-3.336l3.884 1.342c-0.99 3.264-3.504 5.692-8.986 5.692-5.52 0-9.557-3.408-9.557-10.152 0-6.092 3.922-9.935 9.405-9.935 5.406 0 9.215 3.118 9.215 11.023h-14.088c0.265 3.553 1.713 5.366 5.177 5.366z"/>
  <path d="m239.35 100.77c0 0.943 0.57 1.45 1.636 1.45 1.256 0 2.132-0.29 2.665-0.724h0.115l-0.267 3.952c-0.762 0.327-1.79 0.58-3.389 0.58-3.312 0-5.331-1.704-5.331-5.366v-10.77h-3.502v-3.699h3.502v-2.756c1.563-1.015 2.895-2.103 4.455-3.771h0.116v6.527h4.263v3.699h-4.263v10.878"/>
  <path d="m258.36 93.485c-0.227-2.574-1.636-4.135-4.377-4.135-2.665 0-4.265 1.27-4.759 4.135zm-4.073 8.702c2.665 0 4.15-1.088 4.95-3.336l3.883 1.342c-0.99 3.264-3.503 5.692-8.985 5.692-5.521 0-9.557-3.408-9.557-10.152 0-6.092 3.921-9.935 9.405-9.935 5.407 0 9.213 3.118 9.213 11.023h-14.087c0.267 3.553 1.713 5.366 5.178 5.366z"/>
  <path d="m270.22 86.196-0.076 3.119c0.952-1.705 2.779-3.517 6.358-3.517 2.932 0 6.968 1.884 6.968 7.034v12.727h-4.569v-11.712c0-2.61-1.066-4.278-3.694-4.278-2.854 0-4.987 1.813-4.987 5.801v10.189h-4.569v-19.363h4.569"/>
  <path d="m82.861 66.633h-5.102l-10.47-27.304h5.749l7.31 20.015 6.891-20.015h5.369l-9.747 27.304"/>
  <path d="m94.289 61.231c0 1.413 1.028 2.139 2.97 2.139 3.046 0 5.711-1.778 5.711-4.496v-1.16c-5.216 0.362-8.681 0.906-8.681 3.517zm8.681-7.616c0-2.32-1.523-2.973-3.807-2.973-2.513 0-4.379 0.762-5.445 2.937l-3.388-2.103c1.827-3.336 5.025-4.605 9.328-4.605 4.416 0 7.881 1.958 7.881 6.672v8.377c0 1.088 0.647 1.45 1.485 1.45 0.305 0 0.647-0.036 0.952-0.108h0.076l-0.647 3.553c-0.457 0.072-1.486 0.145-2.247 0.145-2.322 0-3.503-1.124-3.998-2.866-1.218 1.742-2.931 2.866-6.548 2.866-3.503 0-6.777-1.452-6.777-5.476 0-4.932 4.492-6.454 13.135-7.035z"/>
  <path d="m117.22 61.846c0 0.944 0.571 1.452 1.637 1.452 1.257 0 2.133-0.29 2.666-0.726h0.114l-0.266 3.952c-0.762 0.327-1.79 0.58-3.389 0.58-3.313 0-5.331-1.703-5.331-5.366v-10.77h-3.502v-3.698h3.502v-2.756c1.561-1.015 2.894-2.103 4.455-3.771h0.114v6.527h3.717v3.698h-3.717v10.878"/>
  <path d="m129.65 61.846c0 0.944 0.571 1.452 1.637 1.452 1.257 0 2.132-0.29 2.665-0.726h0.115l-0.267 3.952c-0.761 0.327-1.79 0.58-3.389 0.58-3.312 0-5.33-1.703-5.33-5.366v-10.77h-2.955v-3.698h2.955v-2.756c1.561-1.015 2.894-2.103 4.455-3.771h0.114v6.527h4.264v3.698h-4.264v10.878"/>
  <path d="m148.76 54.558c-0.229-2.574-1.638-4.133-4.379-4.133-2.665 0-4.264 1.269-4.76 4.133zm-4.074 8.704c2.665 0 4.149-1.089 4.95-3.337l3.883 1.341c-0.991 3.264-3.502 5.694-8.986 5.694-5.523 0-9.558-3.409-9.558-10.154 0-6.091 3.921-9.935 9.406-9.935 5.407 0 9.214 3.118 9.214 11.024h-14.088c0.266 3.553 1.714 5.367 5.179 5.367z"/>
  <path d="m160.62 47.27-0.076 3.118c0.952-1.704 2.779-3.517 6.358-3.517 2.932 0 6.968 1.886 6.968 7.034v12.728h-4.569v-11.712c0-2.611-1.066-4.279-3.693-4.279-2.855 0-4.988 1.813-4.988 5.802v10.189h-4.568v-19.363h4.568"/>
  <path d="m4.531 56.661c0 3.917 1.332 6.963 5.14 6.963 4.074 0 5.254-2.756 5.254-6.673 0-3.735-1.523-6.708-5.14-6.708-3.655 0-5.254 2.611-5.254 6.418zm14.925 0.254c0 6.6-3.655 10.189-9.709 10.189-5.863 0-9.747-4.024-9.747-10.153 0-6.381 4.112-10.152 9.747-10.152 5.825 0 9.709 3.807 9.709 10.116z"/>
  <path d="m30.975 50.497c-3.16 0-5.178 1.995-5.178 6.092 0 4.134 1.638 6.709 5.178 6.709 2.628 0 4.036-1.233 4.912-3.518l3.731 2.212c-1.485 3.046-3.998 4.968-8.833 4.968-5.597 0-9.595-3.916-9.595-10.154 0-5.983 4.036-9.935 9.899-9.935 4.15 0 7.082 1.813 8.263 5.294l-3.846 1.885c-0.837-2.356-2.132-3.553-4.531-3.553"/>
  <path d="m46.026 39.147v11.132c0.991-1.667 2.704-3.408 6.283-3.408 2.932 0 6.967 1.886 6.967 7.034v12.728h-4.569v-11.712c0-2.611-1.066-4.279-3.693-4.279-2.855 0-4.988 1.813-4.988 5.802v10.189h-4.569v-27.486h4.569"/>
 </g>
</svg>
