<?xml version="1.0" encoding="UTF-8"?>
<svg width="313.93pt" height="93.76pt" viewBox="0 0 313.93 93.76" xmlns="http://www.w3.org/2000/svg">
 <g fill="#000000">
  <path d="m61.754 4.8164-3.3086 2.1172c-1.0742-2.0586-2.8438-3.4805-5.9492-3.4805-3.2188 0-4.5234 0.87109-4.5234 2.668 0 2.1484 1.8008 2.3516 5.6562 2.957 5.2227 0.84375 8.7305 2.1484 8.7305 7.1953 0 4.5273-3.6523 6.3242-9.1055 6.3242-5.5703 0-8.8477-2.2617-9.9219-5.7422l3.625-1.625c1.0742 2.3789 2.6406 3.8281 6.5 3.8281 3.1328 0 4.7852-0.87109 4.7852-2.7852 0-2.2617-1.7695-2.668-6.1211-3.3945-4.3516-0.72266-8.0938-1.6797-8.0938-6.5273 0-3.7969 2.9609-6.3516 8.5-6.3516 4.8164 0 7.7148 1.8008 9.2266 4.8164"/>
  <path d="m80.078 17.492 3.1055-10.762h3.5078l-4.8438 15.488h-3.5664l-3.1328-11.516-3.25 11.516h-3.5664l-4.4102-15.488h3.625l2.7852 10.762 3.1055-10.762h3.5664l3.0742 10.762"/>
  <path d="m98.754 12.562c-0.17578-2.0625-1.2461-3.3086-3.3359-3.3086-2.0312 0-3.25 1.0156-3.625 3.3086zm-3.1055 6.9609c2.0312 0 3.1641-0.87109 3.7734-2.668l2.957 1.0703c-0.75391 2.6133-2.668 4.5547-6.8438 4.5547-4.207 0-7.2812-2.7266-7.2812-8.1211 0-4.875 2.9844-7.9492 7.1641-7.9492 4.1172 0 7.0195 2.4961 7.0195 8.8203h-10.73c0.19922 2.8398 1.3047 4.293 3.9414 4.293"/>
  <path d="m111.98 9.3984c-2.5234 0-3.8281 1.5391-3.8281 4.9609 0 3.2773 1.1289 5.25 3.6836 5.25 2.6094 0 4.1758-1.625 4.1758-5.2773 0-3.4531-1.6523-4.9336-4.0312-4.9336zm-7.2812 4.9023c0-5.0195 2.7539-7.8906 6.6133-7.8906 2.3789 0 3.7422 0.84375 4.6133 2.1484v-8.3242h3.4805v21.984h-3.4805l0.058594-2.2031c-0.69922 1.1875-2.0898 2.582-4.6719 2.582-4.207 0-6.6133-3.1641-6.6133-8.2969"/>
  <path d="m127.17 6.7305v15.488h-3.4805v-15.488zm0.11328-6.4961v3.8867h-3.7109v-3.8867h3.7109"/>
  <path d="m142.54 9.6016-2.4922 1.8867c-0.87109-1.4219-2.207-2.1758-3.918-2.1758-1.9453 0-2.7539 0.57812-2.7539 1.5664 0 1.2188 1.0703 1.4805 3.5352 1.7969 2.9883 0.40625 5.9766 1.2773 5.9766 4.9922 0 2.8125-1.6523 4.8438-6.2344 4.8438-3.5977 0-6.0078-1.4805-7.1953-4.0625l2.668-1.5664c0.89844 1.5391 2.0586 2.668 4.4688 2.668 1.6523 0 2.9297-0.46484 2.9297-1.7383 0-1.2773-1.0469-1.4805-3.5977-1.9141-3.1055-0.52344-5.8594-1.1914-5.8594-4.9336 0-3.1914 2.6094-4.5547 5.8906-4.5547 3.1602 0 5.2188 1.1602 6.582 3.1914"/>
  <path d="m148.75 0.23438v8.9023c0.75391-1.332 2.0625-2.7266 4.7852-2.7266 2.2344 0 5.3125 1.5078 5.3125 5.6289v10.18h-3.4844v-9.3672c0-2.0898-0.8125-3.4219-2.8125-3.4219-2.1758 0-3.8008 1.4492-3.8008 4.6406v8.1484h-3.4805v-21.984h3.4805"/>
  <path d="m176.07 5.0781-2.9297 8.6719h5.7695zm-5.7734 17.141h-3.7695l7.5703-21.84h4.293l7.3086 21.84h-4.0312l-1.6523-5.1055h-8.0078l-1.7109 5.1055"/>
  <path d="m191.58 11.953c0 1.6211 0.95703 2.5234 2.8164 2.5234 1.8828 0 2.7812-1.0742 2.7812-2.582 0-1.4492-0.83984-2.7266-2.7266-2.7266-1.9727 0-2.8711 1.2188-2.8711 2.7852zm3.2188 12.992c3.3086 0 4.207-0.60938 4.207-1.5078 0-0.375-0.14453-0.83984-0.51953-0.98438-0.61328-0.23438-1.8867-0.23438-4.0625-0.23438-2.8438 0-3.9453 0.23438-3.9453 1.3359 0 1.0156 0.92969 1.3906 4.3203 1.3906zm7.1953-18.391c0.46484 0 0.89844 0.20312 1.0742 0.40625l-0.66797 2.9609h-0.058594c-0.17578-0.23438-0.46484-0.40625-0.8125-0.40625-0.63672 0-1.3047 0.63672-1.3047 1.3047 0 0.40625 0.085938 0.78516 0.085938 1.1875 0 3.3945-2.4062 5.1641-6.0312 5.1641-1.2188 0-1.3047-0.11328-2.1484-0.11328-0.83984 0-1.7383 0.31641-1.7383 0.98438 0 0.89844 0.89844 1.043 4.7266 1.043 2.6992 0 4.3789 0.058593 5.4531 0.66797 1.1328 0.64062 1.7422 1.7109 1.7422 3.3945 0 3.1914-2.4375 4.6133-7.6875 4.6133-4.7266 0-7.3086-0.98828-7.3086-3.4805 0-1.4531 1.1289-2.1758 2.6953-2.6406-1.7109-0.32031-2.4922-1.2461-2.4922-2.8711 0-1.4219 1.043-2.3789 2.7539-2.8711-1.1602-0.87109-1.8281-2.207-1.8281-3.8906 0-3.3906 2.4961-5.5391 6.0039-5.5391 2.0898 0 3.8867 0.87109 4.8164 2.1172 0.63672-1.4766 1.625-2.0312 2.7266-2.0312"/>
  <path d="m213.88 12.562c-0.17578-2.0625-1.25-3.3086-3.3359-3.3086-2.0312 0-3.25 1.0156-3.625 3.3086zm-3.1055 6.9609c2.0312 0 3.1641-0.87109 3.7734-2.668l2.957 1.0703c-0.75391 2.6133-2.668 4.5547-6.8477 4.5547-4.2031 0-7.2773-2.7266-7.2773-8.1211 0-4.875 2.9844-7.9492 7.1641-7.9492 4.1172 0 7.0195 2.4961 7.0195 8.8203h-10.734c0.20312 2.8398 1.3047 4.293 3.9453 4.293"/>
  <path d="m223.91 6.7305-0.058594 2.4961c0.72656-1.3633 2.1172-2.8164 4.8438-2.8164 2.2344 0 5.3086 1.5078 5.3086 5.6289v10.18h-3.4805v-9.3672c0-2.0898-0.8125-3.4219-2.8125-3.4219-2.1758 0-3.8008 1.4492-3.8008 4.6406v8.1484h-3.4805v-15.488h3.4805"/>
  <path d="m244.04 9.3125c-2.4062 0-3.9453 1.5938-3.9453 4.8711 0 3.3086 1.25 5.3672 3.9453 5.3672 2 0 3.0742-0.98438 3.7422-2.8125l2.8438 1.7695c-1.1328 2.4375-3.0469 3.9727-6.7305 3.9727-4.2617 0-7.3086-3.1328-7.3086-8.1211 0-4.7852 3.0742-7.9492 7.543-7.9492 3.1602 0 5.3945 1.4531 6.293 4.2344l-2.9297 1.5117c-0.63672-1.8867-1.625-2.8438-3.4531-2.8438"/>
  <path d="m251.64 6.7305h3.7109l3.4258 10.617 3.2188-10.617h3.3945l-5.543 17.172c-0.40234 1.2188-1.1016 2.4062-2.1172 3.1914-0.78125 0.60938-1.9414 0.87109-3.043 0.87109-1.1602 0-2.207-0.23438-2.9023-0.64062l0.89844-2.9297h0.058593c0.32031 0.29297 0.87109 0.46484 1.5078 0.46484 0.92969 0 1.7422-0.32031 2.207-1.5352l0.51953-1.3086-5.3359-15.285"/>
  <path d="m67.004 55.219h-3.8008v-16.504l-6.0352 16.504h-2.6094l-5.8906-16.504v16.504h-3.5664v-21.84h5.5117l5.4531 15.023 5.5703-15.023h5.3672v21.84"/>
  <path d="m74.277 50.898c0 1.1328 0.78125 1.7109 2.2617 1.7109 2.3203 0 4.3516-1.4219 4.3516-3.5977v-0.92578c-3.9766 0.28906-6.6133 0.72266-6.6133 2.8125zm6.6133-6.0898c0-1.8594-1.1641-2.3789-2.9023-2.3789-1.9141 0-3.3359 0.60938-4.1484 2.3477l-2.582-1.6836c1.3945-2.668 3.832-3.6836 7.1055-3.6836 3.3672 0 6.0078 1.5664 6.0078 5.3398v6.6992c0 0.87109 0.49219 1.1602 1.1289 1.1602 0.23438 0 0.49219-0.027344 0.72656-0.085937h0.058593l-0.49609 2.8438c-0.34375 0.054687-1.1289 0.11328-1.707 0.11328-1.7734 0-2.6719-0.89844-3.0469-2.2891-0.92969 1.3906-2.2344 2.2891-4.9922 2.2891-2.668 0-5.1602-1.1602-5.1602-4.3789 0-3.9453 3.4219-5.1641 10.008-5.6289v-0.66406"/>
  <path d="m91.473 39.73-0.058593 2.6992c0.52344-1.7148 1.5391-2.9297 3.3672-2.9297 1.1602 0 1.9727 0.46094 2.4336 0.95703l-1.2734 3.4219h-0.11719c-0.32031-0.46484-0.75391-0.87109-1.7109-0.87109-1.7695 0-2.6406 2.0898-2.6406 4.2656v7.9453h-3.4805v-15.488h3.4805"/>
  <path d="m103.48 39.73v15.488h-3.4805v-15.488zm0.11719-6.4961v3.8867h-3.7109v-3.8867h3.7109"/>
  <path d="m110.09 39.73-0.058594 2.4961c0.72656-1.3633 2.1172-2.8164 4.8438-2.8164 2.2344 0 5.3086 1.5078 5.3086 5.6289v10.18h-3.4805v-9.3672c0-2.0898-0.8125-3.4219-2.8125-3.4219-2.1758 0-3.8008 1.4492-3.8008 4.6406v8.1484h-3.4805v-15.488h3.4805"/>
  <path d="m133.9 45.562c-0.17188-2.0625-1.2461-3.3086-3.3359-3.3086-2.0273 0-3.2461 1.0156-3.625 3.3086zm-3.1016 6.9609c2.0312 0 3.1641-0.87109 3.7695-2.668l2.9609 1.0703c-0.75391 2.6133-2.6719 4.5547-6.8477 4.5547-4.2031 0-7.2812-2.7266-7.2812-8.1211 0-4.875 2.9883-7.9492 7.1641-7.9492 4.1211 0 7.0234 2.4961 7.0234 8.8203h-10.734c0.20312 2.8398 1.3047 4.293 3.9453 4.293"/>
  <path d="m148.75 50.898c0 1.1328 0.78516 1.7109 2.2617 1.7109 2.3203 0 4.3516-1.4219 4.3516-3.5977v-0.92578c-3.9727 0.28906-6.6133 0.72266-6.6133 2.8125zm6.6133-6.0898c0-1.8594-1.1602-2.3789-2.8984-2.3789-1.9141 0-3.3359 0.60938-4.1484 2.3477l-2.582-1.6836c1.3906-2.668 3.8281-3.6836 7.1055-3.6836 3.3633 0 6.0039 1.5664 6.0039 5.3398v6.6992c0 0.87109 0.49609 1.1602 1.1328 1.1602 0.23047 0 0.49219-0.027344 0.72656-0.085937h0.058594l-0.49609 2.8438c-0.34766 0.054687-1.1289 0.11328-1.7109 0.11328-1.7695 0-2.668-0.89844-3.0469-2.2891-0.92578 1.3906-2.2344 2.2891-4.9883 2.2891-2.668 0-5.1641-1.1602-5.1641-4.3789 0-3.9453 3.4219-5.1641 10.008-5.6289v-0.66406"/>
  <path d="m166.32 39.73-0.058594 2.4961c0.72656-1.3633 2.1211-2.8164 4.8477-2.8164 2.2305 0 5.3047 1.5078 5.3047 5.6289v10.18h-3.4805v-9.3672c0-2.0898-0.8125-3.4219-2.8125-3.4219-2.1758 0-3.8008 1.4492-3.8008 4.6406v8.1484h-3.4805v-15.488h3.4805"/>
  <path d="m186.36 42.398c-2.5234 0-3.8281 1.5391-3.8281 4.9609 0 3.2773 1.1328 5.25 3.6836 5.25 2.6094 0 4.1758-1.625 4.1758-5.2773 0-3.4531-1.6523-4.9336-4.0312-4.9336zm-7.2812 4.9023c0-5.0195 2.7578-7.8906 6.6133-7.8906 2.3789 0 3.7422 0.84375 4.6133 2.1484v-8.3242h3.4805v21.984h-3.4805l0.058593-2.2031c-0.69922 1.1875-2.0898 2.582-4.6719 2.582-4.2031 0-6.6133-3.1641-6.6133-8.2969"/>
  <path d="m53.164 88.219h-4.3203l-5.8008-21.84h4.2617l4.0039 15.895 4.3242-15.895h4.2031l4.2656 15.867 4.293-15.867h4.0312l-6.2656 21.84h-4.1484l-4.4375-16.504-4.4102 16.504"/>
  <path d="m75.668 83.898c0 1.1328 0.78516 1.7109 2.2617 1.7109 2.3203 0 4.3516-1.4219 4.3516-3.5977v-0.92578c-3.9727 0.28906-6.6133 0.72266-6.6133 2.8125zm6.6133-6.0898c0-1.8594-1.1602-2.3789-2.8984-2.3789-1.9141 0-3.3398 0.60938-4.1523 2.3477l-2.5781-1.6836c1.3906-2.668 3.8281-3.6836 7.1055-3.6836 3.3633 0 6.0039 1.5664 6.0039 5.3398v6.6992c0 0.87109 0.49609 1.1602 1.1328 1.1602 0.23047 0 0.49219-0.027344 0.72266-0.085937h0.058593l-0.49219 2.8438c-0.34766 0.054687-1.1328 0.11328-1.7109 0.11328-1.7695 0-2.668-0.89844-3.0469-2.2891-0.92969 1.3906-2.2305 2.2891-4.9883 2.2891-2.668 0-5.1641-1.1602-5.1641-4.3789 0-3.9453 3.4258-5.1641 10.008-5.6289v-0.66406"/>
  <path d="m94.547 84.391c0 0.75391 0.43359 1.1602 1.2461 1.1602 0.96094 0 1.625-0.23047 2.0312-0.57812h0.085937l-0.19922 3.1602c-0.58203 0.26172-1.3672 0.46484-2.582 0.46484-2.5234 0-4.0625-1.3633-4.0625-4.293v-8.6172h-2.668v-2.957h2.668v-2.2031c1.1914-0.8125 2.207-1.6836 3.3945-3.0195h0.085937v5.2227h3.25v2.957h-3.25v8.7031"/>
  <path d="m109.54 78.562c-0.17188-2.0625-1.2461-3.3086-3.3359-3.3086-2.0273 0-3.2461 1.0156-3.625 3.3086zm-3.1016 6.9609c2.0312 0 3.1641-0.87109 3.7695-2.668l2.9609 1.0703c-0.75391 2.6133-2.6719 4.5547-6.8477 4.5547-4.207 0-7.2812-2.7266-7.2812-8.1211 0-4.875 2.9883-7.9492 7.1641-7.9492 4.1211 0 7.0234 2.4961 7.0234 8.8203h-10.734c0.20312 2.8398 1.3047 4.293 3.9453 4.293"/>
  <path d="m119.89 72.73-0.058593 2.6992c0.51953-1.7148 1.5352-2.9297 3.3633-2.9297 1.1602 0 1.9727 0.46094 2.4375 0.95703l-1.2773 3.4219h-0.11719c-0.31641-0.46484-0.75391-0.87109-1.7109-0.87109-1.7695 0-2.6367 2.0898-2.6367 4.2656v7.9453h-3.4844v-15.488h3.4844"/>
  <path d="m156.2 88.219h-3.8008v-16.504l-6.0312 16.504h-2.6094l-5.8906-16.504v16.504h-3.5664v-21.84h5.5117l5.4531 15.023 5.5703-15.023h5.3633v21.84"/>
  <path d="m163.28 83.898c0 1.1328 0.78125 1.7109 2.2617 1.7109 2.3203 0 4.3516-1.4219 4.3516-3.5977v-0.92578c-3.9766 0.28906-6.6133 0.72266-6.6133 2.8125zm6.6133-6.0898c0-1.8594-1.1641-2.3789-2.9023-2.3789-1.9141 0-3.3359 0.60938-4.1484 2.3477l-2.582-1.6836c1.3945-2.668 3.8281-3.6836 7.1094-3.6836 3.3633 0 6.0039 1.5664 6.0039 5.3398v6.6992c0 0.87109 0.49219 1.1602 1.1289 1.1602 0.23438 0 0.49219-0.027344 0.72656-0.085937h0.058593l-0.49609 2.8438c-0.34766 0.054687-1.1289 0.11328-1.7109 0.11328-1.7695 0-2.668-0.89844-3.043-2.2891-0.92969 1.3906-2.2344 2.2891-4.9922 2.2891-2.668 0-5.1602-1.1602-5.1602-4.3789 0-3.9453 3.4219-5.1641 10.008-5.6289v-0.66406"/>
  <path d="m181.2 72.73-0.058594 2.4961c0.72266-1.3633 2.1172-2.8164 4.8438-2.8164 2.2344 0 5.3086 1.5078 5.3086 5.6289v10.18h-3.4805v-9.3672c0-2.0898-0.8125-3.4219-2.8164-3.4219-2.1758 0-3.7969 1.4492-3.7969 4.6406v8.1484h-3.4805v-15.488h3.4805"/>
  <path d="m197.58 83.898c0 1.1328 0.78125 1.7109 2.2617 1.7109 2.3203 0 4.3516-1.4219 4.3516-3.5977v-0.92578c-3.9727 0.28906-6.6133 0.72266-6.6133 2.8125zm6.6133-6.0898c0-1.8594-1.1602-2.3789-2.9023-2.3789-1.9141 0-3.3359 0.60938-4.1445 2.3477l-2.582-1.6836c1.3906-2.668 3.8281-3.6836 7.1055-3.6836 3.3633 0 6.0039 1.5664 6.0039 5.3398v6.6992c0 0.87109 0.49219 1.1602 1.1328 1.1602 0.23047 0 0.49219-0.027344 0.72266-0.085937h0.058594l-0.49219 2.8438c-0.34766 0.054687-1.1328 0.11328-1.7109 0.11328-1.7695 0-2.668-0.89844-3.0469-2.2891-0.92578 1.3906-2.2344 2.2891-4.9883 2.2891-2.668 0-5.1641-1.1602-5.1641-4.3789 0-3.9453 3.4219-5.1641 10.008-5.6289v-0.66406"/>
  <path d="m214.98 77.953c0 1.6211 0.95703 2.5234 2.8164 2.5234 1.8828 0 2.7812-1.0742 2.7812-2.582 0-1.4492-0.83984-2.7266-2.7266-2.7266-1.9726 0-2.8711 1.2188-2.8711 2.7852zm3.2188 12.992c3.3086 0 4.207-0.60938 4.207-1.5078 0-0.375-0.14453-0.83984-0.51953-0.98438-0.60938-0.23438-1.8867-0.23438-4.0625-0.23438-2.8438 0-3.9453 0.23438-3.9453 1.3359 0 1.0156 0.92968 1.3906 4.3203 1.3906zm7.1953-18.391c0.46484 0 0.89844 0.20312 1.0742 0.40625l-0.66797 2.9609h-0.0586c-0.17188-0.23438-0.46485-0.40625-0.8125-0.40625-0.63672 0-1.3047 0.63672-1.3047 1.3047 0 0.40625 0.0859 0.78516 0.0859 1.1875 0 3.3945-2.4062 5.1641-6.0312 5.1641-1.2188 0-1.3086-0.11328-2.1484-0.11328s-1.7383 0.31641-1.7383 0.98438c0 0.89844 0.89844 1.043 4.7266 1.043 2.6992 0 4.3789 0.05859 5.4531 0.66797 1.1328 0.64062 1.7422 1.7109 1.7422 3.3945 0 3.1914-2.4375 4.6133-7.6875 4.6133-4.7266 0-7.3086-0.98828-7.3086-3.4805 0-1.4531 1.1289-2.1758 2.6953-2.6406-1.7109-0.32031-2.4922-1.2461-2.4922-2.8711 0-1.4219 1.043-2.3789 2.7539-2.8711-1.1602-0.87109-1.8281-2.207-1.8281-3.8906 0-3.3906 2.4961-5.5391 6.0039-5.5391 2.0898 0 3.8867 0.87109 4.8164 2.1172 0.63672-1.4766 1.625-2.0312 2.7266-2.0312"/>
  <path d="m237.89 78.562c-0.17578-2.0625-1.25-3.3086-3.3359-3.3086-2.0312 0-3.25 1.0156-3.625 3.3086zm-3.1055 6.9609c2.0312 0 3.1641-0.87109 3.7734-2.668l2.957 1.0703c-0.75391 2.6133-2.668 4.5547-6.8477 4.5547-4.2031 0-7.2773-2.7266-7.2773-8.1211 0-4.875 2.9844-7.9492 7.1641-7.9492 4.1172 0 7.0195 2.4961 7.0195 8.8203h-10.734c0.20312 2.8398 1.3047 4.293 3.9453 4.293"/>
  <path d="m262.89 72.41c2.2344 0 5.2188 1.5078 5.2188 5.6289v10.18h-3.4805v-9.3672c0-2.0898-0.72266-3.4219-2.7266-3.4219-2.1758 0-3.7109 1.4492-3.7109 4.6406v8.1484h-3.4805v-9.3672c0-2.0898-0.72656-3.4219-2.7266-3.4219-2.1758 0-3.7148 1.4492-3.7148 4.6406v8.1484h-3.4805v-15.488h3.4805l-0.058594 2.4961c0.72656-1.3086 2.0312-2.8164 4.7578-2.8164 1.6836 0 3.5391 0.87109 4.4961 2.9023 1.1914-2 2.8438-2.9023 5.4258-2.9023"/>
  <path d="m281.62 78.562c-0.17578-2.0625-1.2461-3.3086-3.3359-3.3086-2.0312 0-3.25 1.0156-3.625 3.3086zm-3.1055 6.9609c2.0312 0 3.1641-0.87109 3.7734-2.668l2.957 1.0703c-0.75391 2.6133-2.668 4.5547-6.8438 4.5547-4.207 0-7.2812-2.7266-7.2812-8.1211 0-4.875 2.9883-7.9492 7.1641-7.9492 4.1172 0 7.0195 2.4961 7.0195 8.8203h-10.734c0.20312 2.8398 1.3086 4.293 3.9453 4.293"/>
  <path d="m292 72.73-0.054687 2.4961c0.72266-1.3633 2.1172-2.8164 4.8398-2.8164 2.2344 0 5.3125 1.5078 5.3125 5.6289v10.18h-3.4844v-9.3672c0-2.0898-0.80859-3.4219-2.8125-3.4219-2.1758 0-3.8008 1.4492-3.8008 4.6406v8.1484h-3.4805v-15.488h3.4805"/>
  <path d="m310.57 84.391c0 0.75391 0.43359 1.1602 1.2461 1.1602 0.95703 0 1.625-0.23047 2.0312-0.57812h0.0859l-0.20313 3.1602c-0.57812 0.26172-1.3633 0.46484-2.582 0.46484-2.5234 0-4.0586-1.3633-4.0586-4.293v-8.6172h-2.6719v-2.957h2.6719v-2.2031c1.1875-0.8125 2.2031-1.6836 3.3906-3.0195h0.0899v5.2227h3.2461v2.957h-3.2461v8.7031"/>
  <path d="m0 42.688v-2.957h2.4062v-1.9141c0-3.0156 1.625-4.6719 4.3242-4.6719 1.2461 0 2.1445 0.32031 2.6953 0.78516l-0.55078 2.7266h-0.085937c-0.375-0.34766-0.98828-0.52344-1.4805-0.52344-0.80859 0-1.4219 0.37891-1.4219 1.4219v2.1758h2.9609v2.957h-2.9609v12.531h-3.4805v-12.531h-2.4062"/>
  <path d="m13.746 47.242c0 3.1328 1.0156 5.5703 3.918 5.5703 3.1016 0 4-2.2031 4-5.3359 0-2.9883-1.1562-5.3672-3.9141-5.3672-2.7852 0-4.0039 2.0898-4.0039 5.1328zm11.371 0.20312c0 5.2812-2.7852 8.1523-7.3984 8.1523-4.4648 0-7.4258-3.2188-7.4258-8.1211 0-5.1055 3.1328-8.125 7.4258-8.125 4.4414 0 7.3984 3.0469 7.3984 8.0938"/>
  <path d="m31.234 39.73-0.058594 2.6992c0.52344-1.7148 1.5391-2.9297 3.3633-2.9297 1.1641 0 1.9727 0.46094 2.4375 0.95703l-1.2734 3.4219h-0.11719c-0.32031-0.46484-0.75391-0.87109-1.7148-0.87109-1.7695 0-2.6367 2.0898-2.6367 4.2656v7.9453h-3.4805v-15.488h3.4805"/>
 </g>
</svg>
