<?xml version="1.0" encoding="UTF-8"?>
<svg width="284px" height="114px" viewBox="0 0 284 114" version="1.1" xmlns="http://www.w3.org/2000/svg" xmlns:xlink="http://www.w3.org/1999/xlink">
    <!-- Generator: Sketch 57.1 (83088) - https://sketch.com -->
    <title>Object/havlogo</title>
    <desc>Created with Sketch.</desc>
    <defs>
        <polygon id="path-1" points="0.961 0.073 28.779 0.073 28.779 34.94 0.961 34.94"></polygon>
        <polygon id="path-3" points="0.06 0.799 173.869 0.799 173.869 21.104 0.06 21.104"></polygon>
    </defs>
    <g id="Object/havlogo" stroke="none" stroke-width="1" fill="none" fill-rule="evenodd">
        <g id="hav-logotyp-gra-neg-tryck">
            <polyline id="Fill-1" fill="#FFFFFE" points="88.953 0.406 94.169 0.406 94.169 27.711 88.953 27.711 88.953 15.962 75.284 15.962 75.284 27.711 70.068 27.711 70.068 0.406 75.284 0.406 75.284 11.466 88.953 11.466 88.953 0.406"></polyline>
            <path d="M101.214,22.308 C101.214,23.722 102.242,24.447 104.184,24.447 C107.23,24.447 109.895,22.67 109.895,19.951 L109.895,18.791 C104.679,19.153 101.214,19.697 101.214,22.308 Z M109.895,14.693 C109.895,12.372 108.372,11.719 106.087,11.719 C103.575,11.719 101.709,12.481 100.643,14.656 L97.254,12.553 C99.082,9.218 102.28,7.948 106.583,7.948 C110.999,7.948 114.464,9.906 114.464,14.62 L114.464,22.996 C114.464,24.085 115.111,24.447 115.949,24.447 C116.253,24.447 116.596,24.411 116.901,24.339 L116.977,24.339 L116.33,27.892 C115.873,27.965 114.845,28.037 114.083,28.037 C111.761,28.037 110.58,26.913 110.085,25.173 C108.867,26.913 107.154,28.037 103.537,28.037 C100.034,28.037 96.76,26.586 96.76,22.562 C96.76,17.63 101.252,16.107 109.895,15.527 L109.895,14.693 L109.895,14.693 Z" id="Fill-2" fill="#FFFFFE"></path>
            <polyline id="Fill-3" fill="#FFFFFE" points="120.334 8.347 125.055 22.888 129.701 8.347 134.155 8.347 127.606 27.711 122.314 27.711 115.537 8.347 120.334 8.347"></polyline>
            <path d="M151.268,11.937 L147.993,14.294 C146.852,12.517 145.1,11.574 142.853,11.574 C140.302,11.574 139.235,12.3 139.235,13.533 C139.235,15.055 140.645,15.382 143.881,15.781 C147.803,16.288 151.725,17.376 151.725,22.018 C151.725,25.535 149.554,28.073 143.538,28.073 C138.817,28.073 135.657,26.224 134.096,22.996 L137.599,21.038 C138.779,22.96 140.302,24.375 143.462,24.375 C145.633,24.375 147.308,23.794 147.308,22.199 C147.308,20.603 145.938,20.349 142.586,19.805 C138.512,19.153 134.895,18.319 134.895,13.641 C134.895,9.652 138.322,7.948 142.625,7.948 C146.775,7.948 149.479,9.399 151.268,11.937" id="Fill-4" fill="#FFFFFE"></path>
            <path d="M92.988,85.798 C95.92,85.798 99.842,87.682 99.842,92.832 L99.842,105.559 L95.273,105.559 L95.273,93.847 C95.273,91.237 94.321,89.569 91.694,89.569 C88.838,89.569 86.82,91.382 86.82,95.37 L86.82,105.559 L82.251,105.559 L82.251,93.847 C82.251,91.237 81.3,89.569 78.672,89.569 C75.817,89.569 73.799,91.382 73.799,95.37 L73.799,105.559 L69.23,105.559 L69.23,86.196 L73.799,86.196 L73.723,89.315 C74.675,87.682 76.388,85.798 79.967,85.798 C82.175,85.798 84.612,86.885 85.869,89.424 C87.43,86.922 89.6,85.798 92.988,85.798" id="Fill-5" fill="#FFFFFE"></path>
            <path d="M100.614,86.196 L105.487,86.196 L109.98,99.467 L114.206,86.196 L118.661,86.196 L111.389,107.663 C110.855,109.186 109.942,110.673 108.609,111.651 C107.581,112.413 106.058,112.739 104.611,112.739 C103.088,112.739 101.718,112.45 100.804,111.942 L101.984,108.28 L102.06,108.28 C102.479,108.641 103.203,108.86 104.04,108.86 C105.259,108.86 106.325,108.461 106.934,106.938 L107.619,105.305 L100.614,86.196" id="Fill-6" fill="#FFFFFE"></path>
            <path d="M125.013,86.196 L124.937,89.315 C125.888,87.61 127.716,85.798 131.294,85.798 C134.226,85.798 138.263,87.682 138.263,92.832 L138.263,105.559 L133.693,105.559 L133.693,93.847 C133.693,91.237 132.627,89.569 130,89.569 C127.145,89.569 125.013,91.382 125.013,95.37 L125.013,105.559 L120.444,105.559 L120.444,86.196 L125.013,86.196" id="Fill-7" fill="#FFFFFE"></path>
            <path d="M150.199,89.532 C146.887,89.532 145.174,91.454 145.174,95.733 C145.174,99.831 146.658,102.296 150.01,102.296 C153.436,102.296 155.492,100.266 155.492,95.696 C155.492,91.382 153.322,89.532 150.199,89.532 Z M140.644,95.661 C140.644,89.387 144.26,85.798 149.324,85.798 C152.446,85.798 154.236,86.848 155.378,88.481 L155.378,78.073 L159.947,78.073 L159.947,105.559 L155.378,105.559 L155.454,102.803 C154.54,104.29 152.713,106.031 149.324,106.031 C143.803,106.031 140.644,102.079 140.644,95.661 L140.644,95.661 Z" id="Fill-8" fill="#FFFFFE"></path>
            <g id="Group-12" transform="translate(162.000000, 78.000000)">
                <mask id="mask-2" fill="white">
                    <use xlink:href="#path-1"></use>
                </mask>
                <g id="Clip-10"></g>
                <path d="M1.113,27.559 L5.682,27.559 L5.682,8.196 L1.113,8.196 L1.113,27.559 Z M0.961,4.932 L5.834,4.932 L5.834,0.073 L0.961,0.073 L0.961,4.932 Z" id="Fill-9" fill="#FFFFFE" mask="url(#mask-2)"></path>
                <path d="M13.236,14.801 C13.236,16.878 14.531,18.026 17.043,18.026 C19.595,18.026 20.812,16.655 20.812,14.727 C20.812,12.875 19.673,11.245 17.121,11.245 C14.453,11.245 13.236,12.8 13.236,14.801 Z M17.593,31.405 C22.066,31.405 23.284,30.627 23.284,29.477 C23.284,28.997 23.088,28.403 22.578,28.218 C21.754,27.922 20.027,27.922 17.082,27.922 C13.236,27.922 11.744,28.218 11.744,29.626 C11.744,30.923 13,31.405 17.593,31.405 Z M27.326,7.909 C27.955,7.909 28.543,8.169 28.779,8.427 L27.876,12.208 L27.798,12.208 C27.563,11.911 27.17,11.688 26.699,11.688 C25.836,11.688 24.933,12.505 24.933,13.356 C24.933,13.876 25.051,14.356 25.051,14.876 C25.051,19.212 21.793,21.473 16.887,21.473 C15.238,21.473 15.121,21.325 13.982,21.325 C12.844,21.325 11.627,21.731 11.627,22.585 C11.627,23.733 12.844,23.919 18.024,23.919 C21.675,23.919 23.951,23.993 25.403,24.771 C26.934,25.587 27.758,26.958 27.758,29.107 C27.758,33.184 24.461,35 17.357,35 C10.959,35 7.467,33.74 7.467,30.553 C7.467,28.7 8.997,27.773 11.117,27.18 C8.801,26.772 7.741,25.587 7.741,23.51 C7.741,21.695 9.154,20.471 11.47,19.842 C9.9,18.73 8.997,17.025 8.997,14.876 C8.997,10.54 12.373,7.798 17.121,7.798 C19.947,7.798 22.381,8.909 23.638,10.503 C24.501,8.613 25.836,7.909 27.326,7.909 L27.326,7.909 Z" id="Fill-11" fill="#FFFFFE" mask="url(#mask-2)"></path>
            </g>
            <path d="M196.547,78.073 L196.547,89.206 C197.537,87.538 199.251,85.798 202.83,85.798 C205.762,85.798 209.797,87.682 209.797,92.832 L209.797,105.559 L205.229,105.559 L205.229,93.847 C205.229,91.237 204.162,89.569 201.535,89.569 C198.68,89.569 196.547,91.382 196.547,95.37 L196.547,105.559 L191.979,105.559 L191.979,78.073 L196.547,78.073" id="Fill-13" fill="#FFFFFE"></path>
            <path d="M225.893,93.485 C225.664,90.911 224.256,89.35 221.514,89.35 C218.849,89.35 217.25,90.62 216.754,93.485 L225.893,93.485 Z M221.818,102.187 C224.484,102.187 225.969,101.099 226.768,98.851 L230.652,100.193 C229.662,103.457 227.148,105.885 221.666,105.885 C216.146,105.885 212.109,102.477 212.109,95.733 C212.109,89.641 216.031,85.798 221.514,85.798 C226.92,85.798 230.729,88.916 230.729,96.821 L216.641,96.821 C216.906,100.374 218.354,102.187 221.818,102.187 L221.818,102.187 Z" id="Fill-14" fill="#FFFFFE"></path>
            <path d="M239.354,100.773 C239.354,101.716 239.924,102.223 240.99,102.223 C242.246,102.223 243.122,101.933 243.655,101.499 L243.77,101.499 L243.503,105.451 C242.741,105.778 241.713,106.031 240.114,106.031 C236.802,106.031 234.783,104.327 234.783,100.665 L234.783,89.895 L231.281,89.895 L231.281,86.196 L234.783,86.196 L234.783,83.44 C236.346,82.425 237.678,81.337 239.238,79.669 L239.354,79.669 L239.354,86.196 L243.617,86.196 L243.617,89.895 L239.354,89.895 L239.354,100.773" id="Fill-15" fill="#FFFFFE"></path>
            <path d="M258.355,93.485 C258.128,90.911 256.719,89.35 253.978,89.35 C251.313,89.35 249.713,90.62 249.219,93.485 L258.355,93.485 Z M254.282,102.187 C256.947,102.187 258.432,101.099 259.232,98.851 L263.115,100.193 C262.125,103.457 259.612,105.885 254.13,105.885 C248.609,105.885 244.573,102.477 244.573,95.733 C244.573,89.641 248.494,85.798 253.978,85.798 C259.385,85.798 263.191,88.916 263.191,96.821 L249.104,96.821 C249.371,100.374 250.817,102.187 254.282,102.187 L254.282,102.187 Z" id="Fill-16" fill="#FFFFFE"></path>
            <path d="M270.215,86.196 L270.139,89.315 C271.091,87.61 272.918,85.798 276.497,85.798 C279.429,85.798 283.465,87.682 283.465,92.832 L283.465,105.559 L278.896,105.559 L278.896,93.847 C278.896,91.237 277.83,89.569 275.202,89.569 C272.348,89.569 270.215,91.382 270.215,95.37 L270.215,105.559 L265.646,105.559 L265.646,86.196 L270.215,86.196" id="Fill-17" fill="#FFFFFE"></path>
            <polyline id="Fill-18" fill="#FFFFFE" points="82.861 66.633 77.759 66.633 67.289 39.329 73.038 39.329 80.348 59.344 87.239 39.329 92.608 39.329 82.861 66.633"></polyline>
            <path d="M94.289,61.231 C94.289,62.644 95.317,63.37 97.259,63.37 C100.305,63.37 102.97,61.592 102.97,58.874 L102.97,57.714 C97.754,58.076 94.289,58.62 94.289,61.231 Z M102.97,53.615 C102.97,51.295 101.447,50.642 99.163,50.642 C96.65,50.642 94.784,51.404 93.718,53.579 L90.33,51.476 C92.157,48.14 95.355,46.871 99.658,46.871 C104.074,46.871 107.539,48.829 107.539,53.543 L107.539,61.92 C107.539,63.008 108.186,63.37 109.024,63.37 C109.329,63.37 109.671,63.334 109.976,63.262 L110.052,63.262 L109.405,66.815 C108.948,66.887 107.919,66.96 107.158,66.96 C104.836,66.96 103.655,65.836 103.16,64.094 C101.942,65.836 100.229,66.96 96.612,66.96 C93.109,66.96 89.835,65.508 89.835,61.484 C89.835,56.552 94.327,55.03 102.97,54.449 L102.97,53.615 L102.97,53.615 Z" id="Fill-19" fill="#FFFFFE"></path>
            <path d="M117.223,61.846 C117.223,62.79 117.794,63.298 118.86,63.298 C120.117,63.298 120.993,63.008 121.526,62.572 L121.64,62.572 L121.374,66.524 C120.612,66.851 119.584,67.104 117.985,67.104 C114.672,67.104 112.654,65.401 112.654,61.738 L112.654,50.968 L109.152,50.968 L109.152,47.27 L112.654,47.27 L112.654,44.514 C114.215,43.499 115.548,42.411 117.109,40.743 L117.223,40.743 L117.223,47.27 L120.94,47.27 L120.94,50.968 L117.223,50.968 L117.223,61.846" id="Fill-20" fill="#FFFFFE"></path>
            <path d="M129.646,61.846 C129.646,62.79 130.217,63.298 131.283,63.298 C132.54,63.298 133.415,63.008 133.948,62.572 L134.063,62.572 L133.796,66.524 C133.035,66.851 132.006,67.104 130.407,67.104 C127.095,67.104 125.077,65.401 125.077,61.738 L125.077,50.968 L122.122,50.968 L122.122,47.27 L125.077,47.27 L125.077,44.514 C126.638,43.499 127.971,42.411 129.532,40.743 L129.646,40.743 L129.646,47.27 L133.91,47.27 L133.91,50.968 L129.646,50.968 L129.646,61.846" id="Fill-21" fill="#FFFFFE"></path>
            <path d="M148.761,54.558 C148.532,51.984 147.123,50.425 144.382,50.425 C141.717,50.425 140.118,51.694 139.622,54.558 L148.761,54.558 Z M144.687,63.262 C147.352,63.262 148.836,62.173 149.637,59.925 L153.52,61.266 C152.529,64.53 150.018,66.96 144.534,66.96 C139.011,66.96 134.976,63.551 134.976,56.806 C134.976,50.715 138.897,46.871 144.382,46.871 C149.789,46.871 153.596,49.989 153.596,57.895 L139.508,57.895 C139.774,61.448 141.222,63.262 144.687,63.262 L144.687,63.262 Z" id="Fill-22" fill="#FFFFFE"></path>
            <g id="Group-26" transform="translate(0.000000, 46.000000)">
                <mask id="mask-4" fill="white">
                    <use xlink:href="#path-3"></use>
                </mask>
                <g id="Clip-24"></g>
                <path d="M160.619,1.27 L160.543,4.388 C161.495,2.684 163.322,0.871 166.901,0.871 C169.833,0.871 173.869,2.757 173.869,7.905 L173.869,20.633 L169.3,20.633 L169.3,8.921 C169.3,6.31 168.234,4.642 165.607,4.642 C162.752,4.642 160.619,6.455 160.619,10.444 L160.619,20.633 L156.051,20.633 L156.051,1.27 L160.619,1.27" id="Fill-23" fill="#FFFFFE" mask="url(#mask-4)"></path>
                <path d="M4.531,10.661 C4.531,14.578 5.863,17.624 9.671,17.624 C13.745,17.624 14.925,14.868 14.925,10.951 C14.925,7.216 13.402,4.243 9.785,4.243 C6.13,4.243 4.531,6.854 4.531,10.661 Z M19.456,10.915 C19.456,17.515 15.801,21.104 9.747,21.104 C3.884,21.104 0,17.08 0,10.951 C0,4.57 4.112,0.799 9.747,0.799 C15.572,0.799 19.456,4.606 19.456,10.915 L19.456,10.915 Z" id="Fill-25" fill="#FFFFFF" mask="url(#mask-4)"></path>
            </g>
            <path d="M30.975,50.497 C27.815,50.497 25.797,52.492 25.797,56.589 C25.797,60.723 27.435,63.298 30.975,63.298 C33.603,63.298 35.011,62.065 35.887,59.78 L39.618,61.992 C38.133,65.038 35.62,66.96 30.785,66.96 C25.188,66.96 21.19,63.044 21.19,56.806 C21.19,50.823 25.226,46.871 31.089,46.871 C35.239,46.871 38.171,48.684 39.352,52.165 L35.506,54.05 C34.669,51.694 33.374,50.497 30.975,50.497" id="Fill-27" fill="#FFFFFF"></path>
            <path d="M46.026,39.147 L46.026,50.279 C47.017,48.612 48.73,46.871 52.309,46.871 C55.241,46.871 59.276,48.757 59.276,53.905 L59.276,66.633 L54.707,66.633 L54.707,54.921 C54.707,52.31 53.641,50.642 51.014,50.642 C48.159,50.642 46.026,52.455 46.026,56.444 L46.026,66.633 L41.457,66.633 L41.457,39.147 L46.026,39.147" id="Fill-28" fill="#FFFFFF"></path>
        </g>
    </g>
</svg>