<svg xmlns="http://www.w3.org/2000/svg" xmlns:xlink="http://www.w3.org/1999/xlink" viewBox="0 0 763.54 763.54"><defs><style>.cls-1{isolation:isolate;}.cls-2{fill:#a2cbf4;}.cls-3{fill:url(#Namnlös_övertoning_3);}.cls-4{fill:#e7e9eb;}.cls-5{opacity:0.18;mix-blend-mode:multiply;fill:url(#Namnlös_övertoning_40);}.cls-6{fill:url(#Namnlös_övertoning_35);}.cls-7{fill:#131415;}.cls-8{fill:url(#Namnlös_övertoning_31);}.cls-9{fill:url(#Namnlös_övertoning_33);}.cls-10{fill:url(#Namnlös_övertoning_34);}.cls-11{fill:#181517;}.cls-12{fill:url(#Namnlös_övertoning_7);}.cls-13{fill:url(#Namnlös_övertoning_11);}.cls-14{fill:url(#Namnlös_övertoning_8);}.cls-15{fill:url(#Namnlös_övertoning_26);}.cls-16{fill:url(#Namnlös_övertoning_7-2);}.cls-17{fill:url(#Namnlös_övertoning_21);}.cls-18{fill:url(#Namnlös_övertoning_21-2);}.cls-19{fill:#6e6158;}.cls-20{fill:#241518;}.cls-21{fill:#593924;}.cls-22{fill:#110e0e;}.cls-23{fill:#2b2c35;}.cls-24{fill:#d67777;}.cls-25{fill:none;stroke:#000;stroke-miterlimit:10;}</style><linearGradient id="Namnlös_övertoning_3" x1="381.77" y1="765.12" x2="381.77" y2="366.75" gradientUnits="userSpaceOnUse"><stop offset="0" stop-color="#26a0da"/><stop offset="1" stop-color="#006fb4"/></linearGradient><radialGradient id="Namnlös_övertoning_40" cx="347.44" cy="480.68" r="140.97" gradientTransform="translate(0 366.08) scale(1 0.24)" gradientUnits="userSpaceOnUse"><stop offset="0" stop-color="#757f83"/><stop offset="1" stop-color="#80878f"/></radialGradient><linearGradient id="Namnlös_övertoning_35" x1="291.85" y1="448.9" x2="485.65" y2="448.9" gradientUnits="userSpaceOnUse"><stop offset="0" stop-color="#9b9ead"/><stop offset="1" stop-color="#e7e9eb"/></linearGradient><linearGradient id="Namnlös_övertoning_31" x1="307.23" y1="450.92" x2="484.39" y2="404.25" gradientUnits="userSpaceOnUse"><stop offset="0" stop-color="#a7a9b1"/><stop offset="1" stop-color="#e7e9eb"/></linearGradient><linearGradient id="Namnlös_övertoning_33" x1="306.36" y1="426.35" x2="423.92" y2="426.35" gradientUnits="userSpaceOnUse"><stop offset="0" stop-color="#b3b4bc"/><stop offset="1" stop-color="#e7e9eb"/></linearGradient><linearGradient id="Namnlös_övertoning_34" x1="297.54" y1="432.38" x2="375.81" y2="432.38" gradientUnits="userSpaceOnUse"><stop offset="0" stop-color="#a8a9b1"/><stop offset="1" stop-color="#e7e9eb"/></linearGradient><linearGradient id="Namnlös_övertoning_7" x1="424.79" y1="435.14" x2="449.53" y2="435.14" gradientUnits="userSpaceOnUse"><stop offset="0" stop-color="#3d2d28"/><stop offset="1" stop-color="#685346"/></linearGradient><linearGradient id="Namnlös_övertoning_11" x1="371.96" y1="410.77" x2="474.11" y2="410.77" gradientUnits="userSpaceOnUse"><stop offset="0.1" stop-color="#3b2d27"/><stop offset="1" stop-color="#2f2a2e"/></linearGradient><linearGradient id="Namnlös_övertoning_8" x1="406.37" y1="423.33" x2="469.44" y2="423.33" gradientUnits="userSpaceOnUse"><stop offset="0.55" stop-color="#3d2d28"/><stop offset="1" stop-color="#685346"/></linearGradient><radialGradient id="Namnlös_övertoning_26" cx="424.53" cy="418.81" fx="417.4755388055261" r="44.91" gradientTransform="matrix(0.98, -0.18, 0.06, 0.31, -17.06, 363.14)" gradientUnits="userSpaceOnUse"><stop offset="0" stop-color="#2f2a2e"/><stop offset="0.59" stop-color="#3b2d27"/><stop offset="0.98" stop-color="#5d4639"/></radialGradient><linearGradient id="Namnlös_övertoning_7-2" x1="418.09" y1="412.72" x2="471.68" y2="412.72" xlink:href="#Namnlös_övertoning_7"/><linearGradient id="Namnlös_övertoning_21" x1="422.73" y1="429.43" x2="468.28" y2="397.84" gradientUnits="userSpaceOnUse"><stop offset="0" stop-color="#3b2d27"/><stop offset="0.7" stop-color="#fff"/><stop offset="1" stop-color="#4a3e38"/></linearGradient><linearGradient id="Namnlös_övertoning_21-2" x1="429.62" y1="440.87" x2="470.63" y2="412.43" xlink:href="#Namnlös_övertoning_21"/></defs><title>Alfågel</title><g class="cls-1"><g id="Lager_2" data-name="Lager 2"><g id="Lager_21" data-name="Lager 21"><path class="cls-2" d="M763.54,381.77c0,210.84-170.93,381.77-381.77,381.77S0,592.61,0,381.77c0-3.32,0-6.64.12-9.94C5.4,165.58,174.25,0,381.77,0,589.44,0,758.4,165.83,763.43,372.3Q763.54,377,763.54,381.77Z"/></g><g id="Lager_10" data-name="Lager 10"><path class="cls-3" d="M763.54,381.77c0,210.84-170.93,381.77-381.77,381.77S0,592.61,0,381.77c0-3.32,0-6.64.12-9.94C129,369.6,248,370,377,370c132.37,0,252.08.67,386.45,2.26Q763.54,377,763.54,381.77Z"/></g><g id="white_body" data-name="white body"><path class="cls-4" d="M450.47,381.28s-9.86-3.16-15.26-3.16H413.44l11.35,1.3a133.47,133.47,0,0,1,13.58.37C443.21,380.35,450.47,381.28,450.47,381.28Z"/></g><g id="Lager_20" data-name="Lager 20"><path class="cls-4" d="M696.58,264.46c-2,0-8,7-8,7l-30,33s-26,25-32,30-26,21-33,26-29.29,17.6-30,18c.63-.61,21.14-20.15,31-30,10-10,35-45,35-45l19-30,25-43-11,16-14,23-21,31s-24,31-41,46-26,21-31,25-16,9-31,19-17,10-17,10-2.44.3-4.79.41c-1.91.08-3.76,0-4.21-.41-1-1,12-4,12-4s2-.49,1.76-1.13c-.08-.25-.51-.54-1.54-.82l-.22-.05c-4-1-15-1-15-1l18-2-4.53-1.13-3.47-.87c-4-1-9-1-15-1a220,220,0,0,0-23,1,26.19,26.19,0,0,1-6.56-.31c-.49-.08-1-.18-1.48-.28L378.7,388l-1.3-1.3a7.56,7.56,0,0,1,4.83-4.84c3.91-1.3,13.77-4.28,19.91-4.28s15.44-.19,22.51,1.67c3.62,1,13.48,3.47,22.24,5.69-5.74-2.19-11.62-4.71-17.31-6.46-13-4-35-4-45-4s-34,6-40,8-32,7-37,9-17,9-17,9a181.28,181.28,0,0,0-5-29c-5-16-14-23-19-26s-19-10-26-11-16,1-20,3-14,12-17,16-7,16-8,21a18.65,18.65,0,0,1-5,10c-2,2-20,10-23,12-2.12,1.41-2.78,4.2-3,5.72a2.93,2.93,0,0,0,.6,2.23c.56.68,1.4,1.2,2.3-.06,1.31-1.82,2.59-1.26,5.79-.77,4,.6,4.8,1.38,11.8,1.38s14-2,16-2a15.83,15.83,0,0,1,5,1.54,6,6,0,0,0,2.17.49c9.59.44,18.81,6,18.81,6l-5,5c-2,2-9,6-13,11s-9,16-9,22a52.3,52.3,0,0,0,5,21.43,0,0,0,0,0,0,0c.4.91.84,1.83,1.31,2.77,1.12.4,4.74,6.1,26.24.56,17.3-4.47,48.93-5,64.37-3.91,1.74.13,3.73.31,5.91.54l3.67.4c20.11,2.31,51.39,7.49,56.47,9.18,6,2,57,0,69,0s24,1,33-2c6.35-2.12,15.69-7.22,21-10.75,2.21-1.47,3.72-2.66,4-3.25,1-2,3-5,8-10s4.5-17.5,4.5-17.5c8-1,31-12,31-12l1-1c-2.58,0-9.62,3-11.52,3.79,5.14-2.47,14.52-12.79,14.52-12.79l-3,2,1-3,1-2c1,0,2.88-3.75,3-4l-3,1s2.78-1.95,5.84-4.38a44.78,44.78,0,0,0,7.16-6.62c3-4,14-10,19-14s25-15,29-18,11-8,17-13,31-30,36-35,23-26,23-26l21-24S698.58,264.46,696.58,264.46Z"/><ellipse class="cls-5" cx="347.44" cy="480.68" rx="147.77" ry="23.86"/></g><g id="dark_white_body" data-name="dark white body"><path class="cls-6" d="M485.65,468.7c-5.3,3.53-14.64,8.63-21,10.75-9,3-21,2-33,2s-63,2-69,0c-5.08-1.69-36.36-6.87-56.47-9.18l-.53-.51-12.75-8.5-1.06-13.81,9.2-13.1,54.18-20.89L428.52,430s23.72,5.66,32.22,9.2S476,448,482,456.18C484.8,460,485.6,464.73,485.65,468.7Z"/></g><g id="dark_under_wings" data-name="dark under wings"><path class="cls-7" d="M312.38,451.37l20.54-6,43.55-11.68,26.2-5,21.25,9.91-13.11,1.06-11-.35-11.69,1.77s-7.08-2.83-8.49-1.42-4.25,4.61-4.25,4.61-12.75,2.48-15.23,3.54-3.54-1.06-12,1.77-7.08,5.66-14.87,6-12.39,2.48-15.93,0A25.72,25.72,0,0,1,312.38,451.37Z"/></g><g id="white_wings" data-name="white wings"><path class="cls-8" d="M317.69,415.25s25.85-7.79,36.47-7.79,17,.23,23,1.36,24.09,12.1,24.09,12.1l18.42,11.68,14.51,8.5,11.69,6.37-25.14-10.26-20.54-7.44-32.93-6-66.21,12,16.64-20.54"/></g><g id="white_wings2" data-name="white wings2"><path class="cls-9" d="M317.69,415.25s29.75-5.31,39.66-4.24S380,418.09,380,418.09l15.93,10.26L409,436.5l14.88,2.12s-2.48,3.54-6.38,3.19-14.16-.71-17.7-2.48-12-4.6-17.7-4.6a166.2,166.2,0,0,0-18.77,1.06c-5.67.71-9.91,3.54-21.6,2.48s-35.41-9.21-35.41-9.21l11.33-13.81"/></g><g id="white_wings_3" data-name="white wings 3"><path class="cls-10" d="M313.8,420.21s19.47-2.83,29-1.06,17.35,6.73,21.6,11.68,7.79,12.4,11,13.46S362,445,355.58,445.7a97.61,97.61,0,0,1-22.66-.35c-7.08-1.06-35.38-5.46-35.38-5.46l16.26-19.68"/></g><g id="mörk_hals" data-name="mörk hals"><path class="cls-11" d="M512.29,395.33a10.75,10.75,0,0,1-2.85,1c-5,1.3-14.32,3.91-18.6,6.14S473.16,414,472.61,415s-14.52,6.88-14.52,6.88l-3-24.75a29.78,29.78,0,0,1-7.07-.55c-3-.75-12.09-2.79-15.82-3.72s-18.79-2.61-24.37-2.61-17.11-.19-23.25,1.12S369,395.42,365.26,396s-12.28,1.67-17.12,3.16-15.63,4.47-18.79,6.88a77.24,77.24,0,0,0-13.21,11.91c-5.95,6.7-9.3,10.42-11.53,13.58s-4.66,6.51-6.33,9.31-3.73,3.16-2,4.83,3.91,4.1,3.17,5.77-1.86,1.49-3,2.6-4.46-.55-3,4.1,3.35,6.51,6.52,8.93c1.06.81,9.2,6.52,10.41,7.07-2.18-.23-13.14-.62-14.88-.75-15.44-1.12-46.51-.37-63.81,4.1-21.5,5.54-26.23-3-27.35-3.35-.47-.94-1.09-1.7-1.49-2.61,0,0-1.49-1.85-1.49-1.86-2.11-7.13-1.57-17-1.69-19.2-.18-3.63,7.83,9.71,7.83,9.71s2.23,1.86,8.56,3,10,2.23,16,.75,17.49-4.1,25.67-8.19,22-9.68,25.68-13,8.18-4.84,10.79-10.79,5.58-7.07,6.7-9.68,6.32-5.21,1.11-7.07-11.16.37-11.16.37.37-9.76.19-12.83a10,10,0,0,1,3.34-.84c1.77-.09,3.63.09,4.38-.75a3.15,3.15,0,0,1,3.53-.83c1.77.46,2.7-.19,4.56.93a7.69,7.69,0,0,1,3,2.88c.27.56,6.69-4,8.93-4.56s6.51-3.35,7.81-3,1.3.37,3,2-.93,1.31,3.35,2.24,11.53-3.73,11.53-3.73,12.09-3.53,15.44-4.09,8.75-3.35,13-3.91,13.76-1.86,19.34-1.67,17.12,0,20.28,0,39.82,2.05,39.82,2.05l8.64-.32,16.29-.61,15.44-.38,10.79.56,5.51,1.61,3.42,1L498.65,393s-36.65-.74-38.32.19-3.54,1.86-3.54,1.86l11.91.74,6.88,1.12a21.23,21.23,0,0,1,8.56-1.86c4.62-.16,21.74-.46,26.61-.54l1.3,0S513.18,394.75,512.29,395.33Z"/><path class="cls-11" d="M348.89,387.23s10.41,3,13,1.12a42.13,42.13,0,0,1,10.79-5.58c3.72-1.12,29-3.72,29-3.72l-21.58,4.84-4.46,6.69L359.86,393Z"/><path class="cls-11" d="M694.16,269l-21,24s-18,21-23,26-30,30-36,35-13,10-17,13-24,14-29,18-16,10-19,14a44.78,44.78,0,0,1-7.16,6.62l-5.21,2.87-15.25,8.19-15.26,1.49L500,414.4h-7.82l-10.79-4.47-1.49-5.58,13-5.21a10.89,10.89,0,0,0,9.48,3.22c2.35-.11,4.79-.41,4.79-.41s2,0,17-10,26-15,31-19,14-10,31-25,41-46,41-46l21-31,14-23,11-16-25,43-19,30s-25,35-35,45c-9.84,9.84-30.35,29.38-31,30,.69-.39,23.09-13.07,30-18s27-21,33-26,32-30,32-30l30-33s6-7,8-7S694.16,269,694.16,269Z"/></g><g id="bruna_vingar" data-name="bruna vingar"><path class="cls-12" d="M455.68,427.23s-2.05,6.33-6.52,10a37.52,37.52,0,0,1-10.79,5.77l-13-6.89-.56-3.9Z"/><path class="cls-13" d="M467.4,397.47l-8.75.93-5.21.74-5.95.56-16.19-.56S411,399,405.63,399s-11.72,1.67-16.37,2.79-17.3,7.44-17.3,7.44l5.2-.37,7.63,2.79,9.3,5.21,12.28,7.25L463.12,407s11.53-8.75,11-8.75Z"/><path class="cls-14" d="M460.7,410.49l8.74.56s-1.86,11.72-9.86,16.18-13.21,6.89-18.23,7.26-16,1.67-16,1.67l-19-12.09,30.52-7.25Z"/><path class="cls-15" d="M394.09,416.82s29.59-9.12,36.28-11.35a50.29,50.29,0,0,1,16.93-3.17c6.52-.18,24.38.56,24.38.56s-5,6.89-9.12,8.75-22.14,7.81-30.7,9.11-25.49,3.35-25.49,3.35Z"/><path class="cls-16" d="M471.68,402.86s-6.61,8.49-11.17,9.68c-5,1.3-42.42,10-42.42,10"/><path class="cls-17" d="M471.68,402.86a57.36,57.36,0,0,1-4.83,5.51,30.24,30.24,0,0,1-2.76,2.42,11.52,11.52,0,0,1-3.22,1.83c-4.74,1.23-9.49,2.3-14.23,3.46l-14.26,3.32q-7.12,1.64-14.29,3.18,7.1-1.81,14.2-3.56l14.23-3.43,14.23-3.34a11,11,0,0,0,3.15-1.71,31.11,31.11,0,0,0,2.78-2.35A57.31,57.31,0,0,0,471.68,402.86Z"/><path class="cls-18" d="M469.44,411.05a25.63,25.63,0,0,1-5.35,12.35,20.15,20.15,0,0,1-5.14,4.47A43.42,43.42,0,0,1,452.9,431a60.28,60.28,0,0,1-13.07,3.76,69.22,69.22,0,0,1-13.55,1c2.27,0,4.52-.2,6.77-.44s4.48-.56,6.7-1a64.61,64.61,0,0,0,13-3.77,43.7,43.7,0,0,0,6-3.07,19.66,19.66,0,0,0,5.13-4.31A26.19,26.19,0,0,0,469.44,411.05Z"/></g><g id="Eyearea_light" data-name="Eyearea light"><path class="cls-19" d="M268.7,377.19c-.93-1.12-8.56-5.58-10.42-6.89s-7.07-4.28-10.23-6.14-12.65-3.16-17.86-3.9-9.49,1.11-12.84,2.6-5.77,4.65-7.63,6.33-4.83,2.95-6.69,5.37c-1.48,1.92.57,7.68,1.48,10a11.42,11.42,0,0,0,.9,1.78,48.73,48.73,0,0,0,4,5.68c1.31,1.3,2,.26,6.49.63s6.7,3,10.24,6.33,10.23,10.41,11.53,11.9,7.81,3,11.16,4.65,9.49,5.58,14.33,6.33,9.49-1.3,12.28-2.42,3.72-8,3.72-12.28S269.63,378.3,268.7,377.19Zm-32.47-3.54c-1.67.93-3.72,1.77-4.46,3s-5.58,1.49-7.63.56-4-1.58-4.65-3.72c0,0-.28-4.19.93-4.93a27.48,27.48,0,0,1,5.21-2.33c2-.65,4.56-1.39,7-.19s1.86,1.31,3,1.21,2.79,1.21,2.79,2.33A4.76,4.76,0,0,1,236.23,373.65Z"/></g><g id="eyearea_dark" data-name="eyearea dark"><path class="cls-11" d="M235.68,393.19s3.62-8.51,8.65-12.56,5.58-5.58,9.21-7,6.28-2.37,10.88-1.67,8.23,1.53,11.3,4.32a22.83,22.83,0,0,1,6.7,13.12c.56,5,1.12,6.14-.14,12.84s-3.49,10.46-3.63,11.44,1,2.51.28,3.21-2.51,1-3.35,1.53-1.67,2-2.79,2.52-5.44,1-6.83,1.25A12.33,12.33,0,0,1,257,421c-3.63-2.24-5.45-5.59-8.1-6.84s-6.56-1.68-8.79-2.93-3.49-5.72-2.93-7.68,2.23-4.6,1.4-5.86-3.49-1.95-3.63-3.07A1.2,1.2,0,0,1,235.68,393.19Z"/></g><g id="eye"><path class="cls-20" d="M221,373s2.86-3.76,4.46-4.46,3.21-1.47,5.09-1.19,4.26,1.19,4.4,3.35-2.16,3.28-3.56,3.63a12.68,12.68,0,0,1-5.65.21C224,374.07,221,373,221,373Z"/></g><g id="iris"><path class="cls-21" d="M221.86,372.72s2.5-3.16,3.91-3.74a8.27,8.27,0,0,1,4.45-1c1.65.24,3.72,1,3.85,2.81s-1.89,2.75-3.12,3A11.46,11.46,0,0,1,226,374C224.55,373.6,221.86,372.72,221.86,372.72Z"/><circle class="cls-22" cx="228.93" cy="371.16" r="1.47"/></g><g id="näbb_svart" data-name="näbb svart"><path class="cls-23" d="M218.65,396s-.42,3.28-10,7.81c-.68.32-1.88,1-2.56.71a15.83,15.83,0,0,0-5-1.54c-2,0-9,2-16,2s-7.84-.78-11.8-1.38c-3.2-.49-4.48-1.05-5.79.77-.9,1.26-1.74.74-2.3.06a2.93,2.93,0,0,1-.6-2.23c.21-1.52.87-4.31,3-5.72,3-2,21-10,23-12a16.08,16.08,0,0,0,2.49-3.2s2-.84,4.49,1.6a4.42,4.42,0,0,0,1.68,4.4c2.37,2,7,4.88,8.37,6.14s1.74,2.23,2.72,2.3,7.75-1.05,8.23-.35S218.65,396,218.65,396Z"/></g><g id="näbb_röd" data-name="näbb röd"><path class="cls-24" d="M188,403c.05.1,1.06,1.75.35,1.8-1.1.09-2.23.14-3.35.14-7,0-7.62-1.48-11-3.68a4.71,4.71,0,0,0-3.49-1.46,28.55,28.55,0,0,0,2.79-3.7,26.68,26.68,0,0,1,1.58-2.59,4.36,4.36,0,0,1,1.68-1.48c5.08-2.52,8.8-4.61,11.81-6.47,0,0-1.6,3.56-1.81,4.47a2.47,2.47,0,0,0,1.26,2.93,19.41,19.41,0,0,1,2.23,1.11s-5.23,1.47-4.33,2.8,1.54,1,1.54,2.16-1.61,2.51-1.12,3S187.47,402.12,188,403Z"/></g><g id="munlinje"><path class="cls-25" d="M207.3,396.91s-8.93,2.42-12.55,3.53a95.24,95.24,0,0,1-13.21,2.7,13.61,13.61,0,0,0-3.91.84"/></g><g id="näshål"><path d="M188.3,392.78a.89.89,0,0,0,.71.85,4.39,4.39,0,0,0,2.67-.16A8.57,8.57,0,0,0,195,390c.65-1.39,1.48-2.51.27-2.6s-2.69,1-3.72,1.77-3,1.21-3.16,2.14A8.18,8.18,0,0,0,188.3,392.78Z"/></g></g></g></svg>