<?xml version="1.0" encoding="UTF-8"?>
<svg width="22.6" height="22" viewBox="0 0 22.6 22" xmlns="http://www.w3.org/2000/svg">
 <path d="m4.88 11.02q-2.1793 0-3.475-1.4283-1.2958-1.443-1.2958-3.8432 0-2.621 1.3694-4.1229 1.3694-1.5167 3.6959-1.5167 2.2529 0 3.4898 1.3989 1.2516 1.3989 1.2516 3.9315 0 2.5327-1.3989 4.064-1.3841 1.5167-3.637 1.5167zm0.20615-9.2913q-1.3989 0-2.2087 1.0455-0.80986 1.0307-0.80986 2.8419 0 1.7817 0.79514 2.783 0.79514 0.98656 2.1645 0.98656 1.3841 0 2.1645-1.0307 0.78041-1.0307 0.78041-2.8566 0-1.7817-0.78041-2.7683-0.76569-1.0013-2.1056-1.0013zm13.93-1.2958-13.547 21.263h-2.1056l13.532-21.263zm-1.5608 21.439q-2.1793 0-3.475-1.443-1.2958-1.443-1.2958-3.8284 0-2.621 1.3841-4.1377 1.3841-1.5314 3.6812-1.5314 2.2382 0 3.4898 1.4136 1.2516 1.4136 1.2516 3.961 0 2.5179-1.3989 4.0493-1.3841 1.5167-3.637 1.5167zm0.20615-9.2766q-1.4136 0-2.2234 1.0307-0.79514 1.0307-0.79514 2.8566 0 1.7522 0.79514 2.7535 0.79514 0.98656 2.1645 0.98656 1.3841 0 2.1645-1.0307 0.78041-1.0455 0.78041-2.8566 0-1.7964-0.78041-2.7683-0.76569-0.97184-2.1056-0.97184z"/>
</svg>
