<?xml version="1.0" encoding="UTF-8" standalone="no"?>
<!-- Generator: Adobe Illustrator 25.2.3, SVG Export Plug-In . SVG Version: 6.00 Build 0)  -->

<svg
   version="1.1"
   x="0px"
   y="0px"
   viewBox="0 0 742.78616 154.3762"
   xml:space="preserve"
   id="svg157"
   sodipodi:docname="Sweden-SwAM-white-horizontal-no-borders.svg"
   inkscape:version="1.1.1 (3bf5ae0d25, 2021-09-20)"
   width="742.78619"
   height="154.37621"
   xmlns:inkscape="http://www.inkscape.org/namespaces/inkscape"
   xmlns:sodipodi="http://sodipodi.sourceforge.net/DTD/sodipodi-0.dtd"
   xmlns:xlink="http://www.w3.org/1999/xlink"
   xmlns="http://www.w3.org/2000/svg"
   xmlns:svg="http://www.w3.org/2000/svg"><defs
   id="defs161">
	
	
	
	
</defs><sodipodi:namedview
   id="namedview159"
   pagecolor="#ffffff"
   bordercolor="#666666"
   borderopacity="1.0"
   inkscape:pageshadow="2"
   inkscape:pageopacity="0.0"
   inkscape:pagecheckerboard="true"
   showgrid="false"
   inkscape:zoom="0.96449653"
   inkscape:cx="575.94816"
   inkscape:cy="142.56142"
   inkscape:window-width="2014"
   inkscape:window-height="1001"
   inkscape:window-x="314"
   inkscape:window-y="137"
   inkscape:window-maximized="0"
   inkscape:current-layer="svg157"
   fit-margin-top="0"
   fit-margin-left="0"
   fit-margin-right="0"
   fit-margin-bottom="0" />
<style
   type="text/css"
   id="style2">
	.st0{fill:none;stroke:#FFFFFF;stroke-width:3.2362;stroke-miterlimit:10;}
	.st1{fill:#FFFFFF;}
	.st2{clip-path:url(#SVGID_2_);fill:#FFD600;}
	.st3{clip-path:url(#SVGID_2_);fill:#005694;}
	.st4{clip-path:url(#SVGID_2_);}
	.st5{clip-path:url(#SVGID_4_);fill:#005694;}
	.st6{clip-path:url(#SVGID_6_);fill:#FFFFFF;}
</style>
<g
   id="BKG"
   transform="translate(-215.58742,-196.40767)">
</g>

<g
   id="Logos"
   transform="translate(-215.58742,-196.40767)">
</g>
<g
   id="g89"
   transform="translate(-223.8819,-419.3219)">
		<path
   class="st1"
   d="m 704.38,465.68 -2.64,1.68 c -0.86,-1.63 -2.27,-2.76 -4.74,-2.76 -2.57,0 -3.61,0.69 -3.61,2.11 0,1.7 1.43,1.86 4.51,2.34 4.16,0.67 6.96,1.7 6.96,5.7 0,3.58 -2.91,5.01 -7.26,5.01 -4.44,0 -7.05,-1.79 -7.91,-4.55 l 2.89,-1.29 c 0.86,1.88 2.1,3.03 5.18,3.03 2.5,0 3.82,-0.69 3.82,-2.21 0,-1.79 -1.41,-2.11 -4.88,-2.69 -3.47,-0.57 -6.45,-1.33 -6.45,-5.17 0,-3.01 2.36,-5.03 6.78,-5.03 3.84,0.02 6.15,1.44 7.35,3.83 z"
   id="path9" />
		<polygon
   class="st1"
   points="712.47,479.46 709.63,479.46 706.11,467.2 709,467.2 711.22,475.72 713.7,467.2 716.54,467.2 718.99,475.72 721.47,467.2 724.27,467.2 720.41,479.46 717.56,479.46 715.06,470.34 "
   id="polygon11" />
		<path
   class="st1"
   d="m 733.89,471.81 c -0.14,-1.63 -1,-2.62 -2.66,-2.62 -1.62,0 -2.59,0.8 -2.89,2.62 z m -2.48,5.52 c 1.62,0 2.52,-0.69 3.01,-2.11 l 2.36,0.85 c -0.6,2.07 -2.13,3.61 -5.46,3.61 -3.35,0 -5.81,-2.16 -5.81,-6.43 0,-3.86 2.38,-6.29 5.71,-6.29 3.28,0 5.6,1.98 5.6,6.98 h -8.56 c 0.17,2.24 1.04,3.39 3.15,3.39 z"
   id="path13" />
		<path
   class="st1"
   d="m 744.43,469.31 c -2.01,0 -3.05,1.22 -3.05,3.93 0,2.6 0.9,4.16 2.94,4.16 2.08,0 3.33,-1.29 3.33,-4.18 -0.01,-2.74 -1.33,-3.91 -3.22,-3.91 z m -5.81,3.88 c 0,-3.97 2.2,-6.25 5.27,-6.25 1.9,0 2.98,0.67 3.68,1.7 v -6.59 h 2.77 v 17.41 h -2.77 l 0.05,-1.75 c -0.55,0.94 -1.66,2.04 -3.72,2.04 -3.36,0.01 -5.28,-2.49 -5.28,-6.56 z"
   id="path15" />
		<path
   class="st1"
   d="m 756.54,467.2 v 12.27 h -2.78 V 467.2 Z m 0.1,-5.15 v 3.08 h -2.96 v -3.08 z"
   id="path17" />
		<path
   class="st1"
   d="m 768.8,469.47 -1.99,1.49 c -0.69,-1.13 -1.76,-1.72 -3.12,-1.72 -1.55,0 -2.2,0.46 -2.2,1.24 0,0.97 0.86,1.17 2.82,1.42 2.38,0.32 4.77,1.01 4.77,3.95 0,2.23 -1.32,3.84 -4.97,3.84 -2.87,0 -4.79,-1.17 -5.74,-3.22 l 2.13,-1.24 c 0.72,1.22 1.64,2.11 3.56,2.11 1.32,0 2.34,-0.37 2.34,-1.38 0,-1.01 -0.83,-1.17 -2.87,-1.52 -2.48,-0.41 -4.67,-0.94 -4.67,-3.91 0,-2.53 2.08,-3.61 4.7,-3.61 2.51,0.02 4.15,0.94 5.24,2.55 z"
   id="path19" />
		<path
   class="st1"
   d="m 773.75,462.05 v 7.05 c 0.6,-1.06 1.64,-2.16 3.82,-2.16 1.78,0 4.23,1.19 4.23,4.46 v 8.06 h -2.78 v -7.42 c 0,-1.65 -0.65,-2.71 -2.24,-2.71 -1.74,0 -3.03,1.15 -3.03,3.68 v 6.46 h -2.78 v -17.41 h 2.78 z"
   id="path21" />
		<path
   class="st1"
   d="m 795.53,465.89 -2.34,6.87 h 4.6 z m -4.6,13.57 h -3.01 l 6.04,-17.3 h 3.42 l 5.83,17.3 H 800 l -1.32,-4.04 h -6.38 z"
   id="path23" />
		<path
   class="st1"
   d="m 807.9,471.33 c 0,1.29 0.76,2 2.24,2 1.5,0 2.22,-0.85 2.22,-2.04 0,-1.15 -0.67,-2.16 -2.17,-2.16 -1.57,0 -2.29,0.96 -2.29,2.2 z m 2.57,10.29 c 2.64,0 3.35,-0.48 3.35,-1.19 0,-0.3 -0.12,-0.67 -0.42,-0.78 -0.49,-0.18 -1.5,-0.18 -3.24,-0.18 -2.27,0 -3.14,0.18 -3.14,1.06 0,0.79 0.74,1.09 3.45,1.09 z m 5.73,-14.56 c 0.37,0 0.72,0.16 0.86,0.32 l -0.53,2.34 h -0.05 c -0.14,-0.18 -0.37,-0.32 -0.65,-0.32 -0.51,0 -1.04,0.51 -1.04,1.03 0,0.32 0.07,0.62 0.07,0.94 0,2.69 -1.92,4.09 -4.81,4.09 -0.97,0 -1.04,-0.09 -1.71,-0.09 -0.67,0 -1.39,0.25 -1.39,0.78 0,0.71 0.72,0.83 3.77,0.83 2.15,0 3.49,0.05 4.35,0.53 0.9,0.51 1.39,1.36 1.39,2.69 0,2.53 -1.94,3.65 -6.13,3.65 -3.77,0 -5.83,-0.78 -5.83,-2.76 0,-1.15 0.9,-1.72 2.15,-2.09 -1.36,-0.25 -1.99,-0.99 -1.99,-2.27 0,-1.13 0.83,-1.88 2.2,-2.27 -0.92,-0.69 -1.46,-1.75 -1.46,-3.08 0,-2.69 1.99,-4.39 4.79,-4.39 1.67,0 3.1,0.69 3.84,1.68 0.51,-1.18 1.29,-1.61 2.17,-1.61 z"
   id="path25" />
		<path
   class="st1"
   d="m 825.68,471.81 c -0.14,-1.63 -0.99,-2.62 -2.66,-2.62 -1.62,0 -2.59,0.8 -2.89,2.62 z m -2.47,5.52 c 1.62,0 2.52,-0.69 3.01,-2.11 l 2.36,0.85 c -0.6,2.07 -2.13,3.61 -5.46,3.61 -3.35,0 -5.8,-2.16 -5.8,-6.43 0,-3.86 2.38,-6.29 5.71,-6.29 3.28,0 5.6,1.98 5.6,6.98 h -8.56 c 0.15,2.24 1.03,3.39 3.14,3.39 z"
   id="path27" />
		<path
   class="st1"
   d="m 833.68,467.2 -0.05,1.98 c 0.58,-1.08 1.69,-2.23 3.86,-2.23 1.78,0 4.23,1.19 4.23,4.46 v 8.06 h -2.78 v -7.42 c 0,-1.65 -0.65,-2.71 -2.24,-2.71 -1.74,0 -3.03,1.15 -3.03,3.68 v 6.46 H 830.9 V 467.2 Z"
   id="path29" />
		<path
   class="st1"
   d="m 849.73,469.24 c -1.92,0 -3.15,1.26 -3.15,3.86 0,2.62 0.99,4.25 3.15,4.25 1.6,0 2.45,-0.78 2.98,-2.23 l 2.27,1.4 c -0.9,1.93 -2.43,3.15 -5.37,3.15 -3.4,0 -5.83,-2.48 -5.83,-6.43 0,-3.79 2.45,-6.29 6.01,-6.29 2.52,0 4.3,1.15 5.02,3.35 l -2.34,1.19 c -0.49,-1.49 -1.28,-2.25 -2.74,-2.25 z"
   id="path31" />
		<path
   class="st1"
   d="m 855.79,467.2 h 2.96 l 2.73,8.41 2.57,-8.41 h 2.71 l -4.42,13.6 c -0.32,0.96 -0.88,1.91 -1.69,2.53 -0.63,0.48 -1.55,0.69 -2.43,0.69 -0.93,0 -1.76,-0.18 -2.31,-0.51 l 0.72,-2.32 h 0.05 c 0.26,0.23 0.69,0.37 1.2,0.37 0.74,0 1.39,-0.25 1.76,-1.22 l 0.42,-1.03 z"
   id="path33" />
		<polygon
   class="st1"
   points="693.95,505.6 691.1,505.6 691.1,488.3 695.5,488.3 699.85,500.2 704.29,488.3 708.57,488.3 708.57,505.6 705.54,505.6 705.54,492.53 700.73,505.6 698.64,505.6 693.95,492.53 "
   id="polygon35" />
		<path
   class="st1"
   d="m 714.37,502.18 c 0,0.9 0.62,1.36 1.8,1.36 1.85,0 3.47,-1.13 3.47,-2.85 v -0.74 c -3.17,0.23 -5.27,0.57 -5.27,2.23 z m 5.27,-4.83 c 0,-1.47 -0.93,-1.88 -2.31,-1.88 -1.53,0 -2.66,0.48 -3.31,1.86 L 711.96,496 c 1.11,-2.11 3.05,-2.92 5.67,-2.92 2.68,0 4.79,1.24 4.79,4.23 v 5.31 c 0,0.69 0.39,0.92 0.9,0.92 0.19,0 0.39,-0.02 0.58,-0.07 h 0.05 l -0.39,2.25 c -0.28,0.05 -0.9,0.09 -1.36,0.09 -1.41,0 -2.13,-0.71 -2.43,-1.81 -0.74,1.1 -1.78,1.81 -3.98,1.81 -2.13,0 -4.12,-0.92 -4.12,-3.47 0,-3.12 2.73,-4.09 7.98,-4.46 v -0.53 z"
   id="path37" />
		<path
   class="st1"
   d="m 728.08,493.33 -0.05,2.14 c 0.42,-1.36 1.23,-2.32 2.68,-2.32 0.93,0 1.57,0.37 1.94,0.76 l -1.02,2.71 h -0.09 c -0.25,-0.37 -0.6,-0.69 -1.36,-0.69 -1.41,0 -2.1,1.65 -2.1,3.38 v 6.29 h -2.78 v -12.27 z"
   id="path39" />
		<path
   class="st1"
   d="m 737.65,493.33 v 12.27 h -2.78 v -12.27 z m 0.09,-5.15 v 3.08 h -2.96 v -3.08 z"
   id="path41" />
		<path
   class="st1"
   d="m 742.92,493.33 -0.05,1.98 c 0.58,-1.08 1.69,-2.23 3.86,-2.23 1.78,0 4.23,1.19 4.23,4.46 v 8.06 h -2.78 v -7.42 c 0,-1.65 -0.65,-2.71 -2.24,-2.71 -1.73,0 -3.03,1.15 -3.03,3.68 v 6.46 h -2.78 v -12.27 h 2.79 z"
   id="path43" />
		<path
   class="st1"
   d="m 761.91,497.95 c -0.14,-1.63 -0.99,-2.62 -2.66,-2.62 -1.62,0 -2.59,0.8 -2.89,2.62 z m -2.47,5.51 c 1.62,0 2.52,-0.69 3.01,-2.11 l 2.36,0.85 c -0.6,2.07 -2.13,3.61 -5.46,3.61 -3.35,0 -5.81,-2.16 -5.81,-6.43 0,-3.86 2.38,-6.29 5.71,-6.29 3.29,0 5.6,1.98 5.6,6.98 h -8.56 c 0.16,2.24 1.04,3.39 3.15,3.39 z"
   id="path45" />
		<path
   class="st1"
   d="m 773.75,502.18 c 0,0.9 0.62,1.36 1.8,1.36 1.85,0 3.47,-1.13 3.47,-2.85 v -0.74 c -3.17,0.23 -5.27,0.57 -5.27,2.23 z m 5.27,-4.83 c 0,-1.47 -0.92,-1.88 -2.31,-1.88 -1.53,0 -2.66,0.48 -3.31,1.86 L 771.34,496 c 1.11,-2.11 3.05,-2.92 5.67,-2.92 2.68,0 4.79,1.24 4.79,4.23 v 5.31 c 0,0.69 0.39,0.92 0.9,0.92 0.18,0 0.39,-0.02 0.58,-0.07 h 0.05 l -0.39,2.25 c -0.28,0.05 -0.9,0.09 -1.37,0.09 -1.41,0 -2.13,-0.71 -2.43,-1.81 -0.74,1.1 -1.78,1.81 -3.98,1.81 -2.13,0 -4.12,-0.92 -4.12,-3.47 0,-3.12 2.73,-4.09 7.98,-4.46 z"
   id="path47" />
		<path
   class="st1"
   d="m 787.76,493.33 -0.05,1.98 c 0.58,-1.08 1.69,-2.23 3.86,-2.23 1.78,0 4.23,1.19 4.23,4.46 v 8.06 h -2.77 v -7.42 c 0,-1.65 -0.65,-2.71 -2.24,-2.71 -1.74,0 -3.03,1.15 -3.03,3.68 v 6.46 h -2.78 v -12.27 h 2.78 z"
   id="path49" />
		<path
   class="st1"
   d="m 803.74,495.44 c -2.01,0 -3.05,1.22 -3.05,3.93 0,2.6 0.9,4.16 2.94,4.16 2.08,0 3.33,-1.29 3.33,-4.18 -0.01,-2.73 -1.32,-3.91 -3.22,-3.91 z m -5.81,3.89 c 0,-3.97 2.2,-6.25 5.27,-6.25 1.9,0 2.98,0.67 3.68,1.7 v -6.59 h 2.77 v 17.41 h -2.77 l 0.05,-1.75 c -0.55,0.94 -1.66,2.04 -3.72,2.04 -3.36,0.01 -5.28,-2.5 -5.28,-6.56 z"
   id="path51" />
		<polygon
   class="st1"
   points="702.85,514.44 706.25,527 709.68,514.44 712.89,514.44 707.9,531.73 704.59,531.73 701.05,518.66 697.53,531.73 694.09,531.73 689.46,514.44 692.86,514.44 696.05,527.02 699.5,514.44 "
   id="polygon53" />
		<path
   class="st1"
   d="m 715.48,528.31 c 0,0.9 0.62,1.36 1.8,1.36 1.85,0 3.47,-1.13 3.47,-2.85 v -0.74 c -3.17,0.23 -5.27,0.58 -5.27,2.23 z m 5.27,-4.82 c 0,-1.47 -0.93,-1.88 -2.31,-1.88 -1.53,0 -2.66,0.48 -3.31,1.86 l -2.06,-1.33 c 1.11,-2.11 3.05,-2.92 5.67,-2.92 2.68,0 4.79,1.24 4.79,4.23 v 5.31 c 0,0.69 0.39,0.92 0.9,0.92 0.19,0 0.39,-0.02 0.58,-0.07 h 0.05 l -0.39,2.25 c -0.28,0.05 -0.9,0.09 -1.36,0.09 -1.41,0 -2.13,-0.71 -2.43,-1.81 -0.74,1.1 -1.78,1.81 -3.98,1.81 -2.13,0 -4.12,-0.92 -4.12,-3.47 0,-3.12 2.73,-4.09 7.98,-4.46 v -0.53 z"
   id="path55" />
		<path
   class="st1"
   d="m 730.53,528.7 c 0,0.6 0.35,0.92 0.99,0.92 0.76,0 1.29,-0.18 1.62,-0.46 h 0.07 l -0.16,2.5 c -0.46,0.21 -1.09,0.37 -2.06,0.37 -2.01,0 -3.24,-1.08 -3.24,-3.4 v -6.82 h -2.13 v -2.34 h 2.13 v -1.75 c 0.95,-0.64 1.76,-1.33 2.71,-2.39 h 0.07 v 4.14 h 2.59 v 2.34 h -2.59 z"
   id="path57" />
		<path
   class="st1"
   d="m 742.49,524.08 c -0.14,-1.63 -0.99,-2.62 -2.66,-2.62 -1.62,0 -2.59,0.8 -2.89,2.62 z m -2.48,5.52 c 1.62,0 2.52,-0.69 3.01,-2.11 l 2.36,0.85 c -0.6,2.07 -2.13,3.61 -5.46,3.61 -3.35,0 -5.8,-2.16 -5.8,-6.43 0,-3.86 2.38,-6.29 5.71,-6.29 3.28,0 5.6,1.98 5.6,6.98 h -8.56 c 0.16,2.24 1.04,3.39 3.14,3.39 z"
   id="path59" />
		<path
   class="st1"
   d="m 750.74,519.47 -0.05,2.14 c 0.42,-1.36 1.23,-2.32 2.68,-2.32 0.92,0 1.57,0.37 1.94,0.76 l -1.02,2.71 h -0.09 c -0.25,-0.37 -0.6,-0.69 -1.36,-0.69 -1.41,0 -2.1,1.65 -2.1,3.38 v 6.29 h -2.78 v -12.27 z"
   id="path61" />
		<polygon
   class="st1"
   points="765.08,531.73 762.23,531.73 762.23,514.44 766.63,514.44 770.97,526.34 775.42,514.44 779.69,514.44 779.69,531.73 776.66,531.73 776.66,518.66 771.85,531.73 769.77,531.73 765.08,518.66 "
   id="polygon63" />
		<path
   class="st1"
   d="m 785.33,528.31 c 0,0.9 0.63,1.36 1.8,1.36 1.85,0 3.47,-1.13 3.47,-2.85 v -0.74 c -3.16,0.23 -5.27,0.58 -5.27,2.23 z m 5.28,-4.82 c 0,-1.47 -0.93,-1.88 -2.31,-1.88 -1.53,0 -2.66,0.48 -3.31,1.86 l -2.06,-1.33 c 1.11,-2.11 3.05,-2.92 5.67,-2.92 2.68,0 4.79,1.24 4.79,4.23 v 5.31 c 0,0.69 0.39,0.92 0.9,0.92 0.18,0 0.39,-0.02 0.58,-0.07 h 0.05 l -0.39,2.25 c -0.28,0.05 -0.9,0.09 -1.36,0.09 -1.41,0 -2.13,-0.71 -2.43,-1.81 -0.74,1.1 -1.78,1.81 -3.98,1.81 -2.13,0 -4.12,-0.92 -4.12,-3.47 0,-3.12 2.73,-4.09 7.98,-4.46 v -0.53 z"
   id="path65" />
		<path
   class="st1"
   d="m 799.62,519.47 -0.05,1.98 c 0.58,-1.08 1.69,-2.23 3.86,-2.23 1.78,0 4.23,1.19 4.23,4.46 v 8.06 h -2.78 v -7.42 c 0,-1.65 -0.65,-2.71 -2.24,-2.71 -1.74,0 -3.03,1.15 -3.03,3.68 v 6.46 h -2.77 v -12.27 h 2.78 z"
   id="path67" />
		<path
   class="st1"
   d="m 812.69,528.31 c 0,0.9 0.62,1.36 1.8,1.36 1.85,0 3.47,-1.13 3.47,-2.85 v -0.74 c -3.17,0.23 -5.27,0.58 -5.27,2.23 z m 5.27,-4.82 c 0,-1.47 -0.93,-1.88 -2.31,-1.88 -1.53,0 -2.66,0.48 -3.31,1.86 l -2.06,-1.33 c 1.11,-2.11 3.05,-2.92 5.67,-2.92 2.68,0 4.79,1.24 4.79,4.23 v 5.31 c 0,0.69 0.39,0.92 0.9,0.92 0.18,0 0.39,-0.02 0.58,-0.07 h 0.05 l -0.39,2.25 c -0.28,0.05 -0.9,0.09 -1.36,0.09 -1.41,0 -2.13,-0.71 -2.43,-1.81 -0.74,1.1 -1.78,1.81 -3.98,1.81 -2.13,0 -4.12,-0.92 -4.12,-3.47 0,-3.12 2.73,-4.09 7.98,-4.46 v -0.53 z"
   id="path69" />
		<path
   class="st1"
   d="m 826.56,523.6 c 0,1.29 0.76,2 2.24,2 1.5,0 2.22,-0.85 2.22,-2.04 0,-1.15 -0.67,-2.16 -2.17,-2.16 -1.57,0 -2.29,0.96 -2.29,2.2 z m 2.57,10.29 c 2.64,0 3.35,-0.48 3.35,-1.19 0,-0.3 -0.11,-0.67 -0.42,-0.78 -0.49,-0.18 -1.5,-0.18 -3.24,-0.18 -2.27,0 -3.14,0.18 -3.14,1.06 0,0.79 0.74,1.09 3.45,1.09 z m 5.73,-14.56 c 0.37,0 0.72,0.16 0.86,0.32 l -0.53,2.34 h -0.05 c -0.14,-0.18 -0.37,-0.32 -0.65,-0.32 -0.51,0 -1.04,0.51 -1.04,1.03 0,0.32 0.07,0.62 0.07,0.94 0,2.69 -1.92,4.09 -4.81,4.09 -0.97,0 -1.04,-0.09 -1.71,-0.09 -0.67,0 -1.39,0.25 -1.39,0.78 0,0.71 0.72,0.83 3.77,0.83 2.15,0 3.49,0.05 4.35,0.53 0.9,0.51 1.39,1.36 1.39,2.69 0,2.53 -1.94,3.65 -6.13,3.65 -3.77,0 -5.83,-0.78 -5.83,-2.76 0,-1.15 0.9,-1.72 2.15,-2.09 -1.36,-0.25 -1.99,-0.99 -1.99,-2.27 0,-1.13 0.83,-1.88 2.2,-2.27 -0.92,-0.69 -1.46,-1.75 -1.46,-3.08 0,-2.69 1.99,-4.39 4.79,-4.39 1.66,0 3.1,0.69 3.84,1.68 0.51,-1.18 1.29,-1.61 2.17,-1.61 z"
   id="path71" />
		<path
   class="st1"
   d="m 844.83,524.08 c -0.14,-1.63 -0.99,-2.62 -2.66,-2.62 -1.62,0 -2.59,0.8 -2.89,2.62 z m -2.48,5.52 c 1.62,0 2.52,-0.69 3.01,-2.11 l 2.36,0.85 c -0.6,2.07 -2.13,3.61 -5.46,3.61 -3.35,0 -5.8,-2.16 -5.8,-6.43 0,-3.86 2.38,-6.29 5.71,-6.29 3.28,0 5.6,1.98 5.6,6.98 h -8.56 c 0.16,2.24 1.04,3.39 3.14,3.39 z"
   id="path73" />
		<path
   class="st1"
   d="m 864.76,519.21 c 1.78,0 4.16,1.19 4.16,4.46 v 8.06 h -2.77 v -7.42 c 0,-1.65 -0.58,-2.71 -2.17,-2.71 -1.74,0 -2.96,1.15 -2.96,3.68 v 6.46 h -2.78 v -7.42 c 0,-1.65 -0.58,-2.71 -2.17,-2.71 -1.73,0 -2.96,1.15 -2.96,3.68 v 6.46 h -2.77 v -12.27 h 2.77 l -0.05,1.98 c 0.58,-1.03 1.62,-2.23 3.79,-2.23 1.34,0 2.82,0.69 3.58,2.3 0.96,-1.6 2.28,-2.32 4.33,-2.32 z"
   id="path75" />
		<path
   class="st1"
   d="m 879.7,524.08 c -0.14,-1.63 -0.99,-2.62 -2.66,-2.62 -1.62,0 -2.59,0.8 -2.89,2.62 z m -2.47,5.52 c 1.62,0 2.52,-0.69 3.01,-2.11 l 2.36,0.85 c -0.6,2.07 -2.13,3.61 -5.46,3.61 -3.35,0 -5.8,-2.16 -5.8,-6.43 0,-3.86 2.38,-6.29 5.71,-6.29 3.28,0 5.6,1.98 5.6,6.98 h -8.56 c 0.15,2.24 1.03,3.39 3.14,3.39 z"
   id="path77" />
		<path
   class="st1"
   d="m 887.98,519.47 -0.05,1.98 c 0.58,-1.08 1.69,-2.23 3.86,-2.23 1.78,0 4.23,1.19 4.23,4.46 v 8.06 h -2.78 v -7.42 c 0,-1.65 -0.65,-2.71 -2.24,-2.71 -1.74,0 -3.03,1.15 -3.03,3.68 v 6.46 h -2.78 v -12.27 h 2.79 z"
   id="path79" />
		<path
   class="st1"
   d="m 902.78,528.7 c 0,0.6 0.35,0.92 1,0.92 0.76,0 1.3,-0.18 1.62,-0.46 h 0.07 l -0.16,2.5 c -0.46,0.21 -1.09,0.37 -2.06,0.37 -2.01,0 -3.24,-1.08 -3.24,-3.4 v -6.82 h -2.13 v -2.34 H 900 v -1.75 c 0.95,-0.64 1.76,-1.33 2.71,-2.39 h 0.07 v 4.14 h 2.59 v 2.34 h -2.59 z"
   id="path81" />
		<path
   class="st1"
   d="m 655.14,495.67 v -2.34 h 1.92 v -1.52 c 0,-2.39 1.3,-3.7 3.45,-3.7 0.99,0 1.71,0.25 2.15,0.62 l -0.44,2.16 h -0.07 c -0.3,-0.28 -0.79,-0.41 -1.18,-0.41 -0.65,0 -1.13,0.3 -1.13,1.13 v 1.72 h 2.36 v 2.34 h -2.36 v 9.92 h -2.78 v -9.92 z"
   id="path83" />
		<path
   class="st1"
   d="m 666.1,499.28 c 0,2.48 0.81,4.41 3.12,4.41 2.47,0 3.19,-1.75 3.19,-4.23 0,-2.37 -0.93,-4.25 -3.12,-4.25 -2.22,0 -3.19,1.66 -3.19,4.07 z m 9.07,0.16 c 0,4.18 -2.22,6.45 -5.9,6.45 -3.56,0 -5.92,-2.55 -5.92,-6.43 0,-4.04 2.5,-6.43 5.92,-6.43 3.54,0 5.9,2.41 5.9,6.41 z"
   id="path85" />
		<path
   class="st1"
   d="m 680.05,493.33 -0.05,2.14 c 0.42,-1.36 1.23,-2.32 2.68,-2.32 0.93,0 1.57,0.37 1.94,0.76 l -1.02,2.71 h -0.09 c -0.25,-0.37 -0.6,-0.69 -1.37,-0.69 -1.41,0 -2.1,1.65 -2.1,3.38 v 6.29 h -2.78 v -12.27 z"
   id="path87" />
	</g><g
   id="g153"
   transform="translate(-223.8819,-419.3219)">
		<g
   id="g151">
			<defs
   id="defs92">
				<rect
   id="SVGID_1_"
   x="225.52"
   y="421.10001"
   width="440"
   height="150.98" />
			</defs>
			<clipPath
   id="SVGID_2_">
				<use
   xlink:href="#SVGID_1_"
   style="overflow:visible"
   id="use94"
   x="0"
   y="0"
   width="100%"
   height="100%" />
			</clipPath>
			<polygon
   class="st2"
   points="263.31,504.1 301.21,504.1 301.21,534.39 316.22,534.39 316.22,504.11 383.64,504.11 383.64,489.12 316.2,489.12 316.2,459.07 301.21,459.07 301.21,489.12 263.31,489.12 263.31,504.06 "
   clip-path="url(#SVGID_2_)"
   id="polygon97" />
			<polygon
   class="st3"
   points="263.31,504.06 263.31,534.39 301.21,534.39 301.21,504.1 263.31,504.1 "
   clip-path="url(#SVGID_2_)"
   id="polygon99" />
			<g
   class="st4"
   clip-path="url(#SVGID_2_)"
   id="g109">
				<defs
   id="defs102">
					<rect
   id="SVGID_3_"
   x="225.52"
   y="421.10001"
   width="440"
   height="150.98" />
				</defs>
				<clipPath
   id="SVGID_4_">
					<use
   xlink:href="#SVGID_3_"
   style="overflow:visible"
   id="use104"
   x="0"
   y="0"
   width="100%"
   height="100%" />
				</clipPath>
				<path
   class="st5"
   d="M 301.21,459.07"
   clip-path="url(#SVGID_4_)"
   id="path107" />
			</g>
			<rect
   x="263.31"
   y="459.07001"
   class="st3"
   width="37.91"
   height="30.049999"
   clip-path="url(#SVGID_2_)"
   id="rect111" />
			<rect
   x="316.22"
   y="504.07999"
   class="st3"
   width="67.419998"
   height="30.309999"
   clip-path="url(#SVGID_2_)"
   id="rect113" />
			<rect
   x="316.20001"
   y="459.07001"
   class="st3"
   width="67.440002"
   height="30.049999"
   clip-path="url(#SVGID_2_)"
   id="rect115" />
			<g
   class="st4"
   clip-path="url(#SVGID_2_)"
   id="g149">
				<defs
   id="defs118">
					<rect
   id="SVGID_5_"
   x="225.52"
   y="421.10001"
   width="440"
   height="150.98" />
				</defs>
				<clipPath
   id="SVGID_6_">
					<use
   xlink:href="#SVGID_5_"
   style="overflow:visible"
   id="use120"
   x="0"
   y="0"
   width="100%"
   height="100%" />
				</clipPath>
				<path
   class="st6"
   d="m 403.36,471.13 c -2.45,-0.99 -4.33,-2.45 -4.33,-5.57 0,-4.07 3.15,-6.49 7.11,-6.49 4.01,0 6.69,2.55 6.75,6.75 l -3.12,0.73 c -0.32,-2.9 -1.66,-4.2 -3.7,-4.2 -1.78,0 -3.5,0.99 -3.5,2.9 0,1.91 1.72,2.61 3.09,3.15 l 3.22,1.27 c 2.83,1.11 4.78,2.64 4.78,5.89 0,4.2 -3.31,6.55 -7.49,6.55 -4.49,0 -7.77,-2.74 -7.8,-7.32 l 3.12,-0.63 c 0.38,2.93 1.82,4.68 4.62,4.68 1.94,0 3.98,-0.83 3.98,-3.05 0,-2.07 -1.75,-2.67 -3.63,-3.4 z"
   clip-path="url(#SVGID_6_)"
   id="path123" />
				<polygon
   class="st6"
   points="420.21,476.66 422.8,467.95 425,467.95 427.57,476.66 430.47,465.78 433.72,465.78 429.71,481.92 426.43,481.92 423.88,473.88 421.36,481.92 418.08,481.92 414.03,465.78 417.31,465.78 "
   clip-path="url(#SVGID_6_)"
   id="polygon125" />
				<path
   class="st6"
   d="m 437.27,474.95 c 0.38,3.34 2.23,3.98 3.73,3.98 1.5,0 2.84,-0.64 3.76,-2.01 l 2.93,0.77 c -0.86,2.7 -3.35,4.42 -6.63,4.42 -3.73,0 -7.3,-2.2 -7.3,-8.21 0,-6.11 3.67,-8.31 7.2,-8.31 3.54,0 7.17,2.2 7.17,8.27 v 1.08 h -10.86 z m 7.3,-2.71 c -0.48,-2.9 -2.16,-3.47 -3.5,-3.47 -1.56,0 -3.19,0.83 -3.76,3.47 z"
   clip-path="url(#SVGID_6_)"
   id="path127" />
				<path
   class="st6"
   d="m 460.94,481.91 -0.13,-1.46 c -1.47,1.27 -2.68,1.65 -4.01,1.65 -3.22,0 -6.98,-2.2 -6.98,-8.27 0,-6.05 3.76,-8.24 6.88,-8.24 1.47,0 2.64,0.48 4.01,1.62 v -7.95 h 3.38 v 22.66 h -3.15 z m -0.22,-9.16 c -0.41,-2.8 -2.04,-3.98 -3.85,-3.98 -1.56,0 -3.6,0.86 -3.6,5.09 0,4.17 2.01,5.06 3.67,5.06 1.53,0 3.38,-0.76 3.79,-3.34 v -2.83 z"
   clip-path="url(#SVGID_6_)"
   id="path129" />
				<path
   class="st6"
   d="m 469.74,474.95 c 0.38,3.34 2.23,3.98 3.73,3.98 1.5,0 2.83,-0.64 3.76,-2.01 l 2.93,0.77 c -0.86,2.7 -3.34,4.42 -6.63,4.42 -3.72,0 -7.29,-2.2 -7.29,-8.21 0,-6.11 3.66,-8.31 7.2,-8.31 3.53,0 7.17,2.2 7.17,8.27 v 1.08 h -10.87 z m 7.29,-2.71 c -0.48,-2.9 -2.16,-3.47 -3.5,-3.47 -1.56,0 -3.19,0.83 -3.76,3.47 z"
   clip-path="url(#SVGID_6_)"
   id="path131" />
				<path
   class="st6"
   d="m 491.95,481.92 v -9.32 c 0,-3.18 -1.59,-3.82 -2.74,-3.82 -1.24,0 -2.77,0.73 -3.16,3.06 v 10.09 h -3.38 V 465.8 h 3.12 l 0.09,1.34 c 1.31,-1.08 2.45,-1.53 3.73,-1.53 2.55,0 5.7,1.75 5.7,6.72 v 9.61 h -3.36 z"
   clip-path="url(#SVGID_6_)"
   id="path133" />
				<path
   class="st6"
   d="m 405.76,516.24 c -4,-1.61 -7.06,-3.99 -7.06,-9.07 0,-6.64 5.14,-10.58 11.58,-10.58 6.54,0 10.9,4.15 11,10.99 l -5.09,1.19 c -0.52,-4.72 -2.7,-6.84 -6.02,-6.84 -2.91,0 -5.71,1.61 -5.71,4.72 0,3.11 2.8,4.25 5.03,5.13 l 5.24,2.07 c 4.62,1.81 7.79,4.3 7.79,9.59 0,6.84 -5.4,10.68 -12.2,10.68 -7.32,0 -12.67,-4.46 -12.72,-11.92 l 5.09,-1.04 c 0.63,4.77 2.96,7.62 7.53,7.62 3.16,0 6.49,-1.35 6.49,-4.97 0,-3.37 -2.85,-4.36 -5.92,-5.55 z"
   clip-path="url(#SVGID_6_)"
   id="path135" />
				<path
   class="st6"
   d="m 452.97,522.47 c 0.63,5.44 3.63,6.48 6.07,6.48 2.44,0 4.62,-1.04 6.12,-3.27 l 4.77,1.25 c -1.4,4.41 -5.45,7.21 -10.79,7.21 -6.07,0 -11.88,-3.58 -11.88,-13.37 0,-9.95 5.97,-13.53 11.73,-13.53 5.76,0 11.68,3.58 11.68,13.48 v 1.76 h -17.7 z m 11.88,-4.41 c -0.78,-4.72 -3.53,-5.65 -5.71,-5.65 -2.54,0 -5.19,1.35 -6.12,5.65 z"
   clip-path="url(#SVGID_6_)"
   id="path137" />
				<path
   class="st6"
   d="m 490.35,533.82 v -5.03 h 5.29 v -16.23 h -5.29 v -5.03 h 10.69 v 21.25 h 5.3 v 5.03 h -15.99 z m 7.94,-29.65 c -2.02,0 -3.63,-1.71 -3.63,-3.84 0,-2.18 1.61,-3.89 3.63,-3.89 2.08,0 3.74,1.71 3.74,3.89 0,2.13 -1.66,3.84 -3.74,3.84"
   clip-path="url(#SVGID_6_)"
   id="path139" />
				<path
   class="st6"
   d="m 524.95,531.54 c -2.44,2.12 -4.47,2.59 -6.38,2.59 -5.24,0 -11.37,-3.58 -11.37,-13.48 0,-9.85 6.13,-13.43 11.31,-13.43 2.34,0 4.26,0.72 6.6,2.75 l 0.15,-2.44 h 5.19 v 26.28 c 0,6.27 -4.46,10.94 -11.47,10.94 -5.4,0 -9.39,-2.7 -10.69,-7.21 l 4.77,-1.24 c 1.5,2.23 3.69,3.27 6.13,3.27 3.69,0 5.76,-2.28 5.76,-5.76 z m 0,-12.65 c -0.68,-4.56 -3.32,-6.48 -6.28,-6.48 -2.54,0 -5.87,1.45 -5.87,8.29 0,6.79 3.27,8.24 5.97,8.24 2.49,0 5.5,-1.24 6.18,-5.44 z"
   clip-path="url(#SVGID_6_)"
   id="path141" />
				<path
   class="st6"
   d="m 539.53,522.47 c 0.63,5.44 3.64,6.48 6.07,6.48 2.44,0 4.62,-1.04 6.12,-3.27 l 4.78,1.25 c -1.4,4.41 -5.45,7.21 -10.79,7.21 -6.07,0 -11.89,-3.58 -11.89,-13.37 0,-9.95 5.97,-13.53 11.73,-13.53 5.76,0 11.68,3.58 11.68,13.48 v 1.76 h -17.7 z m 11.89,-4.41 c -0.78,-4.72 -3.53,-5.65 -5.71,-5.65 -2.54,0 -5.19,1.35 -6.13,5.65 z"
   clip-path="url(#SVGID_6_)"
   id="path143" />
				<path
   class="st6"
   d="m 488.08,507.59 c -0.98,-0.26 -1.97,-0.36 -2.54,-0.36 -2.08,0 -4.31,1.35 -6.28,3.31 l -0.21,-3 h -5.14 v 26.28 h 5.5 v -15.19 c 0.73,-4.2 3.27,-5.6 5.6,-5.6 0.78,0 1.71,0.16 3.06,0.42 v -5.86 z"
   clip-path="url(#SVGID_6_)"
   id="path145" />
				<polygon
   class="st6"
   points="437.89,533.82 432.5,533.82 423.15,507.54 428.85,507.54 435.19,526.27 441.54,507.54 447.24,507.54 "
   clip-path="url(#SVGID_6_)"
   id="polygon147" />
			</g>
		</g>
	</g></svg>
