<?xml version="1.0" encoding="UTF-8"?>
<svg width="290" height="60" version="1.1" viewBox="0 0 290 60" xml:space="preserve" xmlns="http://www.w3.org/2000/svg"><path class="st0" d="m36.524 27.173v-11.673h-5.817v11.673h-14.706v5.817h14.706v11.77h5.8257v-11.765h26.161v-5.8214z" fill="#ffd600"/><g fill="#005694"><path class="st1" d="m16 32.99v-0.0131 11.783h14.706v-11.77z"/><path class="st1" d="m30.706 15.5"/><path class="st1" d="m16 15.5h14.706v11.673h-14.706z"/><path class="st1" d="m36.532 32.986h26.161v11.774h-26.161z"/><path class="st1" d="m36.524 15.5h26.17v11.673h-26.17z"/></g><g fill="#fff"><path d="m70.342 20.185c-0.9527-0.3846-1.6826-0.9527-1.6826-2.1634 0-1.582 1.2237-2.5217 2.7577-2.5217 1.5559 0 2.5961 0.9877 2.6223 2.6223l-1.2106 0.284c-0.1224-1.1232-0.6425-1.6301-1.4335-1.6301-0.6905 0-1.3592 0.3846-1.3592 1.1232s0.6687 1.0139 1.1975 1.2237l1.2499 0.4938c1.1014 0.4327 1.8531 1.0271 1.8531 2.2858 0 1.6301-1.2849 2.5479-2.9064 2.5479-1.7438 0-3.0155-1.062-3.0287-2.8451l1.2107-0.2448c0.1485 1.1364 0.7036 1.8181 1.7918 1.8181 0.7561 0 1.5472-0.319 1.5472-1.1843 0-0.8042-0.6818-1.0402-1.4073-1.3243z"/><path d="m79.292 24.376-0.9877-3.1248-0.979 3.1248h-1.2717l-1.569-6.2671h1.2718l1.1232 4.2261 1.0008-3.387h0.8522l1.0008 3.387 1.1232-4.2261h1.2587l-1.5558 6.2671z"/><path d="m83.501 21.667c0.1486 1.298 0.8654 1.5471 1.4467 1.5471 0.5812 0 1.1013-0.2491 1.4597-0.7779l1.1363 0.2972c-0.3322 1.0489-1.298 1.7175-2.5698 1.7175-1.4466 0-2.8321-0.8522-2.8321-3.1904 0-2.3731 1.4204-3.2253 2.7927-3.2253 1.3724 0 2.7796 0.8522 2.7796 3.2122v0.4196zm2.8321-1.0489c-0.1836-1.1232-0.8391-1.3461-1.3592-1.3461-0.6031 0-1.2369 0.3234-1.4597 1.3461z"/><path id="x" d="m92.683 24.376-0.0481-0.5681c-0.5681 0.4938-1.0401 0.6424-1.5558 0.6424-1.25 0-2.7097-0.8522-2.7097-3.2122 0-2.3469 1.4597-3.2035 2.6703-3.2035 0.5682 0 1.0271 0.1879 1.5559 0.6293v-3.0899h1.3111v8.802zm-0.083-3.5619c-0.1617-1.0882-0.7911-1.5471-1.4947-1.5471-0.6031 0-1.3986 0.3365-1.3986 1.9798 0 1.6214 0.778 1.9667 1.4204 1.9667 0.5944 0 1.3112-0.2972 1.4729-1.298z"/><path d="m96.097 21.667c0.1486 1.298 0.8653 1.5471 1.4466 1.5471s1.1014-0.2491 1.4597-0.7779l1.136 0.2972c-0.3318 1.0489-1.2977 1.7175-2.5695 1.7175-1.4466 0-2.8276-0.8522-2.8276-3.1904 0-2.3731 1.4204-3.2253 2.7927-3.2253s2.7794 0.8522 2.7794 3.2122v0.4196zm2.832-1.0489c-0.1835-1.1232-0.8391-1.3461-1.3592-1.3461-0.6075 0-1.2368 0.3234-1.4597 1.3461z"/><path d="m104.72 24.376v-3.623c0-1.2369-0.616-1.4816-1.062-1.4816-0.481 0-1.075 0.2841-1.224 1.1887v3.9159h-1.311v-6.2671h1.211l0.035 0.52c0.507-0.4195 0.953-0.5943 1.446-0.5943 0.988 0 2.212 0.6817 2.212 2.6091v3.7323z"/><path d="m71.273 37.71c-1.5515-0.625-2.7402-1.5515-2.7402-3.5226 0-2.5785 1.9929-4.1082 4.4927-4.1082 2.5349 0 4.2306 1.6127 4.2699 4.2699l-1.9754 0.4633c-0.201-1.8312-1.0489-2.6572-2.3382-2.6572-1.1275 0-2.2158 0.625-2.2158 1.8312 0 1.2106 1.0883 1.652 1.9536 1.9929l2.0323 0.8042c1.7918 0.7036 3.0199 1.6695 3.0199 3.7279 0 2.6572-2.0934 4.1476-4.7331 4.1476-2.8408 0-4.9168-1.7307-4.9342-4.6327l1.9754-0.4021c0.2404 1.8531 1.1494 2.9588 2.9194 2.9588 1.2281 0 2.5174-0.5244 2.5174-1.9317 0-1.3111-1.1057-1.6914-2.2945-2.1546z"/><path d="m89.589 40.127c0.2404 2.1153 1.4117 2.5174 2.3557 2.5174 0.9484 0 1.7919-0.4021 2.3775-1.2674l1.8531 0.4851c-0.542 1.7132-2.1153 2.7971-4.1869 2.7971-2.3557 0-4.6108-1.3898-4.6108-5.1965 0-3.8678 2.3163-5.2576 4.5496-5.2576 2.2377 0 4.5321 1.3898 4.5321 5.2358v0.6861zm4.6152-1.7132c-0.3016-1.8312-1.3679-2.1939-2.2158-2.1939-0.9877 0-2.0148 0.5244-2.3775 2.1939z"/><path d="m104.1 44.537v-1.9536h2.054v-6.3021h-2.054v-1.9536h4.147v8.2557h2.055v1.9536zm3.077-11.52c-0.783 0-1.408-0.6643-1.408-1.4904 0-0.8478 0.625-1.5121 1.408-1.5121 0.808 0 1.451 0.6643 1.451 1.5121 0 0.8261-0.643 1.4904-1.451 1.4904z"/><path d="m117.52 43.65c-0.948 0.826-1.73 1.0052-2.478 1.0052-2.032 0-4.409-1.3898-4.409-5.2358 0-3.8285 2.377-5.2183 4.388-5.2183 0.904 0 1.652 0.2797 2.561 1.0664l0.061-0.9484h2.015v10.209c0 2.4387-1.731 4.2481-4.454 4.2481-2.093 0-3.645-1.0489-4.147-2.8014l1.853-0.4808c0.585 0.8653 1.433 1.2674 2.377 1.2674 1.429 0 2.238-0.8872 2.238-2.2376v-0.8741zm0-4.9124c-0.262-1.77-1.289-2.5173-2.438-2.5173-0.988 0-2.277 0.5638-2.277 3.221 0 2.6397 1.267 3.2035 2.316 3.2035 0.966 0 2.133-0.4851 2.395-2.1153v-1.7919z"/><path d="m123.18 40.127c0.241 2.1153 1.412 2.5174 2.356 2.5174 0.948 0 1.792-0.4021 2.377-1.2674l1.853 0.4851c-0.542 1.7132-2.115 2.7971-4.186 2.7971-2.356 0-4.611-1.3898-4.611-5.1965 0-3.8678 2.316-5.2576 4.549-5.2576 2.238 0 4.532 1.3898 4.532 5.2358v0.6861zm4.611-1.7132c-0.302-1.8312-1.368-2.1939-2.216-2.1939-0.988 0-2.015 0.5244-2.377 2.1939z"/><path d="m103.22 34.35c-0.38-0.1005-0.765-0.1398-0.983-0.1398-0.804 0-1.674 0.5244-2.4389 1.2893l-0.0787-1.1669h-1.9929v10.209h2.1328v-5.9001c0.2837-1.6302 1.2677-2.1765 2.1717-2.1765 0.302 0 0.665 0.0612 1.189 0.1617z"/><path d="m81.648 44.537-3.6275-10.209h2.2115l2.4605 7.2767 2.4649-7.2767h2.2071l-3.6231 10.209z"/></g><path id="HaV" d="m193.15 10.862v9.3656h1.7891v-4.0289h4.6885v4.0289h1.7891v-9.3656h-1.7891v3.793h-4.6885v-3.793zm12.526 2.5868c-1.476 0-2.5735 0.43618-3.2005 1.5801l1.162 0.72102c0.36565-0.74604 1.0061-1.0067 1.8678-1.0067 0.78377 0 1.3059 0.22405 1.3059 1.0202v0.28572c-2.9646 0.19894-4.5045 0.72064-4.5045 2.4123 0 1.3803 1.1226 1.8773 2.3241 1.8773 1.2406 0 1.8277-0.38498 2.2455-0.98182 0.16978 0.59683 0.57461 0.98182 1.3711 0.98182 0.26137 0 0.61412-0.0229 0.77088-0.04795l0.22244-1.2196h-0.0268c-0.10461 0.02469-0.22171 0.03643-0.32598 0.03643-0.28744 0-0.51009-0.12313-0.51009-0.49666v-2.8726c0-1.6169-1.1872-2.2896-2.7019-2.2896zm12.363 0c-1.476 0-2.652 0.58387-2.652 1.9521 0 1.6046 1.2412 1.8915 2.6386 2.1151 1.1498 0.1866 1.6185 0.2733 1.6185 0.82073 0 0.54709-0.57464 0.74595-1.3193 0.74595-1.0839 0-1.6049-0.48363-2.0096-1.1429l-1.2024 0.67116c0.53543 1.1072 1.6195 1.7412 3.2388 1.7412 2.0635 0 2.8074-0.87041 2.8074-2.0768 0-1.5922-1.3451-1.9661-2.6904-2.14-1.11-0.13686-1.5935-0.24882-1.5935-0.77088 0-0.42293 0.36568-0.67116 1.2407-0.67116 0.77073 0 1.3728 0.32243 1.7642 0.93195l1.1237-0.80731c-0.61364-0.87055-1.5412-1.3692-2.9646-1.3692zm-9.2927 0.13615 2.326 6.6426h1.814l2.2474-6.6426h-1.5283l-1.5935 4.9877-1.6204-4.9877zm-1.9349 3.584v0.39694c0 0.93263-0.91309 1.5418-1.9579 1.5418-0.66612 0-1.0202-0.24752-1.0202-0.73252 0-0.89559 1.1889-1.082 2.978-1.2062zm-23.475 6.982v9.4269h1.5686v-3.4939c0-1.3683 0.73122-1.9905 1.7105-1.9905 0.90108 0 1.2675 0.57138 1.2675 1.467v4.0174h1.5667v-4.3645c0-1.7658-1.3836-2.4143-2.3893-2.4143-1.2276 0-1.8155 0.59795-2.1554 1.1697v-3.818zm8.8612 0.06136 3.5917 9.3656h1.7508l3.3424-9.3656h-1.8409l-2.3644 6.865-2.5082-6.865zm17.09 0.48515c-0.53543 0.57213-0.9929 0.94623-1.5283 1.2944v0.94538h-1.2023v1.2675h1.2023v3.6952c0 1.2564 0.6911 1.839 1.8275 1.839 0.54846 0 0.9007-0.08535 1.1621-0.19751l0.0921-1.3557h-0.0383c-0.18282 0.14955-0.48353 0.24929-0.9147 0.24929-0.36565 0-0.56186-0.17478-0.56186-0.49858v-3.7317h1.2752v-1.2675h-1.2752v-2.2398zm4.2609 0c-0.53542 0.57213-0.99289 0.94623-1.5283 1.2944v0.94538h-1.0144v1.2675h1.0144v3.6952c0 1.2564 0.69143 1.839 1.8275 1.839 0.54847 0 0.90105-0.08535 1.1621-0.19751l0.0921-1.3557h-0.0383c-0.18282 0.14955-0.48354 0.24929-0.9147 0.24929-0.36565 0-0.56186-0.17478-0.56186-0.49858v-3.7317h1.4631v-1.2675h-1.4631v-2.2398zm-41.088 2.0768c-1.9328 0-3.3424 1.2936-3.3424 3.4824 0 2.1023 1.3314 3.4824 3.3424 3.4824 2.0766 0 3.3309-1.23 3.3309-3.4939 0-2.164-1.3329-3.4709-3.3309-3.4709zm7.3214 0.02492c-2.011 0-3.3961 1.3554-3.3961 3.4076 0 2.1397 1.3727 3.4843 3.2925 3.4843 1.6584 0 2.5204-0.65995 3.0298-1.7048l-1.281-0.75937c-0.30048 0.78377-0.78224 1.2081-1.6837 1.2081-1.2142 0-1.7776-0.88314-1.7776-2.3011 0-1.4053 0.69372-2.0902 1.7776-2.0902 0.82288 0 1.2662 0.40956 1.5533 1.2177l1.3193-0.64623c-0.40509-1.194-1.4107-1.816-2.8342-1.816zm23.519 0c-1.476 0-2.5719 0.43584-3.1986 1.5801l1.1621 0.72102c0.36564-0.74604 1.0038-1.0067 1.8658-1.0067 0.78343 0 1.3059 0.22439 1.3059 1.0202v0.28572c-2.9646 0.19929-4.5045 0.72064-4.5045 2.4123 0 1.3803 1.1226 1.8793 2.3241 1.8793 1.2406 0 1.8277-0.38621 2.2455-0.98373 0.16979 0.59752 0.57655 0.98373 1.373 0.98373 0.26103 0 0.61413-0.02517 0.77088-0.04986l0.22053-1.2196h-0.0249c-0.10461 0.0247-0.22329 0.03835-0.3279 0.03835-0.28745 0-0.50818-0.12539-0.50818-0.49858v-2.8726c0-1.6169-1.1891-2.2896-2.7038-2.2896zm15.341 0c-1.8814 0-3.2273 1.3183-3.2273 3.4076 0 2.3136 1.3847 3.4843 3.2791 3.4843 1.881 0 2.7417-0.83447 3.0816-1.954l-1.3308-0.46022c-0.27476 0.77108-0.78489 1.1448-1.699 1.1448-1.1885 0-1.6845-0.6222-1.7757-1.8409h4.8324c0-2.7118-1.3056-3.7815-3.1602-3.7815zm7.7241 0c-1.2276 0-1.8538 0.62169-2.1803 1.2062l0.0249-1.0681h-1.5667v6.6407h1.5667v-3.4939c0-1.3682 0.73121-1.9905 1.7105-1.9905 0.90107 0 1.2675 0.57138 1.2675 1.467v4.0174h1.5667v-4.3645c0-1.7658-1.3836-2.4143-2.3893-2.4143zm-53.892 1.1563c1.2406 0 1.7642 1.02 1.7642 2.3011 0 1.3436-0.40513 2.2896-1.8025 2.2896-1.3062 0-1.7642-1.0458-1.7642-2.3893 0-1.3058 0.54886-2.2014 1.8026-2.2014zm46.168 0.06328c0.94018 0 1.4229 0.53421 1.5015 1.4171h-3.1353c0.17014-0.98237 0.7197-1.4171 1.6338-1.4171zm-14.206 2.5006v0.39694c0 0.93229-0.91308 1.5437-1.9579 1.5437-0.66612 0-1.0182-0.24978-1.0182-0.73444 0-0.89559 1.187-1.082 2.9761-1.2062zm17.978 6.982v3.5706c-0.39172-0.56013-1.0059-0.92045-2.0768-0.92045-1.737 0-2.978 1.2326-2.978 3.3846 0 2.2014 1.0843 3.5552 2.978 3.5552 1.1624 0 1.7882-0.59641 2.1017-1.1065l-0.0249 0.94538h1.5667v-9.4288zm2.6003 0v1.6683h1.6722v-1.6683zm9.9543 0v9.4289h1.5667v-3.4958c0-1.3679 0.73122-1.9886 1.7105-1.9886 0.90107 0 1.2675 0.57172 1.2675 1.467v4.0174h1.5667v-4.3664c0-1.7665-1.3836-2.4123-2.3894-2.4123-1.2276 0-1.8158 0.5976-2.1554 1.1697v-3.8199zm16.21 0.54843c-0.53509 0.57213-0.99222 0.94623-1.5283 1.2944v0.94346h-1.2004v1.2695h1.2004v3.6952c0 1.2561 0.69335 1.839 1.8294 1.839 0.54847 0 0.90069-0.08535 1.1621-0.19751l0.0921-1.3557h-0.0403c-0.18282 0.14886-0.48388 0.24737-0.9147 0.24737-0.36565 0-0.55994-0.1732-0.55994-0.49666v-3.7317h1.4612v-1.2695h-1.4612v-2.2378zm-54.631 2.1017c-1.2276 0-1.8154 0.64604-2.142 1.2062l0.0268-1.07h-1.5686v6.6426h1.5686v-3.4958c0-1.3679 0.69095-1.9886 1.6702-1.9886 0.90142 0 1.2273 0.57172 1.2273 1.467v4.0174h1.5686v-3.4958c0-1.3679 0.69061-1.9886 1.6702-1.9886 0.90108 0 1.2292 0.57172 1.2292 1.467v4.0174h1.5667v-4.3664c0-1.7665-1.3453-2.4123-2.351-2.4123-1.1621 0-1.9057 0.38632-2.4411 1.2445-0.43116-0.87089-1.2676-1.2445-2.025-1.2445zm17.606 0c-1.2273 0-1.8541 0.62135-2.1803 1.2062l0.0249-1.07h-1.5667v6.6426h1.5667v-3.4958c0-1.3679 0.73122-1.9886 1.7105-1.9886 0.90108 0 1.2675 0.57172 1.2675 1.467v4.0174h1.5667v-4.3664c0-1.7665-1.3836-2.4123-2.3893-2.4123zm16.405 0c-1.6286 0-2.7863 0.94041-2.7863 2.4277 0 0.73712 0.30906 1.3233 0.84758 1.7048-0.7944 0.21575-1.279 0.63539-1.279 1.2579 0 0.71242 0.36383 1.118 1.1582 1.2579-0.72717 0.2034-1.2522 0.52264-1.2522 1.1582 0 1.0932 1.1977 1.5245 3.3922 1.5245 2.4367 0 3.5667-0.62272 3.5667-2.0212 0-0.73712-0.28217-1.2082-0.80731-1.4881-0.49804-0.26686-1.2789-0.29148-2.5312-0.29148-1.7768 0-2.1937-0.06454-2.1937-0.45831 0-0.29293 0.41697-0.43146 0.8073-0.43146 0.39069 0 0.43155 0.04986 0.99716 0.04986 1.6828 0 2.7997-0.7755 2.7997-2.2628 0-0.17836-0.0403-0.34323-0.0403-0.52159 0-0.2919 0.30995-0.57145 0.60597-0.57145 0.16154 0 0.29715 0.07646 0.37776 0.17834h0.0268l0.30873-1.2963c-0.0809-0.0885-0.28284-0.17834-0.49858-0.17834-0.51107 0-0.9696 0.24149-1.2656 0.88977-0.43116-0.54675-1.2647-0.92812-2.234-0.92812zm14.541 0c-1.8807 0-3.2273 1.318-3.2273 3.4076 0 2.3132 1.3857 3.4824 3.2791 3.4824 1.8804 0 2.742-0.83255 3.0816-1.9521l-1.3327-0.46022c-0.27406 0.77108-0.78262 1.1448-1.6971 1.1448-1.1882 0-1.6848-0.6222-1.7757-1.8409h4.8324c0-2.7115-1.3059-3.7815-3.1602-3.7815zm11.136 0c-1.881 0-3.2273 1.318-3.2273 3.4076 0 2.3132 1.3854 3.4824 3.2791 3.4824 1.8804 0 2.742-0.83255 3.0816-1.9521l-1.3327-0.46022c-0.27441 0.77108-0.78297 1.1448-1.6971 1.1448-1.1885 0-1.6841-0.6222-1.7757-1.8409h4.8324c0-2.7115-1.3056-3.7815-3.1602-3.7815zm7.7241 0c-1.2276 0-1.8557 0.62135-2.1822 1.2062l0.0268-1.07h-1.5667v6.6426h1.5667v-3.4958c0-1.3679 0.73156-1.9886 1.7105-1.9886 0.90141 0 1.2675 0.57172 1.2675 1.467v4.0174h1.5667v-4.3664c0-1.7665-1.3836-2.4123-2.3893-2.4123zm-60.33 0.13615 2.4028 6.5563-0.23395 0.55994c-0.20889 0.5224-0.57519 0.65774-0.99331 0.65774-0.2871 0-0.53512-0.07368-0.67884-0.19751h-0.0268l-0.40462 1.256c0.31351 0.17425 0.7835 0.2723 1.3059 0.2723 0.49633 0 1.0185-0.11065 1.3711-0.37202 0.45722-0.33546 0.76988-0.84677 0.95304-1.3692l2.4948-7.3636h-1.5283l-1.4497 4.5524-1.5398-4.5524zm21.437 0v6.6426h1.5686v-6.6426zm5.492 1.047c0.87535 0 1.2656 0.55942 1.2656 1.1947 0 0.66132-0.41711 1.1314-1.2925 1.1314-0.86163 0-1.3059-0.39404-1.3059-1.1065 0-0.68636 0.41758-1.2196 1.3327-1.2196zm14.541 0.03643c0.94052 0 1.4229 0.53421 1.5015 1.4171h-3.1353c0.17012-0.98271 0.71968-1.4171 1.6338-1.4171zm11.136 0c0.94018 0 1.4236 0.53421 1.5015 1.4171h-3.1353c0.16944-0.98271 0.71969-1.4171 1.6338-1.4171zm-35.598 0.06136c1.0712 0 1.816 0.63539 1.816 2.1151 0 1.5675-0.70411 2.2628-1.8793 2.2628-1.1498 0-1.6587-0.84563-1.6587-2.2513 0-1.4677 0.58597-2.1266 1.722-2.1266zm9.9083 5.6224c1.0102 0 1.6024 1.03e-4 1.885 0.10163 0.17493 0.06345 0.24161 0.26682 0.24161 0.43146 0 0.39446-0.41784 0.66157-1.9521 0.66157-1.5754 0-2.0058-0.16492-2.0058-0.6098 0-0.48295 0.51211-0.58487 1.8313-0.58487z" fill="#fff"/></svg>
