<?xml version="1.0" encoding="UTF-8"?>
<svg  viewBox="0 0 390.64 134.19" xml:space="preserve" xmlns="http://www.w3.org/2000/svg">
	<path class="st0" d="m80.51 60.46v-26.71h-13.31v26.71h-33.65v13.31h33.65v26.93h13.33v-26.92h59.86v-13.32z" fill="#ffd600"/><g fill="#005694">
	<path class="st1" d="m33.55 73.77v-0.03 26.96h33.65v-26.93z"/>
	<path class="st1" d="m67.2 33.75"/>
	<path class="st1" d="m33.55 33.75h33.65v26.71h-33.65z"/>
	<path class="st1" d="m80.53 73.76h59.86v26.94h-59.86z"/>
	<path class="st1" d="m80.51 33.75h59.88v26.71h-59.88z"/>
</g>
<g fill="#fff">
	<path d="m157.89 44.47c-2.18-0.88-3.85-2.18-3.85-4.95 0-3.62 2.8-5.77 6.31-5.77 3.56 0 5.94 2.26 6 6l-2.77 0.65c-0.28-2.57-1.47-3.73-3.28-3.73-1.58 0-3.11 0.88-3.11 2.57s1.53 2.32 2.74 2.8l2.86 1.13c2.52 0.99 4.24 2.35 4.24 5.23 0 3.73-2.94 5.83-6.65 5.83-3.99 0-6.9-2.43-6.93-6.51l2.77-0.56c0.34 2.6 1.61 4.16 4.1 4.16 1.73 0 3.54-0.73 3.54-2.71 0-1.84-1.56-2.38-3.22-3.03l-2.75-1.11z"/>
	<path d="m178.37 54.06-2.26-7.15-2.24 7.15h-2.91l-3.59-14.34h2.91l2.57 9.67 2.29-7.75h1.95l2.29 7.75 2.57-9.67h2.88l-3.56 14.34h-2.9z"/>
	<path d="m188 47.86c0.34 2.97 1.98 3.54 3.31 3.54s2.52-0.57 3.34-1.78l2.6 0.68c-0.76 2.4-2.97 3.93-5.88 3.93-3.31 0-6.48-1.95-6.48-7.3 0-5.43 3.25-7.38 6.39-7.38s6.36 1.95 6.36 7.35v0.96h-9.64zm6.48-2.4c-0.42-2.57-1.92-3.08-3.11-3.08-1.38 0-2.83 0.74-3.34 3.08h6.45z"/>
	<path id="x" d="m209.01 54.06-0.11-1.3c-1.3 1.13-2.38 1.47-3.56 1.47-2.86 0-6.2-1.95-6.2-7.35 0-5.37 3.34-7.33 6.11-7.33 1.3 0 2.35 0.43 3.56 1.44v-7.07h3v20.14h-2.8zm-0.19-8.15c-0.37-2.49-1.81-3.54-3.42-3.54-1.38 0-3.2 0.77-3.2 4.53 0 3.71 1.78 4.5 3.25 4.5 1.36 0 3-0.68 3.37-2.97v-2.52z"/>
	<path d="m216.82 47.86c0.34 2.97 1.98 3.54 3.31 3.54s2.52-0.57 3.34-1.78l2.6 0.68c-0.76 2.4-2.97 3.93-5.88 3.93-3.31 0-6.47-1.95-6.47-7.3 0-5.43 3.25-7.38 6.39-7.38s6.36 1.95 6.36 7.35v0.96h-9.65zm6.48-2.4c-0.42-2.57-1.92-3.08-3.11-3.08-1.39 0-2.83 0.74-3.34 3.08h6.45z"/>
	<path d="m236.54 54.06v-8.29c0-2.83-1.41-3.39-2.43-3.39-1.1 0-2.46 0.65-2.8 2.72v8.96h-3v-14.34h2.77l0.08 1.19c1.16-0.96 2.18-1.36 3.31-1.36 2.26 0 5.06 1.56 5.06 5.97v8.54h-2.99z"/>
</g>
<g fill="#fff">
	<path d="m160.02 84.57c-3.55-1.43-6.27-3.55-6.27-8.06 0-5.9 4.56-9.4 10.28-9.4 5.8 0 9.68 3.69 9.77 9.77l-4.52 1.06c-0.46-4.19-2.4-6.08-5.35-6.08-2.58 0-5.07 1.43-5.07 4.19 0 2.77 2.49 3.78 4.47 4.56l4.65 1.84c4.1 1.61 6.91 3.82 6.91 8.53 0 6.08-4.79 9.49-10.83 9.49-6.5 0-11.25-3.96-11.29-10.6l4.52-0.92c0.55 4.24 2.63 6.77 6.68 6.77 2.81 0 5.76-1.2 5.76-4.42 0-3-2.53-3.87-5.25-4.93l-4.46-1.8z"/>
	<path d="m201.93 90.1c0.55 4.84 3.23 5.76 5.39 5.76 2.17 0 4.1-0.92 5.44-2.9l4.24 1.11c-1.24 3.92-4.84 6.4-9.58 6.4-5.39 0-10.55-3.18-10.55-11.89 0-8.85 5.3-12.03 10.41-12.03 5.12 0 10.37 3.18 10.37 11.98v1.57h-15.72zm10.56-3.92c-0.69-4.19-3.13-5.02-5.07-5.02-2.26 0-4.61 1.2-5.44 5.02h10.51z"/>
	<path d="m235.13 100.19v-4.47h4.7v-14.42h-4.7v-4.47h9.49v18.89h4.7v4.47h-14.19zm7.04-26.36c-1.79 0-3.22-1.52-3.22-3.41 0-1.94 1.43-3.46 3.22-3.46 1.85 0 3.32 1.52 3.32 3.46 0 1.89-1.47 3.41-3.32 3.41z"/>
	<path d="m265.84 98.16c-2.17 1.89-3.96 2.3-5.67 2.3-4.65 0-10.09-3.18-10.09-11.98 0-8.76 5.44-11.94 10.04-11.94 2.07 0 3.78 0.64 5.86 2.44l0.14-2.17h4.61v23.36c0 5.58-3.96 9.72-10.19 9.72-4.79 0-8.34-2.4-9.49-6.41l4.24-1.1c1.34 1.98 3.28 2.9 5.44 2.9 3.27 0 5.12-2.03 5.12-5.12v-2zm0-11.24c-0.6-4.05-2.95-5.76-5.58-5.76-2.26 0-5.21 1.29-5.21 7.37 0 6.04 2.9 7.33 5.3 7.33 2.21 0 4.88-1.11 5.48-4.84v-4.1z"/>
	<path d="m278.79 90.1c0.55 4.84 3.23 5.76 5.39 5.76 2.17 0 4.1-0.92 5.44-2.9l4.24 1.11c-1.24 3.92-4.84 6.4-9.58 6.4-5.39 0-10.55-3.18-10.55-11.89 0-8.85 5.3-12.03 10.41-12.03 5.12 0 10.37 3.18 10.37 11.98v1.57h-15.72zm10.55-3.92c-0.69-4.19-3.13-5.02-5.07-5.02-2.26 0-4.61 1.2-5.44 5.02h10.51z"/>
	<path d="m233.11 76.88c-0.87-0.23-1.75-0.32-2.25-0.32-1.84 0-3.83 1.2-5.58 2.95l-0.18-2.67h-4.56v23.36h4.88v-13.5c0.65-3.73 2.9-4.98 4.97-4.98 0.69 0 1.52 0.14 2.72 0.37v-5.21z"/>
	<path d="m183.76 100.19-8.3-23.36h5.06l5.63 16.65 5.64-16.65h5.05l-8.29 23.36h-4.79z"/>
</g>
</svg>
