<?xml version="1.0" encoding="UTF-8"?>
<svg width="422px" height="313px" viewBox="0 0 422 313" version="1.1" xmlns="http://www.w3.org/2000/svg" xmlns:xlink="http://www.w3.org/1999/xlink">
    <!-- Generator: Sketch 57.1 (83088) - https://sketch.com -->
    <title>Topography</title>
    <desc>Created with Sketch.</desc>
    <defs>
        <polygon id="path-1" points="0.6988574 0.0885706244 381.269 0.0885706244 381.269 244.0669 0.6988574 244.0669"></polygon>
        <polygon id="path-3" points="0 0.281557229 131.885825 0.281557229 131.885825 192.9996 0 192.9996"></polygon>
        <polygon id="path-5" points="0.303812898 0.180453616 103.269 0.180453616 103.269 34.0669 0.303812898 34.0669"></polygon>
        <polygon id="path-7" points="0.727747085 0.998406479 90.269 0.998406479 90.269 23.0669 0.727747085 23.0669"></polygon>
        <polygon id="path-9" points="0.560037795 0.483 84.5820266 0.483 84.5820266 84.4136 0.560037795 84.4136"></polygon>
    </defs>
    <g id="Topography" stroke="none" stroke-width="1" fill="none" fill-rule="evenodd">
        <g id="Group-3" transform="translate(40.000000, 67.517000)">
            <mask id="mask-2" fill="white">
                <use xlink:href="#path-1"></use>
            </mask>
            <g id="Clip-2"></g>
            <path d="M118.763,244.0669 C118.551,244.0669 118.341,243.9739 118.199,243.7959 C114.007,238.5339 110.877,232.6219 107.851,226.9049 C106.036,223.4769 103.659,220.9629 100.582,219.2169 C93.831,215.3929 86.101,210.7669 79.805,204.2549 C74.673,198.9489 72.005,192.5359 71.649,184.6499 L71.621,184.0539 C71.414,179.4959 71.2,174.7819 70.359,170.2889 C68.438,160.0529 64.126,155.5909 54.451,153.8279 C48.093,152.6699 41.853,151.2659 36.588,150.0459 C32.413,149.0789 28.634,149.2779 25.034,150.6509 C22.962,151.4419 20.679,152.1579 18.246,152.7779 C13.915,153.8829 9.826,152.3529 7.831,148.8779 C5.843,145.4129 6.153,142.3449 8.901,138.2889 C11.112,135.0239 14.38,133.0389 17.54,131.1199 C18.087,130.7869 18.635,130.4549 19.175,130.1169 C24.187,126.9799 29.369,123.7369 33.46,119.0959 C35.933,116.2899 37.335,113.9069 36.689,110.7069 C35.946,107.0329 34.212,103.8539 32.784,101.4949 C28.213,93.9399 21.568,87.7889 12.469,82.6889 C5.393,78.7259 1.466,72.4579 0.796,64.0569 C0.3,57.7989 1.7,52.4209 5.074,47.6179 C6.964,44.9229 8.599,41.9549 10.179,39.0849 L10.287,38.8869 C11.391,36.8839 11.221,35.0479 9.781,33.4309 C9.474,33.0859 9.187,32.7219 8.9,32.3589 C8.442,31.7799 8.01,31.2329 7.508,30.7739 C-0.632,23.3129 0.498,11.4009 5.694,3.9809 C8.891,-0.5831 14.101,-0.6261 17.586,1.2659 C21.333,3.2999 23.965,6.5529 25.41,10.9349 C26.312,13.6709 26.881,16.5439 27.433,19.3219 L27.782,21.0669 C28.262,23.4369 29.626,24.8029 32.074,25.3669 C35.186,26.0889 38.226,25.4629 41.592,24.6369 C54.007,21.5799 64.755,18.0659 74.452,13.8919 C78.961,11.9519 83.931,11.1369 88.821,11.5369 L89.157,11.5639 C94.182,11.9769 99.378,12.4029 104.302,11.1829 C106.714,10.5859 109.059,9.3499 111.326,8.1549 L112.534,7.5219 C114.537,6.4849 116.203,6.3829 117.626,7.2079 C120.756,9.0129 124.465,14.2139 123.287,19.2839 C122.873,21.0729 122.737,23.0219 122.892,24.9219 C123.142,27.9999 124.972,30.5649 126.666,32.7279 C130.424,37.5229 130.351,41.4199 126.412,46.1779 C125.365,47.4429 124.161,48.5869 122.998,49.6919 C122.036,50.6039 121.042,51.5479 120.161,52.5409 C115.049,58.3119 110.041,64.0939 105.281,69.7259 C104.212,70.9899 103.201,72.3549 102.224,73.6739 C101.243,74.9979 100.231,76.3659 99.147,77.6529 C97.438,79.6759 95.122,79.8759 92.952,78.1839 C91.315,76.9029 89.589,75.4999 88.062,73.9139 C85.975,71.7439 83.499,70.0219 80.493,68.6469 C75.575,66.3959 71.427,66.4649 67.807,68.8569 C62.79,72.1749 59.881,77.3389 57.105,82.7879 C54.752,87.4029 53.613,92.3349 52.624,98.3199 C52.251,100.5529 52.255,102.9289 52.636,105.1929 C52.996,107.3109 54.458,108.6629 57.525,109.7109 C58.193,109.9389 58.867,110.1609 59.541,110.3809 C63.512,111.6859 67.618,113.0349 70.966,115.9199 C74.228,118.7339 77.352,121.7369 80.025,124.3299 C82.677,126.9049 85.718,128.1189 89.387,128.1009 C96.264,128.0329 102.295,125.4199 107.288,122.8709 C109.76,121.6089 112.129,119.9869 114.42,118.4189 C115.172,117.9029 115.924,117.3879 116.681,116.8839 C122.869,112.7639 129.251,112.3389 135.648,115.6249 C137.713,116.6859 139.731,117.8979 141.682,119.0699 C143.013,119.8699 144.389,120.6969 145.762,121.4629 C148.7,123.1019 151.916,124.8139 155.596,126.6949 C156.722,127.2709 157.901,127.8149 159.04,128.3399 C161.048,129.2649 163.125,130.2229 165.043,131.4119 C168.545,133.5839 170.968,136.8669 173.312,140.0429 C173.643,140.4909 173.973,140.9389 174.307,141.3829 C176.202,143.9109 177.346,145.4359 178.605,145.5969 C179.689,145.7379 181.201,144.9309 183.968,142.7249 C187.644,139.7959 191.354,137.7589 195.312,136.5029 C201.321,134.5999 205.925,132.3789 209.803,129.5119 C211.667,128.1339 213.987,126.4199 216.389,125.0759 C220.85,122.5849 226.899,119.7619 233.959,120.1189 C238.149,120.3259 242.012,121.6439 245.305,122.8649 C251.44,125.1379 255.954,128.5949 259.108,133.4329 C263.729,140.5269 268.863,144.8489 275.264,147.0379 C280.148,148.7069 283.851,148.2629 286.913,145.6419 C288.247,144.5029 289.546,143.0039 290.773,141.1869 C292.777,138.2129 294.732,135.1229 296.622,132.1339 C297.404,130.8979 298.186,129.6619 298.974,128.4289 C301.107,125.0959 303.79,122.5949 307.178,120.7819 C313.246,117.5389 319.66,117.4269 324.578,117.6899 C328.825,117.9179 332.189,119.1119 334.864,121.3379 C338.47,124.3419 339.838,127.6269 339.169,131.6719 C338.915,133.2249 339.057,135.1179 339.568,136.9999 C339.822,137.9319 340.281,138.5229 340.861,138.6659 C341.456,138.8109 342.186,138.4729 342.862,137.7389 C343.661,136.8729 344.261,135.7439 344.856,134.5669 L345.031,134.2209 C345.856,132.5759 346.71,130.8759 348.804,130.0189 C351.13,129.0669 353.475,129.0339 355.583,129.9229 C357.842,130.8769 359.606,132.7919 360.684,135.4629 C362.241,139.3259 362.626,143.4039 362.999,147.3479 C363.173,149.1859 363.296,150.9579 363.42,152.7289 C363.64,155.8709 363.867,159.1199 364.345,162.2609 C365.025,166.7129 367.091,170.3899 370.486,173.1929 C373.19,175.4219 376.374,177.1859 380.81,178.9099 C381.18,179.0529 381.365,179.4699 381.22,179.8409 C381.076,180.2119 380.658,180.3929 380.288,180.2519 C375.703,178.4689 372.398,176.6349 369.57,174.3029 C365.893,171.2689 363.657,167.2899 362.921,162.4779 C362.435,159.2779 362.205,155.9999 361.984,152.8289 C361.862,151.0689 361.739,149.3089 361.573,147.5549 C361.202,143.6419 360.827,139.6699 359.348,136.0009 C358.417,133.6929 356.921,132.0499 355.024,131.2499 C353.275,130.5129 351.312,130.5479 349.35,131.3519 C347.755,132.0039 347.088,133.3309 346.317,134.8669 L346.14,135.2169 C345.498,136.4879 344.845,137.7129 343.92,138.7149 C342.876,139.8459 341.632,140.3359 340.518,140.0639 C339.407,139.7919 338.575,138.8379 338.179,137.3779 C337.616,135.2999 337.462,133.1919 337.749,131.4389 C338.334,127.8989 337.16,125.1259 333.942,122.4449 C331.515,120.4229 328.426,119.3379 324.5,119.1279 C319.776,118.8719 313.61,118.9769 307.857,122.0509 C304.692,123.7449 302.183,126.0859 300.187,129.2059 C299.401,130.4359 298.619,131.6699 297.838,132.9039 C295.943,135.9009 293.983,138.9999 291.966,141.9929 C290.666,143.9179 289.281,145.5129 287.849,146.7369 C284.36,149.7209 280.214,150.2499 274.799,148.3999 C268.076,146.1019 262.707,141.5959 257.901,134.2189 C254.922,129.6489 250.639,126.3779 244.805,124.2149 C240.845,122.7469 237.473,121.7329 233.889,121.5559 C227.178,121.2339 221.384,123.9359 217.091,126.3329 C214.94,127.5359 212.988,128.9489 210.659,130.6699 C206.65,133.6329 201.91,135.9229 195.747,137.8749 C191.96,139.0779 188.401,141.0329 184.865,143.8509 C182.128,146.0339 180.205,147.2559 178.422,147.0249 C176.56,146.7869 175.279,145.0789 173.155,142.2469 C172.82,141.7989 172.487,141.3479 172.154,140.8969 C169.891,137.8319 167.551,134.6609 164.284,132.6349 C162.443,131.4939 160.407,130.5539 158.437,129.6469 C157.284,129.1159 156.093,128.5659 154.941,127.9769 C151.245,126.0879 148.013,124.3689 145.06,122.7199 C143.667,121.9419 142.281,121.1099 140.94,120.3039 C139.009,119.1439 137.013,117.9439 134.99,116.9049 C129.091,113.8769 123.2,114.2719 117.48,118.0829 C116.728,118.5829 115.981,119.0939 115.234,119.6059 C112.906,121.2009 110.497,122.8489 107.943,124.1529 C103.102,126.6239 96.618,129.4689 89.402,129.5409 C85.392,129.5999 81.96,128.2159 79.022,125.3629 C76.365,122.7839 73.258,119.7979 70.026,117.0099 C66.896,114.3119 62.929,113.0089 59.092,111.7499 C58.412,111.5259 57.734,111.3029 57.059,111.0739 C54.645,110.2479 51.799,108.8609 51.216,105.4319 C50.81,103.0119 50.805,100.4709 51.204,98.0849 C52.214,91.9669 53.386,86.9139 55.822,82.1329 C58.69,76.5069 61.703,71.1669 67.013,67.6559 C71.026,65.0039 75.762,64.8989 81.093,67.3379 C84.266,68.7889 86.885,70.6129 89.099,72.9149 C90.565,74.4369 92.243,75.8019 93.838,77.0489 C94.92,77.8939 96.531,78.5189 98.046,76.7239 C99.1,75.4729 100.1,74.1229 101.067,72.8169 C102.058,71.4799 103.083,70.0959 104.181,68.7959 C108.95,63.1559 113.964,57.3659 119.084,51.5859 C120.006,50.5469 121.023,49.5809 122.006,48.6469 C123.14,47.5709 124.311,46.4589 125.303,45.2599 C128.806,41.0279 128.868,37.8719 125.534,33.6149 C123.709,31.2879 121.74,28.5139 121.456,25.0389 C121.289,22.9929 121.438,20.8909 121.885,18.9589 C122.905,14.5669 119.649,10.0369 116.907,8.4549 C115.926,7.8869 114.747,7.9969 113.197,8.7999 L111.997,9.4289 C109.654,10.6639 107.231,11.9419 104.648,12.5809 C99.498,13.8579 94.181,13.4209 89.039,12.9989 L88.703,12.9709 C84.039,12.5889 79.314,13.3659 75.021,15.2139 C65.251,19.4199 54.429,22.9589 41.936,26.0349 C38.385,26.9069 35.167,27.5609 31.749,26.7699 C28.729,26.0739 26.969,24.3019 26.371,21.3539 L26.02,19.6019 C25.478,16.8669 24.916,14.0379 24.043,11.3849 C22.717,7.3639 20.313,4.3849 16.899,2.5309 C13.954,0.9329 9.564,0.9649 6.873,4.8069 C2.029,11.7259 0.946,22.8059 8.481,29.7129 C9.068,30.2489 9.556,30.8679 10.029,31.4659 C10.299,31.8079 10.569,32.1499 10.857,32.4739 C12.718,34.5659 12.958,37.0239 11.549,39.5809 L11.44,39.7789 C9.841,42.6829 8.188,45.6869 6.251,48.4449 C3.077,52.9629 1.763,58.0329 2.232,63.9429 C2.869,71.9459 6.449,77.6679 13.172,81.4329 C22.494,86.6579 29.313,92.9759 34.017,100.7499 C35.504,103.2089 37.313,106.5299 38.1,110.4209 C38.947,114.6139 36.706,117.5879 34.54,120.0479 C30.311,124.8449 24.8,128.2949 19.939,131.3379 C19.393,131.6779 18.84,132.0139 18.287,132.3499 C15.259,134.1899 12.127,136.0909 10.092,139.0959 C7.64,142.7159 7.366,145.1729 9.079,148.1609 C10.743,151.0589 14.2,152.3249 17.891,151.3819 C20.27,150.7759 22.5,150.0779 24.521,149.3059 C28.399,147.8269 32.452,147.6109 36.912,148.6439 C42.161,149.8599 48.38,151.2579 54.709,152.4119 C64.961,154.2799 69.746,159.2179 71.774,170.0229 C72.634,174.6159 72.85,179.3809 73.06,183.9889 L73.086,184.5849 C73.427,192.1039 75.963,198.2119 80.84,203.2539 C87.002,209.6289 94.628,214.1899 101.292,217.9649 C104.616,219.8489 107.177,222.5529 109.123,226.2319 C112.118,231.8899 115.217,237.7419 119.325,242.8989 C119.573,243.2099 119.522,243.6629 119.21,243.9109 C119.078,244.0159 118.919,244.0669 118.763,244.0669" id="Fill-1" fill="#2280A6" mask="url(#mask-2)"></path>
        </g>
        <path d="M142.1888,311.7968 C141.8148,311.7968 141.4998,311.5078 141.4718,311.1288 C141.4278,310.5318 141.4098,309.9278 141.3908,309.3228 C141.3508,308.0098 141.3118,306.7708 141.0278,305.5928 C139.4628,299.1738 136.4738,294.2878 131.8878,290.6588 L130.7788,289.7828 C128.6408,288.0968 126.4308,286.3528 124.3238,284.5498 C120.1238,280.9528 116.7198,277.9478 113.6108,275.0938 C110.0058,271.7828 106.3468,268.4228 105.2728,263.3828 C104.6908,260.6498 104.5038,257.8108 104.3248,255.0658 C104.2708,254.2438 104.2178,253.4238 104.1538,252.6078 C104.0668,251.4958 104.0478,250.3678 104.0298,249.2768 C104.0008,247.4728 103.9718,245.7678 103.6638,244.0918 C102.3328,236.8578 98.9778,232.6218 93.1078,230.7668 C89.1588,229.5178 84.9858,229.1378 80.9498,228.7718 C80.1528,228.6988 79.3548,228.6258 78.5578,228.5478 C73.5728,228.0578 68.6828,229.1448 64.1418,230.3918 C56.6128,232.4598 50.6208,231.7618 45.2918,228.1968 C40.2478,224.8158 37.6408,221.3008 36.8398,216.8028 C36.1988,213.2008 36.4738,209.4178 37.6598,205.5598 C40.2118,197.2598 44.5488,192.2878 51.3068,189.9138 C55.3488,188.4948 58.4178,186.5318 60.6868,183.9138 C63.4788,180.6928 64.6898,177.0488 64.1878,173.3708 C63.3928,167.5778 60.3368,162.7498 55.3498,159.4108 C51.6588,156.9408 47.7758,154.6048 44.0198,152.3448 L43.2228,151.8648 C39.3348,149.5278 36.9688,146.4958 35.9938,142.5968 C35.6638,141.2788 35.3678,139.9518 35.0728,138.6258 C34.6418,136.6928 34.1978,134.6948 33.6478,132.7738 C32.3838,128.3578 30.5478,125.5648 27.6958,123.7198 L26.5448,122.9778 C24.1158,121.4108 21.6028,119.7908 19.2898,117.9688 C17.9328,116.9008 16.7598,115.3078 16.1538,113.7048 C15.0608,110.8048 16.2398,108.3458 19.7538,106.1858 C21.8218,104.9138 24.0428,103.8458 26.1898,102.8138 L27.1438,102.3548 C29.1918,101.3658 30.4298,99.9358 30.9298,97.9828 C31.6168,95.3118 32.0658,93.2608 32.3858,91.3308 C33.5278,84.4408 34.6138,77.4378 35.5408,71.4148 C36.0498,68.1228 36.3968,63.8368 34.5408,59.8838 C34.1318,59.0148 33.7198,58.1478 33.3078,57.2798 C30.8598,52.1248 28.3288,46.7928 26.6708,41.1268 C25.6158,37.5228 22.9578,34.6938 18.9838,32.9478 C14.8078,31.1118 10.6458,29.2438 6.4838,27.3768 L1.1458,24.9838 C0.7838,24.8208 0.6208,24.3958 0.7828,24.0328 C0.9468,23.6698 1.3728,23.5088 1.7338,23.6698 L7.0738,26.0628 C11.2328,27.9288 15.3908,29.7958 19.5638,31.6298 C23.9388,33.5528 26.8748,36.6968 28.0518,40.7228 C29.6778,46.2788 32.1848,51.5578 34.6088,56.6628 C35.0218,57.5318 35.4338,58.4008 35.8428,59.2728 C37.8658,63.5778 37.5038,68.1408 36.9628,71.6338 C36.0358,77.6608 34.9498,84.6688 33.8058,91.5668 C33.4788,93.5388 33.0218,95.6288 32.3248,98.3398 C31.7218,100.6958 30.1898,102.4828 27.7698,103.6508 L26.8138,104.1108 C24.6998,105.1278 22.5128,106.1788 20.5078,107.4118 C17.5558,109.2268 16.6568,110.9558 17.5008,113.1958 C18.0098,114.5428 19.0378,115.9388 20.1798,116.8378 C22.4398,118.6178 24.9228,120.2188 27.3258,121.7678 L28.4778,122.5118 C31.6428,124.5588 33.6658,127.6018 35.0328,132.3778 C35.5928,134.3408 36.0428,136.3598 36.4778,138.3128 C36.7698,139.6268 37.0628,140.9418 37.3898,142.2468 C38.2688,145.7578 40.4188,148.5008 43.9648,150.6318 L44.7618,151.1108 C48.5328,153.3788 52.4308,155.7248 56.1508,158.2158 C61.4898,161.7888 64.7618,166.9628 65.6138,173.1758 C66.1728,177.2758 64.8458,181.3158 61.7748,184.8578 C59.3358,187.6698 56.0678,189.7688 51.7838,191.2728 C45.4078,193.5128 41.4758,198.0488 39.0368,205.9828 C37.9178,209.6198 37.6568,213.1758 38.2578,216.5508 C38.9838,220.6318 41.4008,223.8548 46.0928,227.0008 C51.0478,230.3168 56.6638,230.9518 63.7608,229.0028 C68.4358,227.7178 73.4858,226.6008 78.6998,227.1148 C79.4928,227.1928 80.2868,227.2658 81.0808,227.3378 C85.1918,227.7108 89.4438,228.0978 93.5418,229.3938 C99.8868,231.4008 103.6618,236.1218 105.0798,243.8308 C105.4098,245.6238 105.4398,247.4698 105.4688,249.2528 C105.4868,250.3218 105.5048,251.4278 105.5888,252.4938 C105.6538,253.3178 105.7078,254.1448 105.7618,254.9708 C105.9378,257.6648 106.1208,260.4508 106.6808,263.0828 C107.6598,267.6738 111.1468,270.8748 114.5178,273.9718 C117.6808,276.8758 121.0738,279.8708 125.2598,283.4568 C127.3448,285.2398 129.5438,286.9758 131.6698,288.6528 L132.7808,289.5298 C137.6278,293.3658 140.7838,298.5088 142.4258,305.2528 C142.7468,306.5758 142.7898,307.9498 142.8308,309.2778 C142.8478,309.8628 142.8658,310.4468 142.9078,311.0258 C142.9368,311.4218 142.6378,311.7668 142.2418,311.7968 C142.2238,311.7968 142.2068,311.7968 142.1888,311.7968" id="Fill-4" fill="#2280A6"></path>
        <path d="M184.7757,311.5839 C184.5777,311.5839 184.3797,311.5029 184.2377,311.3429 C183.9737,311.0449 184.0007,310.5909 184.2967,310.3259 C186.4577,308.4069 188.1447,305.9539 189.3127,303.0319 C190.7917,299.3289 190.4957,296.1239 188.4077,293.2329 C186.2907,290.3019 183.5097,288.2649 179.9877,286.1069 C178.5257,285.2099 177.0467,284.3409 175.5667,283.4709 C173.7787,282.4179 171.9287,281.3299 170.1357,280.2089 C164.4077,276.6209 164.4667,273.1159 165.2477,267.7709 C165.5477,265.6979 166.1767,263.6659 166.7857,261.7009 C167.0357,260.8949 167.2847,260.0879 167.5117,259.2779 C169.6807,251.5409 173.3797,246.4539 179.1527,243.2679 C182.5457,241.3979 186.0877,239.0879 189.9817,236.2049 C196.0717,231.6949 203.3937,226.5919 211.5337,222.9329 C215.4687,221.1619 217.9097,220.8999 221.1207,224.1879 C224.9977,228.1579 229.6047,231.5589 235.2077,234.5819 C237.4137,235.7699 239.5047,237.2149 241.5267,238.6119 C243.4367,239.9319 245.4137,241.2969 247.4547,242.4199 C253.9107,245.9619 260.5157,249.1569 266.6937,252.0839 C273.9547,255.5249 283.2627,260.4599 290.8577,268.1359 C292.5707,269.8669 294.8177,271.1979 296.9907,272.4849 L298.0127,273.0939 C299.1277,273.7629 300.2527,274.4139 301.3767,275.0649 C305.5017,277.4549 309.7667,279.9279 313.4427,283.2529 C317.1507,286.6069 321.3517,287.6089 325.9347,286.2269 C331.9847,284.4069 336.5567,282.8529 340.7577,281.1879 C344.2427,279.8069 347.9017,278.2229 351.0527,275.9919 C355.2327,273.0289 359.1537,269.6819 362.7087,266.0419 C368.4397,260.1699 375.4847,260.1379 381.6187,260.8829 C384.1887,261.1949 386.7817,261.6279 389.2897,262.0459 C390.7247,262.2859 392.1607,262.5239 393.5987,262.7439 C395.0207,262.9609 396.4477,263.1489 397.8747,263.3389 C400.6877,263.7119 403.5957,264.0989 406.4247,264.6989 C407.7347,264.9779 409.0357,265.2959 410.3357,265.6129 C413.6547,266.4259 417.0877,267.2659 420.5677,267.3549 C420.9647,267.3639 421.2787,267.6949 421.268932,268.0919 C421.2587,268.4889 420.9787,268.8009 420.5307,268.7939 C416.8957,268.7009 413.3867,267.8429 409.9937,267.0119 C408.7077,266.6969 407.4207,266.3829 406.1267,266.1069 C403.3517,265.5179 400.4707,265.1359 397.6857,264.7669 C396.2497,264.5759 394.8127,264.3859 393.3817,264.1669 C391.9377,263.9469 390.4947,263.7069 389.0517,263.4659 C386.5597,263.0509 383.9827,262.6209 381.4447,262.3119 C375.3697,261.5739 369.0187,261.6389 363.7377,267.0479 C360.1237,270.7489 356.1347,274.1539 351.8847,277.1669 C348.6097,279.4849 344.8567,281.1119 341.2887,282.5259 C337.0467,284.2069 332.4397,285.7729 326.3497,287.6049 C321.3277,289.1219 316.5277,287.9839 312.4767,284.3199 C308.9147,281.0969 304.7147,278.6639 300.6547,276.3119 C299.5237,275.6559 298.3927,275.0009 297.2727,274.3279 L296.2557,273.7239 C294.0047,272.3909 291.6777,271.0119 289.8347,269.1479 C282.3977,261.6319 273.2317,256.7749 266.0767,253.3849 C259.8797,250.4489 253.2507,247.2419 246.7607,243.6819 C244.6547,242.5229 242.6487,241.1369 240.7087,239.7959 C238.7177,238.4219 236.6607,236.9999 234.5237,235.8489 C228.7917,232.7549 224.0697,229.2709 220.0907,225.1939 C217.6467,222.6919 216.0077,222.4989 212.1237,224.2459 C204.1087,227.8489 196.8667,232.8979 190.8387,237.3619 C186.8927,240.2829 183.2967,242.6279 179.8477,244.5279 C174.4357,247.5159 170.9567,252.3259 168.8987,259.6679 C168.6677,260.4889 168.4147,261.3089 168.1607,262.1269 C167.5687,264.0389 166.9567,266.0169 166.6717,267.9789 C165.9367,273.0139 165.7917,275.7899 170.8997,278.9889 C172.6747,280.0999 174.5167,281.1829 176.2967,282.2299 C177.7837,283.1039 179.2697,283.9789 180.7397,284.8789 C183.9157,286.8239 187.1837,289.0799 189.5747,292.3909 C191.9407,295.6659 192.3027,299.4259 190.6497,303.5659 C189.3977,306.6969 187.5827,309.3339 185.2547,311.4029 C185.1167,311.5239 184.9457,311.5839 184.7757,311.5839" id="Fill-6" fill="#2280A6"></path>
        <path d="M196.1,311.5849 C196.009,311.5849 195.917,311.5669 195.828,311.5309 C195.459,311.3809 195.284,310.9599 195.434,310.5919 C195.867,309.5319 196.325,308.4799 196.784,307.4269 C197.784,305.1329 198.817,302.7599 199.544,300.3589 C201.353,294.4039 200.154,290.0099 195.879,286.9219 C194.412,285.8619 192.876,284.8339 191.391,283.8399 C189.832,282.7959 188.221,281.7169 186.673,280.5929 C184.096,278.7209 181.371,276.7039 178.869,274.4489 C175.542,271.4509 175.352,267.3679 175.441,263.4429 C175.589,256.7919 178.028,251.8739 182.895,248.4079 C184.108,247.5459 185.317,246.6779 186.527,245.8099 C190.801,242.7419 195.221,239.5689 199.732,236.6879 C205.663,232.9019 211.79,232.6179 216.983,235.8829 C221.945,239.0049 227.048,242.7889 232.585,247.4539 C237.979,252.0029 242.313,254.5779 247.077,256.0659 C250.834,257.2389 254.586,258.4299 258.339,259.6199 C261.438,260.6029 264.537,261.5849 267.638,262.5589 C273.502,264.3989 277.874,267.2949 281.005,271.4109 C284.437,275.9179 288.319,279.0779 292.873,281.0719 L293.667,281.4199 C296.322,282.5759 299.067,283.7729 301.544,285.3599 C305.361,287.8059 308.025,291.4129 310.601,294.9009 C312.456,297.4099 314.652,298.5549 317.536,298.4549 C320.254,298.3759 322.861,297.5369 325.987,295.7349 C330.627,293.0599 335.887,290.0259 341.369,287.6939 C346.233,285.6239 351.347,283.3149 355.712,279.8889 C359.18,277.1709 362.051,274.9699 364.748,272.9599 C369.297,269.5719 373.72,268.1619 378.252,268.6469 C380.174,268.8549 382.209,269.2439 384.851,269.9129 C390.289,271.2889 395.944,273.1259 400.452,277.2199 C406.966,283.1309 413.537,286.9809 420.538,288.9879 C420.92,289.0979 421.142,289.4959 421.033,289.8779 C420.922,290.2599 420.525,290.4819 420.142,290.3719 C412.923,288.3019 406.165,284.3489 399.484,278.2859 C395.21,274.4039 389.755,272.6389 384.497,271.3089 C381.924,270.6569 379.951,270.2779 378.099,270.0789 C373.878,269.6279 369.912,270.9109 365.608,274.1139 C362.92,276.1159 360.059,278.3119 356.601,281.0219 C352.098,284.5559 346.885,286.9109 341.933,289.0199 C336.532,291.3169 331.311,294.3269 326.705,296.9819 C323.363,298.9099 320.547,299.8089 317.578,299.8949 C314.27,300.0009 311.574,298.6409 309.443,295.7569 C306.944,292.3739 304.361,288.8749 300.768,286.5719 C298.387,285.0479 295.695,283.8739 293.091,282.7379 L292.295,282.3909 C287.511,280.2959 283.444,276.9889 279.86,272.2819 C276.915,268.4119 272.777,265.6809 267.206,263.9329 C264.104,262.9589 261.003,261.9759 257.904,260.9919 C254.154,259.8029 250.404,258.6129 246.647,257.4399 C240.377,255.4809 235.343,251.6629 231.658,248.5549 C226.172,243.9339 221.121,240.1879 216.216,237.1019 C210.198,233.3159 204.352,235.4479 200.506,237.8999 C196.029,240.7619 191.624,243.9229 187.366,246.9799 C186.155,247.8489 184.944,248.7179 183.73,249.5809 C179.258,252.7659 177.018,257.3109 176.88,263.4769 C176.795,267.2169 176.956,270.7879 179.832,273.3799 C182.282,275.5879 184.973,277.5779 187.519,279.4279 C189.045,280.5359 190.645,281.6069 192.193,282.6439 C193.688,283.6449 195.234,284.6809 196.722,285.7549 C201.491,289.1989 202.904,294.2529 200.921,300.7769 C200.17,303.2569 199.12,305.6699 198.103,308.0029 C197.649,309.0449 197.195,310.0869 196.766,311.1369 C196.653,311.4159 196.383,311.5849 196.1,311.5849" id="Fill-8" fill="#2280A6"></path>
        <g id="Group-12" transform="translate(0.000000, 119.517000)">
            <mask id="mask-4" fill="white">
                <use xlink:href="#path-3"></use>
            </mask>
            <g id="Clip-11"></g>
            <path d="M130.4457,192.9996 L130.4327,192.9996 C129.6377,192.9926 128.9997,192.3436 129.0067,191.5486 C129.0687,184.2226 126.2987,178.3306 120.5387,173.5366 C118.3697,171.7336 116.3027,169.7716 114.3037,167.8746 C112.6267,166.2816 110.8907,164.6346 109.1247,163.1116 C107.4877,161.6986 105.6187,160.4346 103.8097,159.2106 C103.1807,158.7846 102.5517,158.3586 101.9297,157.9266 C98.4627,155.5136 96.2897,151.9706 95.0917,146.7756 C94.5537,144.4346 94.0997,142.0486 93.6607,139.7396 C93.1827,137.2286 92.6887,134.6306 92.0907,132.1186 C90.3947,124.9926 86.7017,121.1306 80.4667,119.9656 C76.6067,119.2436 72.6017,119.5646 67.4887,121.0046 C66.2407,121.3546 65.0037,121.7366 63.7667,122.1186 C62.2377,122.5916 60.6577,123.0786 59.0727,123.5016 C54.7827,124.6426 51.0407,124.1116 47.6277,121.8816 C42.7667,118.7066 37.6497,115.1356 33.1487,110.5336 C30.3047,107.6246 28.6997,104.1276 28.2407,99.8436 C27.7887,95.6366 28.3827,91.5846 28.9597,87.6656 C29.1187,86.5796 29.2787,85.4936 29.4157,84.4046 C30.1717,78.4426 30.6027,73.0946 28.2117,68.0066 C26.0627,63.4376 24.6167,58.6156 23.2177,53.9526 C22.8417,52.6986 22.4657,51.4426 22.0757,50.1906 C21.5327,48.4506 20.8957,46.6906 20.2807,44.9896 C19.9767,44.1516 19.6747,43.3136 19.3807,42.4736 C18.1487,38.9576 18.5087,35.2986 20.4817,31.2866 L21.1107,30.0196 C22.1367,27.9566 23.1987,25.8236 23.9527,23.6756 C25.6677,18.7736 24.1207,14.1266 20.0107,11.8376 C16.7707,10.0326 13.3077,8.4426 9.9587,6.9046 L7.9587,5.9836 C6.3757,5.2506 4.7067,4.5846 3.0927,3.9406 C2.3577,3.6476 1.6237,3.3546 0.8917,3.0536 C0.1567,2.7506 -0.1943,1.9106 0.1087,1.1746 C0.4107,0.4406 1.2487,0.0866 1.9877,0.3906 C2.7097,0.6876 3.4347,0.9776 4.1607,1.2666 C5.8097,1.9246 7.5147,2.6056 9.1677,3.3706 L11.1607,4.2886 C14.5587,5.8486 18.0747,7.4626 21.4127,9.3226 C26.8077,12.3276 28.8717,18.3346 26.6697,24.6276 C25.8567,26.9456 24.7547,29.1606 23.6877,31.3026 L23.0657,32.5576 C21.4287,35.8866 21.1217,38.7336 22.0967,41.5206 C22.3887,42.3536 22.6887,43.1816 22.9887,44.0106 C23.6147,45.7416 24.2617,47.5316 24.8237,49.3346 C25.2167,50.5966 25.5957,51.8606 25.9757,53.1256 C27.3437,57.6876 28.7587,62.4066 30.8167,66.7816 C33.5337,72.5616 33.0557,78.5866 32.2727,84.7666 C32.1327,85.8736 31.9697,86.9786 31.8077,88.0836 C31.2327,91.9966 30.6907,95.6926 31.1037,99.5356 C31.4967,103.2036 32.7997,106.0586 35.2077,108.5206 C39.5137,112.9236 44.4787,116.3866 49.2017,119.4716 C51.8917,121.2286 54.8807,121.6376 58.3317,120.7196 C59.8617,120.3116 61.4157,119.8316 62.9177,119.3676 C64.1767,118.9786 65.4377,118.5906 66.7087,118.2326 C72.1947,116.6866 76.7367,116.3376 80.9957,117.1366 C88.2797,118.4966 92.9557,123.3126 94.8907,131.4526 C95.5057,134.0276 96.0057,136.6576 96.4897,139.2026 C96.9237,141.4836 97.3727,143.8436 97.8977,146.1306 C98.9247,150.5846 100.7287,153.5826 103.5747,155.5626 C104.1857,155.9886 104.8047,156.4066 105.4247,156.8256 C107.2997,158.0966 109.2407,159.4086 111.0057,160.9316 C112.8237,162.4986 114.5847,164.1706 116.2867,165.7866 C118.2517,167.6516 120.2827,169.5806 122.3797,171.3236 C128.7567,176.6306 131.9547,183.4426 131.885825,191.5726 C131.8787,192.3636 131.2357,192.9996 130.4457,192.9996" id="Fill-10" fill="#2280A6" mask="url(#mask-4)"></path>
        </g>
        <path d="M203.4418,311.7978 C203.3478,311.7978 203.2538,311.7788 203.1618,311.7398 C202.7958,311.5858 202.6248,311.1628 202.7788,310.7968 L203.4998,309.0998 C204.0308,307.8498 204.5628,306.6008 205.0818,305.3468 C205.5058,304.3218 205.9438,303.3028 206.3798,302.2828 C207.4428,299.8068 208.5408,297.2438 209.4288,294.6728 C210.7858,290.7488 211.0618,286.9378 210.2498,283.3458 C209.4198,279.6698 206.6888,277.9198 202.5528,276.2878 L202.4268,276.2378 C197.6908,274.3658 192.7928,272.4308 189.0328,268.3928 C185.4448,264.5428 185.4668,257.5078 189.0788,253.9158 C193.4338,249.5878 197.5628,246.5998 202.0738,244.5138 C205.7438,242.8168 209.1488,242.8118 212.7938,244.4958 C217.0928,246.4848 220.6288,249.7288 223.9178,254.7048 C226.8608,259.1568 230.3888,261.5928 235.0198,262.3688 C237.0828,262.7158 239.1268,263.2728 241.1028,263.8108 C241.8928,264.0258 242.6828,264.2398 243.4748,264.4428 C249.7538,266.0488 255.4668,268.6418 260.4578,272.1508 L260.5698,272.2298 C262.7528,273.7648 265.2248,275.5038 265.5738,278.6978 C265.8398,281.1428 265.8368,283.3868 265.5648,285.3658 C265.0398,289.1638 264.6468,292.8838 265.5968,296.6358 C266.7438,301.1698 269.2658,305.1458 271.7058,308.9918 L272.6468,310.4828 C272.8588,310.8188 272.757445,311.2628 272.4208,311.4748 C272.0828,311.6868 271.6388,311.5838 271.4278,311.2468 L270.4898,309.7628 C267.9898,305.8208 265.4048,301.7458 264.2008,296.9888 C263.1878,292.9858 263.5928,289.1128 264.1388,285.1698 C264.3958,283.3068 264.3968,281.1818 264.1418,278.8548 C263.8648,276.3068 261.7688,274.8328 259.7418,273.4068 L259.6288,273.3278 C254.7818,269.9198 249.2268,267.4008 243.1188,265.8368 C242.3198,265.6328 241.5218,265.4158 240.7248,265.1988 C238.7828,264.6708 236.7728,264.1238 234.7818,263.7888 C229.7288,262.9418 225.8948,260.3078 222.7158,255.4988 C219.5818,250.7558 216.2358,247.6748 212.1888,245.8028 C208.9128,244.2868 205.9808,244.2918 202.6768,245.8198 C198.3248,247.8338 194.3258,250.7308 190.0938,254.9378 C186.9908,258.0238 186.9868,264.0858 190.0858,267.4108 C193.6248,271.2108 198.1578,273.0028 202.9568,274.8998 L203.0818,274.9488 C206.6658,276.3618 210.5788,278.2698 211.6538,283.0278 C212.5258,286.8848 212.2348,290.9608 210.7908,295.1428 C209.8838,297.7638 208.7758,300.3498 207.7038,302.8508 C207.2688,303.8648 206.8348,304.8788 206.4118,305.8978 C205.8908,307.1548 205.3578,308.4088 204.8248,309.6628 L204.1048,311.3578 C203.9888,311.6328 203.7218,311.7978 203.4418,311.7978" id="Fill-13" fill="#2280A6"></path>
        <path d="M60.8041,311.7978 C60.4731,311.7978 60.1751,311.5678 60.1021,311.2308 C60.0311,310.9038 59.9681,310.5768 59.9051,310.2498 C59.7781,309.5858 59.6581,308.9578 59.4741,308.3518 C59.0741,307.0388 58.6531,305.7328 58.2311,304.4248 C57.5171,302.2068 56.7781,299.9138 56.1561,297.6208 C55.1991,294.0778 56.2281,291.1288 59.1321,289.0908 C60.2661,288.2958 61.4031,287.5068 62.5391,286.7168 C64.4111,285.4158 66.2831,284.1148 68.1421,282.7948 C70.7331,280.9538 72.0301,278.9898 72.2221,276.6138 C72.3441,275.0948 72.3891,273.5318 72.4321,272.0208 C72.4851,270.2248 72.5371,268.3668 72.7201,266.5398 C72.8941,264.7928 73.2981,263.0658 73.6881,261.3938 C73.8491,260.7038 74.0101,260.0158 74.1561,259.3248 C74.3471,258.4118 74.8081,257.7048 75.4881,257.2788 C76.1731,256.8488 77.0451,256.7358 77.9501,256.9608 C79.1201,257.2528 80.3791,258.0458 81.2371,259.0298 C85.9661,264.4588 85.8321,270.9088 85.1871,275.9238 C84.6681,279.9858 85.6871,282.2568 88.5911,283.5138 C90.8151,284.4748 93.2621,285.0818 95.5761,285.5948 C101.4241,286.8908 106.5531,289.5408 111.2541,293.6978 C116.9441,298.7268 121.7691,303.4948 123.1801,310.9438 C123.2541,311.3338 122.9971,311.7108 122.6071,311.7838 C122.2191,311.8598 121.8391,311.6028 121.7661,311.2118 C120.4391,304.2108 115.7881,299.6268 110.3011,294.7768 C105.7861,290.7858 100.8681,288.2408 95.2651,286.9998 C92.8811,286.4718 90.3541,285.8438 88.0201,284.8348 C84.5151,283.3188 83.1601,280.4288 83.7591,275.7398 C84.6601,268.7358 83.5471,263.8738 80.1511,259.9758 C79.4881,259.2138 78.4871,258.5788 77.6021,258.3588 C77.0811,258.2288 76.6031,258.2788 76.2511,258.4988 C75.9071,258.7158 75.6751,259.0928 75.5641,259.6218 C75.4161,260.3218 75.2531,261.0218 75.0901,261.7208 C74.7101,263.3478 74.3181,265.0288 74.1521,266.6838 C73.9751,268.4588 73.9221,270.2908 73.8711,272.0628 C73.8271,273.5918 73.7821,275.1728 73.6581,276.7308 C73.4311,279.5248 71.9001,281.8918 68.9761,283.9688 C67.1141,285.2918 65.2371,286.5958 63.3611,287.8998 C62.2261,288.6878 61.0901,289.4768 59.9581,290.2698 C57.5611,291.9508 56.7491,294.2988 57.5451,297.2448 C58.1581,299.5038 58.8921,301.7818 59.6021,303.9838 C60.0251,305.2988 60.4491,306.6118 60.8511,307.9328 C61.0571,308.6128 61.1901,309.3068 61.3191,309.9788 C61.3791,310.2948 61.4401,310.6108 61.5081,310.9248 C61.5931,311.3138 61.3461,311.6958 60.9571,311.7808 C60.9071,311.7918 60.8551,311.7978 60.8041,311.7978" id="Fill-15" fill="#2280A6"></path>
        <g id="Group-19" transform="translate(318.000000, 277.517000)">
            <mask id="mask-6" fill="white">
                <use xlink:href="#path-5"></use>
            </mask>
            <g id="Clip-18"></g>
            <path d="M1.0238,34.0669 C0.8128,34.0669 0.6038,33.9749 0.4618,33.7969 C0.2128,33.4869 0.2638,33.0339 0.5748,32.7859 C1.6428,31.9309 2.7008,31.0609 3.7588,30.1909 C6.1288,28.2429 8.5798,26.2279 11.1238,24.4149 L11.6398,24.0459 C15.7918,21.0869 20.0838,18.0259 25.0558,16.0319 C33.7428,12.5479 39.9818,9.1219 45.2868,4.9229 C47.0798,3.5049 49.2238,2.5109 50.6818,1.8869 C54.2458,0.3609 57.8248,-0.1451 61.3268,0.3829 C66.7778,1.2039 71.9578,3.5049 77.1598,7.4199 C85.8528,13.9569 94.2258,18.3699 102.7548,20.9119 C103.1358,21.0259 103.3528,21.4259 103.2388,21.8069 C103.1268,22.1879 102.7348,22.4069 102.3428,22.2919 C93.6478,19.6999 85.1278,15.2119 76.2948,8.5699 C71.2878,4.8029 66.3218,2.5909 61.1118,1.8069 C57.8808,1.3189 54.5628,1.7919 51.2488,3.2109 C49.8668,3.8019 47.8378,4.7399 46.1788,6.0519 C40.7618,10.3399 34.4128,13.8299 25.5918,17.3669 C20.7798,19.2979 16.5578,22.3079 12.4748,25.2189 L11.9598,25.5869 C9.4558,27.3719 7.0248,29.3699 4.6728,31.3029 C3.6098,32.1769 2.5468,33.0509 1.4728,33.9099 C1.3408,34.0159 1.1818,34.0669 1.0238,34.0669" id="Fill-17" fill="#2280A6" mask="url(#mask-6)"></path>
        </g>
        <path d="M260.9183,311.7978 C260.6173,311.7978 260.3383,311.6088 260.2363,311.3078 C259.7153,309.7648 259.1773,308.2258 258.6393,306.6878 C257.3913,303.1198 256.1013,299.4318 255.0483,295.7308 C254.4323,293.5588 254.0883,291.2948 253.7563,289.1058 C253.5503,287.7528 253.3383,286.3528 253.0643,285.0008 C251.6373,277.9148 245.6073,273.1478 238.5053,273.4368 C234.1063,273.6068 230.4023,275.7088 226.8513,280.0548 C223.8143,283.7698 222.0233,288.0158 220.1253,292.5098 C219.8073,293.2648 219.4883,294.0198 219.1633,294.7728 C217.4833,298.6538 215.6093,302.5228 213.7973,306.2638 C213.0043,307.8988 212.2123,309.5328 211.4343,311.1738 C211.2643,311.5318 210.8363,311.6878 210.4753,311.5158 C210.1153,311.3448 209.9633,310.9148 210.1333,310.5558 C210.9133,308.9118 211.7073,307.2748 212.5013,305.6358 C214.3073,301.9078 216.1743,298.0548 217.8413,294.2008 C218.1653,293.4518 218.4813,292.7008 218.7993,291.9498 C220.6523,287.5598 222.5683,283.0198 225.7353,279.1438 C229.5673,274.4548 233.6073,272.1848 238.4493,271.9978 C245.1083,271.7418 252.7263,276.0268 254.4763,284.7158 C254.7563,286.1018 254.9713,287.5198 255.1793,288.8898 C255.5053,291.0338 255.8423,293.2528 256.4333,295.3378 C257.4743,298.9958 258.7563,302.6648 259.9973,306.2118 C260.5373,307.7548 261.0773,309.2988 261.6003,310.8468 C261.7283,311.2238 261.5253,311.6318 261.1483,311.7598 C261.0723,311.7848 260.9943,311.7978 260.9183,311.7978" id="Fill-20" fill="#2280A6"></path>
        <g id="Group-24" transform="translate(331.000000, 288.517000)">
            <mask id="mask-8" fill="white">
                <use xlink:href="#path-7"></use>
            </mask>
            <g id="Clip-23"></g>
            <path d="M1.4476,23.0669 C1.2696,23.0669 1.0916,23.0019 0.9516,22.8699 C0.6636,22.5949 0.6516,22.1399 0.9266,21.8519 C5.2606,17.2899 9.8646,14.0049 15.0036,11.8109 C16.1366,11.3279 17.2726,10.8459 18.4096,10.3659 C23.2406,8.3219 28.2356,6.2099 32.9716,3.8089 C38.6076,0.9559 44.5386,0.2829 51.1026,1.7539 C59.0006,3.5209 66.1026,7.4189 72.7006,11.2579 C78.0026,14.3419 83.4846,17.5299 89.6826,18.7049 C90.0736,18.7789 90.3306,19.1549 90.2566,19.5459 C90.1816,19.9369 89.7976,20.1959 89.4156,20.1189 C82.9736,18.8989 77.3836,15.6469 71.9756,12.5029 C65.4756,8.7189 58.4856,4.8809 50.7886,3.1589 C44.5596,1.7629 38.9466,2.3969 33.6226,5.0929 C28.8436,7.5159 23.8236,9.6379 18.9696,11.6919 C17.8356,12.1709 16.7006,12.6519 15.5686,13.1359 C10.6136,15.2509 6.1656,18.4259 1.9686,22.8429 C1.8276,22.9919 1.6376,23.0669 1.4476,23.0669" id="Fill-22" fill="#2280A6" mask="url(#mask-8)"></path>
        </g>
        <path d="M12.6742,94.7363 C9.0842,94.7363 5.7132,93.9363 2.3852,92.2963 C2.0282,92.1193 1.7442,91.8643 1.4942,91.6403 C1.3972,91.5533 1.3002,91.4653 1.1992,91.3853 C0.8892,91.1373 0.8382,90.6843 1.0862,90.3733 C1.3372,90.0623 1.7882,90.0133 2.0982,90.2603 C2.2202,90.3583 2.3382,90.4633 2.4552,90.5693 C2.6542,90.7473 2.8432,90.9163 3.0232,91.0053 C6.2992,92.6193 9.5942,93.3743 13.1722,93.2913 C18.7542,93.1703 22.5122,90.8843 24.6592,86.3023 C25.9462,83.5453 26.9902,80.6943 27.7602,77.8273 C29.5442,71.1683 28.9202,65.0893 25.9042,59.7593 C23.6902,55.8403 22.0282,51.7613 20.6942,48.2893 C19.3122,44.6953 17.9472,41.5243 15.2412,39.1083 C12.7822,36.9113 9.8802,35.5923 6.6142,34.2153 C5.3802,33.6953 4.1542,33.1503 2.9292,32.6053 L1.3592,31.9083 C0.9942,31.7483 0.8292,31.3233 0.9892,30.9593 C1.1512,30.5943 1.5752,30.4323 1.9392,30.5913 L3.5152,31.2893 C4.7312,31.8313 5.9472,32.3723 7.1742,32.8883 C10.5612,34.3173 13.5762,35.6903 16.2002,38.0333 C19.1472,40.6643 20.5872,44.0013 22.0372,47.7733 C23.3532,51.1963 24.9892,55.2133 27.1582,59.0503 C30.3662,64.7203 31.0362,71.1633 29.1512,78.2013 C28.3592,81.1483 27.2862,84.0793 25.9632,86.9123 C23.5942,91.9683 19.3012,94.5983 13.2032,94.7303 C13.0272,94.7343 12.8502,94.7363 12.6742,94.7363" id="Fill-25" fill="#2280A6"></path>
        <path d="M49.6839,311.5849 C49.4129,311.5849 49.1519,311.4299 49.0309,311.1669 C46.7909,306.3219 42.5209,303.7489 38.2399,301.6909 C33.8909,299.6029 29.6249,296.9569 27.8719,291.7789 C26.9689,289.1019 26.2669,286.0479 25.7259,282.4399 C24.1849,272.2239 20.8499,263.5419 15.5309,255.9009 C12.4159,251.4289 7.7519,248.5039 1.2729,246.9609 C0.8859,246.8679 0.6479,246.4809 0.7399,246.0939 C0.8319,245.7069 1.2199,245.4729 1.6069,245.5609 C8.4459,247.1889 13.3869,250.3029 16.7119,255.0789 C22.1609,262.9049 25.5749,271.7859 27.1499,282.2269 C27.6779,285.7489 28.3609,288.7239 29.2359,291.3179 C30.8179,295.9899 34.7979,298.4409 38.8629,300.3939 C43.1689,302.4639 47.9009,305.2909 50.3369,310.5629 C50.5039,310.9239 50.3469,311.3519 49.9859,311.5179 C49.8879,311.5639 49.7859,311.5849 49.6839,311.5849" id="Fill-27" fill="#2280A6"></path>
        <path d="M12.3959,224.0371 C10.8229,224.0371 9.2249,223.4361 7.7229,222.2711 C4.5909,219.8411 2.3889,217.1491 0.9929,214.0411 C0.8299,213.6791 0.9919,213.2531 1.3539,213.0891 C1.7159,212.9281 2.1429,213.0881 2.3049,213.4511 C3.6029,216.3391 5.6649,218.8511 8.6059,221.1341 C10.1239,222.3111 11.6519,222.7841 13.1599,222.5361 C14.9179,222.2461 16.6029,220.9531 18.0309,218.7951 C20.0419,215.7571 20.6849,212.1611 21.0489,209.0441 C21.7379,203.1741 20.1809,197.9961 16.4209,193.6561 C12.6499,189.3051 11.3919,184.0051 10.1749,178.8811 C8.9189,173.6031 6.2289,169.9871 1.9499,167.8271 C1.8729,167.7881 1.7259,167.7601 1.5839,167.7331 C1.4749,167.7121 1.3669,167.6901 1.2609,167.6641 C0.8749,167.5651 0.6439,167.1731 0.7429,166.7871 C0.8419,166.4021 1.2369,166.1711 1.6189,166.2691 C1.6959,166.2891 1.7759,166.3041 1.8549,166.3191 C2.0819,166.3621 2.3389,166.4121 2.5969,166.5411 C7.2799,168.9051 10.2159,172.8321 11.5759,178.5481 C12.7519,183.5041 13.9689,188.6281 17.5089,192.7141 C21.5439,197.3721 23.2169,202.9221 22.4789,209.2111 C22.0959,212.4961 21.4099,216.2991 19.2319,219.5901 C17.5769,222.0901 15.5579,223.6001 13.3929,223.9561 C13.0629,224.0111 12.7299,224.0371 12.3959,224.0371" id="Fill-29" fill="#2280A6"></path>
        <path d="M12.5033,85.5527 C11.0213,85.5527 9.3743,85.2917 7.5443,84.7777 C6.0333,84.3527 4.5553,83.7757 3.1253,83.2177 C2.4823,82.9667 1.8383,82.7157 1.1913,82.4777 C0.8183,82.3407 0.6273,81.9267 0.7643,81.5527 C0.9013,81.1797 1.3173,80.9907 1.6883,81.1257 C2.3443,81.3667 2.9963,81.6217 3.6493,81.8767 C5.0463,82.4217 6.4903,82.9867 7.9333,83.3917 C15.5043,85.5197 18.2163,82.5977 20.0203,79.1237 C22.1893,74.9497 22.3303,70.2817 20.4203,65.9787 L19.4733,63.8507 C17.2893,58.9567 15.0313,53.8967 13.3163,48.6837 C12.4723,46.1177 11.1803,44.0827 9.3683,42.4637 C7.1903,40.5187 4.6013,39.1057 1.2193,38.0167 C0.8413,37.8947 0.6333,37.4897 0.7543,37.1107 C0.8763,36.7317 1.2803,36.5207 1.6603,36.6467 C5.1913,37.7827 8.0253,39.3347 10.3273,41.3897 C12.3333,43.1817 13.7583,45.4207 14.6843,48.2337 C16.3763,53.3767 18.6183,58.4037 20.7873,63.2637 L21.7363,65.3947 C23.8273,70.1067 23.6723,75.2177 21.2973,79.7867 C19.2763,83.6787 16.4773,85.5527 12.5033,85.5527" id="Fill-31" fill="#2280A6"></path>
        <path d="M219.8031,311.7978 C219.7071,311.7978 219.6111,311.7778 219.5171,311.7378 C219.1531,311.5798 218.9851,311.1568 219.1421,310.7918 L219.3561,310.2858 C219.4941,309.9548 219.6321,309.6258 219.7841,309.3028 C220.3581,308.0908 220.9241,306.8758 221.4901,305.6618 C222.8321,302.7798 224.2211,299.8008 225.6891,296.9168 L226.3491,295.6098 C228.3481,291.6318 230.4151,287.5188 234.2861,284.7068 C236.3581,283.2038 238.3701,282.6188 240.2631,282.9638 C242.0571,283.2918 243.6641,284.4708 244.9121,286.3718 C245.7351,287.6248 246.2431,289.1078 246.6941,290.5178 C248.2201,295.3068 249.7171,300.1068 251.2131,304.9058 L253.0051,310.6498 C253.1241,311.0288 252.9131,311.4328 252.5331,311.5518 C252.1541,311.6698 251.7501,311.4588 251.6321,311.0788 L249.8381,305.3348 C248.3431,300.5378 246.8481,295.7398 245.3231,290.9548 C244.8851,289.5848 244.4321,288.2638 243.7091,287.1618 C242.6821,285.5988 241.4011,284.6358 240.0041,284.3808 C238.5091,284.1078 236.8711,284.6088 235.1321,285.8718 C231.5441,288.4778 229.5581,292.4318 227.6361,296.2558 L226.9721,297.5698 C225.5151,300.4318 224.1321,303.3998 222.7951,306.2698 C222.2281,307.4858 221.6601,308.7028 221.0861,309.9168 C220.9441,310.2198 220.8151,310.5288 220.6851,310.8408 L220.4641,311.3628 C220.3461,311.6348 220.0811,311.7978 219.8031,311.7978" id="Fill-33" fill="#2280A6"></path>
        <path d="M352.5872,311.5839 C352.3732,311.5839 352.1612,311.4889 352.0192,311.3079 C351.7752,310.9949 351.8292,310.5429 352.1432,310.2979 C352.6412,309.9069 353.1272,309.4939 353.6122,309.0809 C354.6942,308.1609 355.8142,307.2099 357.0832,306.5009 C365.6372,301.7369 373.8792,300.0319 382.2782,301.2829 C389.9562,302.4289 395.9232,305.4029 400.5212,310.3759 C400.7912,310.6679 400.7732,311.1239 400.4812,311.3929 C400.1912,311.6629 399.7332,311.6459 399.4642,311.3539 C395.0972,306.6299 389.4062,303.8019 382.0662,302.7069 C373.9942,301.5029 366.0502,303.1549 357.7842,307.7589 C356.6382,308.3979 355.6212,309.2629 354.5452,310.1779 C354.0442,310.6039 353.5442,311.0289 353.0292,311.4319 C352.8982,311.5339 352.7412,311.5839 352.5872,311.5839" id="Fill-35" fill="#2280A6"></path>
        <path d="M81.7787,311.7968 C81.6587,311.7968 81.5367,311.7678 81.4247,311.7038 C81.0787,311.5078 80.9577,311.0678 81.1537,310.7228 C81.5237,310.0678 81.8787,309.4028 82.2317,308.7368 C83.0077,307.2768 83.8107,305.7678 84.7907,304.3878 C89.0667,298.3558 96.6737,296.5358 103.2867,299.9668 C108.0347,302.4298 111.5327,305.9928 113.6847,310.5578 C113.8537,310.9168 113.7007,311.3458 113.3407,311.5158 C112.9837,311.6838 112.5517,311.5318 112.3827,311.1718 C110.3687,306.8988 107.0857,303.5588 102.6247,301.2448 C96.6657,298.1548 89.8157,299.7888 85.9647,305.2208 C85.0387,306.5258 84.2577,307.9928 83.5037,309.4128 C83.1427,310.0908 82.7827,310.7668 82.4057,311.4328 C82.2737,311.6658 82.0297,311.7968 81.7787,311.7968" id="Fill-37" fill="#2280A6"></path>
        <path d="M2.8861,71.6367 C2.6371,71.6367 2.3901,71.6317 2.1471,71.6257 C1.9101,71.6207 1.6751,71.6157 1.4401,71.6157 C1.0421,71.6157 0.7201,71.2937 0.7201,70.8957 C0.7201,70.4987 1.0421,70.1767 1.4401,70.1767 C1.6861,70.1767 1.9321,70.1817 2.1781,70.1867 C2.7041,70.1987 3.1991,70.2097 3.6861,70.1687 C5.3981,70.0207 6.5211,69.5967 7.1151,68.8717 C7.6111,68.2677 7.7851,67.3777 7.6481,66.1497 C7.5671,65.4147 7.4791,64.6807 7.3911,63.9477 C7.1731,62.1197 6.9481,60.2307 6.8241,58.3557 C6.4431,52.6087 5.3421,48.1067 1.2011,44.8197 C0.8901,44.5727 0.8381,44.1197 1.0851,43.8077 C1.3311,43.4967 1.7871,43.4457 2.0961,43.6917 C6.9191,47.5207 7.9081,52.9567 8.2591,58.2617 C8.3811,60.0977 8.6051,61.9677 8.8211,63.7767 C8.9081,64.5147 8.9971,65.2527 9.0791,65.9907 C9.2611,67.6237 8.9831,68.8647 8.2281,69.7847 C7.3741,70.8257 5.9291,71.4207 3.8081,71.6027 C3.4981,71.6287 3.1901,71.6367 2.8861,71.6367" id="Fill-39" fill="#2280A6"></path>
        <path d="M190.7611,126.5669 C185.2421,127.9699 181.0031,131.4969 177.0251,137.9929 C175.3321,140.7579 174.8741,144.0299 175.6631,147.7189 C176.9271,153.6289 178.3641,159.3209 182.0071,163.9899 C187.0231,170.4249 192.4851,174.8029 198.7031,177.3739 C202.2951,178.8579 206.4091,178.9219 211.6501,177.5799 C218.4201,175.8489 224.4601,172.5279 229.6041,167.7149 C231.1331,166.2859 232.7951,165.0279 234.0731,164.0909 C237.2801,161.7399 240.6411,161.5079 244.0651,163.3999 L246.6971,164.8579 C248.4741,165.8439 250.2491,166.8289 252.0351,167.8009 C257.3251,170.6779 263.0161,170.7279 269.4291,167.9519 C272.1721,166.7639 275.3111,165.2959 277.8541,162.8969 C279.5471,161.2989 281.3151,159.2779 281.5881,156.4099 C282.1331,150.7609 277.7771,148.9639 274.0261,148.4509 C269.9171,147.8879 265.6631,147.7409 261.5491,147.6009 L260.8911,147.5779 C260.2181,147.5539 259.5431,147.5249 258.8671,147.4969 C255.6201,147.3609 252.2631,147.2199 249.0751,147.6619 C244.8961,148.2419 241.1281,147.7709 237.5631,146.2209 C236.0711,145.5719 234.5751,144.8709 233.1291,144.1929 C230.6231,143.0179 228.0321,141.8029 225.4131,140.8459 C219.4581,138.6629 213.7761,135.7419 208.2801,132.9179 C205.5791,131.5299 202.7881,130.0949 200.0071,128.7709 C196.4341,127.0679 193.7021,126.4099 190.8991,126.5719 C190.8551,126.5739 190.8071,126.5739 190.7611,126.5669 M204.8621,179.9809 C202.4181,179.9809 200.2151,179.5559 198.1541,178.7039 C191.6981,176.0339 186.0451,171.5119 180.8721,164.8759 C177.0401,159.9659 175.5561,154.1009 174.2551,148.0199 C173.3991,144.0159 173.9321,140.2889 175.7961,137.2409 C178.4071,132.9789 182.7691,127.0879 190.4721,125.1549 C190.5661,125.1319 190.6591,125.1279 190.7531,125.1409 C190.7741,125.1379 190.7951,125.1359 190.8171,125.1349 C194.6991,124.9139 198.0981,126.2669 200.6261,127.4709 C203.4271,128.8049 206.2291,130.2449 208.9371,131.6369 C214.3951,134.4419 220.0371,137.3419 225.9081,139.4939 C228.5851,140.4729 231.2061,141.7019 233.7401,142.8909 C235.1781,143.5639 236.6631,144.2609 238.1371,144.8999 C241.4521,146.3419 244.9661,146.7779 248.8781,146.2359 C252.1941,145.7759 255.6161,145.9199 258.9281,146.0589 C259.6001,146.0869 260.2721,146.1149 260.9421,146.1389 L261.5991,146.1609 C265.7491,146.3039 270.0401,146.4509 274.2211,147.0249 C280.3171,147.8589 283.5251,151.3289 283.0221,156.5469 C282.7001,159.9089 280.6191,162.2669 278.8421,163.9439 C276.1291,166.5029 272.8561,168.0359 270.0011,169.2739 C263.1551,172.2359 257.0521,172.1679 251.3481,169.0659 C249.5581,168.0919 247.7791,167.1049 245.9971,166.1159 L243.3691,164.6589 C240.4401,163.0409 237.6761,163.2339 234.9241,165.2519 C233.6791,166.1649 232.0611,167.3899 230.5871,168.7659 C225.2661,173.7469 219.0141,177.1819 212.0071,178.9749 C209.3921,179.6449 207.0321,179.9809 204.8621,179.9809" id="Fill-41" fill="#2280A6"></path>
        <path d="M193.2923,139.1547 C187.7263,140.9707 186.0033,143.4697 185.6293,150.2227 C185.1223,159.4547 194.0263,169.1607 201.7373,171.0417 C205.2203,171.8917 208.7813,171.3047 212.3293,169.2967 C216.8023,166.7677 219.4923,163.8197 220.7983,160.0207 C222.3853,155.3947 221.3293,151.8507 217.4763,148.8697 C211.4533,144.2107 204.1383,141.0347 195.1133,139.1597 C194.7913,139.0937 194.4143,139.1137 194.0183,139.1357 C193.7723,139.1497 193.5213,139.1787 193.2923,139.1547 M204.8573,172.8617 C203.6993,172.8617 202.5453,172.7207 201.3963,172.4407 C193.1593,170.4317 183.6483,160.0367 184.1913,150.1427 C184.6003,142.7697 186.7273,139.7587 192.9433,137.7547 C193.0533,137.7177 193.1653,137.7127 193.2703,137.7267 C193.4793,137.6957 193.7133,137.7107 193.9383,137.6987 C194.4113,137.6727 194.8983,137.6457 195.4043,137.7497 C204.6493,139.6707 212.1573,142.9357 218.3563,147.7327 C222.7063,151.0957 223.9503,155.2677 222.1593,160.4877 C220.7333,164.6407 217.8353,167.8367 213.0383,170.5497 C210.3183,172.0877 207.5793,172.8617 204.8573,172.8617" id="Fill-43" fill="#2280A6"></path>
        <path d="M112.7435,151.3212 C109.7745,152.3342 107.7255,154.9072 107.2535,158.2232 C106.7375,161.8442 108.2965,165.3812 111.3225,167.4502 C114.1965,169.4172 117.3345,170.6672 120.9175,171.2712 C121.5735,171.3842 122.1575,171.3002 122.5175,171.0412 C122.7715,170.8582 122.9255,170.5862 122.9845,170.2072 C123.8905,164.5502 123.0355,159.8572 120.3695,155.8542 C119.4465,154.4702 118.1135,153.2712 116.9365,152.2142 C115.8485,151.2362 114.3895,151.2342 112.8665,151.3252 C112.8285,151.3262 112.7845,151.3262 112.7435,151.3212 M121.4675,172.7592 C121.2125,172.7592 120.9475,172.7372 120.6775,172.6912 C116.8855,172.0512 113.5585,170.7252 110.5105,168.6382 C107.0275,166.2572 105.2335,162.1882 105.8285,158.0192 C106.3765,154.1732 108.8895,151.0692 112.3895,149.9222 C112.5005,149.8862 112.6145,149.8792 112.7195,149.8942 C112.7405,149.8902 112.7615,149.8882 112.7825,149.8872 C114.4685,149.7902 116.3995,149.7952 117.8995,151.1422 C119.1395,152.2582 120.5445,153.5202 121.5675,155.0552 C124.4435,159.3752 125.3725,164.4042 124.4065,170.4322 C124.2865,171.1882 123.9245,171.8032 123.3575,172.2112 C122.8535,172.5722 122.1995,172.7592 121.4675,172.7592" id="Fill-45" fill="#2280A6"></path>
        <path d="M357.8392,159.7158 C357.6092,159.8668 357.3692,160.0118 357.1302,160.1558 C356.4932,160.5388 355.8922,160.9018 355.5212,161.3778 C355.1422,161.8688 354.9272,162.8118 355.0452,163.4738 C355.1222,163.9268 355.4122,164.1548 356.7822,164.1568 L356.7852,164.1568 C358.3952,164.1568 359.5502,163.3928 360.3162,161.8198 C360.5782,161.2798 360.6142,160.8498 360.4252,160.5418 C360.1132,160.0398 359.1482,159.7328 357.8392,159.7158 M356.7852,165.5968 L356.7802,165.5968 C355.9332,165.5958 353.9472,165.5918 353.6272,163.7208 C353.4402,162.6658 353.7572,161.3078 354.3832,160.4948 C354.9212,159.8058 355.6662,159.3578 356.3872,158.9228 C356.6672,158.7538 356.9462,158.5858 357.2092,158.4038 C357.3662,158.2948 357.5542,158.2588 357.7262,158.2838 C357.7612,158.2788 357.7732,158.2768 357.8402,158.2768 C360.2322,158.3008 361.2322,159.1108 361.6492,159.7848 C361.9702,160.3038 362.2242,161.1878 361.6102,162.4498 C360.6082,164.5088 358.9392,165.5968 356.7852,165.5968" id="Fill-47" fill="#2280A6"></path>
        <path d="M128.1957,174.3535 C126.9447,174.3535 126.2607,174.5285 125.9227,174.9295 C125.5327,175.3925 125.4647,176.3385 125.7197,177.7425 C125.7987,178.1655 125.8657,178.5995 125.9327,179.0385 C126.1717,180.5745 126.4177,182.1635 127.1557,183.2945 C129.4917,186.8615 132.6477,187.9365 137.3937,186.7765 C141.9907,185.6535 145.5147,183.0985 147.8697,179.1835 C148.6897,177.8235 148.8847,176.4455 148.3927,175.4975 C147.9337,174.6115 146.8587,174.0825 145.2847,173.9695 C144.4607,173.9115 143.6347,173.8035 142.8367,173.7005 C142.4557,173.6515 142.0737,173.6015 141.6907,173.5565 C141.6867,173.5565 141.6817,173.5555 141.6777,173.5555 C141.5297,173.5945 141.3817,173.6395 141.2327,173.6845 C140.8187,173.8115 140.3907,173.9425 139.9167,173.9645 C139.0497,174.0025 138.1827,174.0455 137.3157,174.0885 C134.3777,174.2335 131.3377,174.3815 128.3417,174.3535 L128.1957,174.3535 Z M134.0337,188.6645 C130.5847,188.6645 127.9677,187.1645 125.9507,184.0825 C125.0427,182.6905 124.7717,180.9455 124.5097,179.2575 C124.4447,178.8325 124.3797,178.4125 124.3037,178.0005 C123.9587,176.1015 124.1227,174.8325 124.8217,174.0015 C125.6467,173.0235 127.0007,172.9085 128.3547,172.9145 C131.3037,172.9435 134.3267,172.7945 137.2457,172.6505 C138.1137,172.6075 138.9827,172.5655 139.8507,172.5265 C140.1427,172.5125 140.4677,172.4135 140.8117,172.3075 C141.0047,172.2495 141.1977,172.1905 141.3907,172.1435 C141.4837,172.1195 141.5777,172.1165 141.6687,172.1295 C141.7287,172.1215 141.7927,172.1205 141.8567,172.1275 C142.2457,172.1715 142.6337,172.2225 143.0217,172.2725 C143.7997,172.3745 144.6047,172.4775 145.3877,172.5345 C148.0407,172.7245 149.1807,173.8905 149.6717,174.8335 C150.3957,176.2305 150.1827,178.1335 149.1027,179.9265 C146.5437,184.1825 142.7177,186.9575 137.7357,188.1745 C136.4057,188.4995 135.1737,188.6645 134.0337,188.6645 L134.0337,188.6645 Z" id="Fill-49" fill="#2280A6"></path>
        <path d="M325.8597,181.1084 C323.6577,181.8214 322.4557,182.9794 322.0797,184.7474 C321.8077,186.0124 321.9927,186.7584 322.6307,186.9664 C323.3557,187.2034 324.5357,187.0594 325.0067,186.6754 C326.1087,185.7794 326.8887,184.4134 327.3497,183.4234 C327.6987,182.6704 327.8077,182.1264 327.6637,181.8514 C327.4997,181.5394 326.8927,181.2894 325.8597,181.1084 M323.4717,188.5194 C323.0017,188.5194 322.5517,188.4554 322.1837,188.3364 C321.3637,188.0674 320.0787,187.2074 320.6717,184.4464 C321.1577,182.1594 322.7887,180.5644 325.5187,179.7074 C325.6267,179.6724 325.7337,179.6654 325.8397,179.6804 C325.9137,179.6704 325.9887,179.6714 326.0677,179.6834 C327.1997,179.8784 328.4257,180.2084 328.9377,181.1824 C329.4317,182.1214 329.0127,183.2574 328.6557,184.0304 C328.1307,185.1584 327.2287,186.7234 325.9157,187.7934 C325.2957,188.2964 324.3477,188.5194 323.4717,188.5194" id="Fill-51" fill="#2280A6"></path>
        <path d="M102.8646,194.0478 C101.0256,194.0478 99.1596,194.8768 97.1996,196.5368 C95.4406,198.0278 94.1076,200.2378 92.9306,202.1898 C91.9856,203.7548 92.5356,206.0038 94.1816,207.3088 C97.1686,209.6738 100.7376,210.3658 104.5166,211.1008 L104.7826,211.1528 C105.1536,211.2258 105.5216,211.3158 105.8896,211.4048 C106.5006,211.5538 107.0766,211.6948 107.6556,211.7558 C112.7606,212.2898 115.8466,215.5338 116.8296,221.3978 C117.4276,224.9738 117.7856,228.6388 118.1326,232.1838 C118.2736,233.6338 118.4156,235.0838 118.5736,236.5308 C118.7956,238.5748 119.0056,240.6208 119.2156,242.6668 C119.6636,247.0498 120.1286,251.5818 120.7166,256.0168 C121.1166,259.0328 122.5596,262.0008 125.1306,265.0908 C128.5576,269.2078 133.3966,274.1128 140.4526,275.5108 C145.9716,276.6058 149.0826,276.2108 152.9096,270.9838 C156.4926,266.0908 159.4126,260.6448 161.5876,254.7938 C164.4126,247.1838 169.2776,241.7618 176.4616,238.2208 C181.9896,235.4948 187.2306,231.7468 192.0406,227.0788 C194.1046,225.0758 196.2286,223.0928 198.3536,221.1868 C201.2316,218.6008 202.6236,215.5658 202.3776,212.4068 C202.1206,209.1048 199.9906,205.9218 196.5336,203.6748 C193.3776,201.6238 190.0926,199.6448 186.9166,197.7298 C185.4456,196.8448 183.9746,195.9578 182.5106,195.0618 C181.9176,194.6968 181.3276,194.3258 180.7376,193.9558 C179.5446,193.2058 178.3096,192.4298 177.0696,191.7298 C173.8796,189.9238 170.3056,189.1968 166.1566,189.5008 C166.1186,189.5038 166.0796,189.5038 166.0456,189.5008 C164.9966,189.9398 163.9396,190.3588 162.8826,190.7778 C160.5056,191.7218 158.0476,192.6968 155.7596,193.8728 C148.6956,197.5048 141.1716,200.2818 133.8946,202.9698 L133.6206,203.0698 C129.8886,204.4508 126.5076,205.5498 123.2816,206.4288 C119.9116,207.3448 117.0406,206.3698 114.7466,203.5268 C112.5366,200.7878 110.5106,198.3548 108.1146,196.3088 C106.3486,194.8018 104.6186,194.0478 102.8646,194.0478 M144.5776,277.4388 C143.2316,277.4388 141.7816,277.2418 140.1736,276.9238 C132.6746,275.4388 127.6026,270.3118 124.0236,266.0118 C121.2746,262.7068 119.7256,259.4998 119.2886,256.2068 C118.6976,251.7498 118.2326,247.2068 117.7826,242.8138 C117.5736,240.7708 117.3636,238.7288 117.1416,236.6868 C116.9836,235.2348 116.8416,233.7788 116.6996,232.3228 C116.3546,228.8028 115.9996,225.1628 115.4096,221.6358 C114.5346,216.4158 111.9496,213.6528 107.5056,213.1878 C106.8296,213.1158 106.1776,212.9568 105.5486,212.8038 C105.2016,212.7198 104.8546,212.6338 104.5056,212.5658 L104.2426,212.5148 C100.4606,211.7788 96.5496,211.0198 93.2876,208.4378 C91.0846,206.6908 90.3856,203.6188 91.6986,201.4448 C92.9316,199.4008 94.3296,197.0818 96.2686,195.4388 C100.6756,191.7078 104.8566,191.6338 109.0496,195.2138 C111.5406,197.3408 113.6106,199.8268 115.8676,202.6218 C117.7936,205.0118 120.0926,205.8048 122.9036,205.0398 C126.0876,204.1728 129.4286,203.0858 133.1216,201.7198 L133.3956,201.6178 C140.6326,198.9468 148.1156,196.1848 155.1006,192.5928 C157.4506,191.3848 159.9416,190.3968 162.3506,189.4408 C163.4426,189.0068 164.5346,188.5728 165.6166,188.1198 C165.7416,188.0668 165.8756,188.0528 165.9996,188.0708 C166.0166,188.0688 166.0336,188.0668 166.0516,188.0658 C170.4976,187.7378 174.3316,188.5268 177.7786,190.4768 C179.0476,191.1938 180.2966,191.9778 181.5046,192.7368 C182.0896,193.1048 182.6746,193.4728 183.2626,193.8338 C184.7236,194.7288 186.1916,195.6118 187.6596,196.4968 C190.8456,198.4168 194.1406,200.4028 197.3186,202.4678 C201.1536,204.9608 203.5206,208.5428 203.8126,212.2958 C204.0916,215.8648 202.4936,219.4028 199.3156,222.2578 C197.2046,224.1518 195.0936,226.1218 193.0426,228.1118 C188.1256,232.8848 182.7606,236.7208 177.0976,239.5118 C170.2606,242.8828 165.6286,248.0458 162.9366,255.2948 C160.7156,261.2708 157.7326,266.8338 154.0716,271.8338 C150.9896,276.0428 148.1576,277.4388 144.5776,277.4388" id="Fill-53" fill="#2280A6"></path>
        <path d="M270.474,194.8593 C267.403,194.8593 264.348,195.7913 261.344,197.6503 C258.5,199.4063 255.897,201.7183 253.38,203.9543 L252.82,204.4523 C250.834,206.2123 248.89,208.0983 247.009,209.9223 C245.87,211.0263 244.732,212.1303 243.578,213.2163 C240.581,216.0323 240.237,219.7533 242.632,223.4253 C248.275,232.0673 255.769,237.8843 265.542,241.2113 C272.265,243.5003 278.356,247.1973 283.537,250.4833 L285.005,251.4133 C287.515,252.9993 290.111,254.6393 292.575,256.3963 C295.626,258.5713 299.238,259.9433 303.616,260.5883 C308.598,261.3233 312.902,263.3943 316.773,266.9223 C321.043,270.8113 325.054,272.8673 329.394,273.3923 C340.548,274.7543 348.329,271.7933 353.874,264.0783 C354.667,262.9743 355.408,261.7893 356.122,260.6433 C356.626,259.8373 357.13,259.0303 357.658,258.2393 C359.591,255.3383 362.586,253.6223 366.56,253.1403 C368.585,252.8953 370.646,252.7733 372.64,252.6553 C374.501,252.5463 376.427,252.4313 378.301,252.2173 C379.039,252.1333 379.78,252.0663 380.52,251.9993 C383.28,251.7473 385.886,251.5093 388.397,250.4453 C392.465,248.7173 393.508,247.0143 393.25,242.5213 C393.034,238.6873 391.985,235.0053 390.884,231.5983 C389.578,227.5673 386.91,224.7543 382.952,223.2343 C382.095,222.9063 381.226,222.6073 380.358,222.3093 C379.276,221.9373 378.158,221.5523 377.072,221.1123 C371.413,218.8033 367.906,214.3203 366.347,207.4053 C365.783,204.9133 365.213,202.4813 364.461,200.1293 C363.028,195.6343 360.931,194.1183 356.151,194.1183 L354.053,194.1183 C354.022,194.1183 353.992,194.1163 353.961,194.1123 C345.295,196.4053 342.394,203.3813 340.551,210.5833 C339.044,216.4703 340.354,221.3143 344.444,224.9783 C346.883,227.1653 349.448,229.5253 351.622,232.2153 C354.433,235.6833 355.279,240.0393 354.134,245.1593 C353.544,247.7983 351.896,249.8223 349.495,250.8573 C344.633,252.9513 339.331,254.8963 333.506,254.9623 C330.196,254.9833 327.216,253.8643 324.653,251.5953 C322.556,249.7373 320.483,247.7893 318.479,245.9063 C316.583,244.1253 314.622,242.2833 312.652,240.5253 C309.89,238.0613 307.867,234.8363 306.638,230.9393 C304.846,225.2443 301.539,220.5423 298.541,216.6933 C297.389,215.2133 296.303,213.6523 295.253,212.1433 C293.126,209.0873 290.927,205.9263 288.118,203.3753 C284.153,199.7753 280.116,197.2923 275.776,195.7823 C274.008,195.1673 272.239,194.8593 270.474,194.8593 M334.429,275.1563 C332.775,275.1563 331.039,275.0453 329.22,274.8223 C324.57,274.2583 320.306,272.0873 315.803,267.9873 C312.151,264.6583 308.096,262.7043 303.406,262.0123 C298.797,261.3333 294.981,259.8803 291.739,257.5693 C289.307,255.8353 286.729,254.2063 284.236,252.6303 L282.765,251.6993 C277.655,248.4583 271.652,244.8123 265.078,242.5743 C255.129,239.1873 247.171,233.0093 241.427,224.2123 C238.654,219.9603 239.089,215.4583 242.591,212.1683 C243.741,211.0883 244.873,209.9883 246.007,208.8883 C247.899,207.0533 249.856,205.1553 251.865,203.3753 L252.424,202.8783 C254.987,200.6013 257.637,198.2473 260.587,196.4253 C265.633,193.3043 271.049,192.6123 276.248,194.4233 C280.775,195.9973 284.974,198.5763 289.085,202.3083 C292.016,204.9693 294.262,208.1993 296.435,211.3213 C297.474,212.8143 298.549,214.3583 299.678,215.8083 C302.754,219.7583 306.151,224.5943 308.011,230.5063 C309.161,234.1533 311.044,237.1623 313.611,239.4513 C315.595,241.2203 317.562,243.0693 319.464,244.8573 C321.461,246.7333 323.527,248.6733 325.607,250.5173 C327.861,252.5113 330.469,253.5223 333.361,253.5223 L333.491,253.5223 C339.062,253.4603 344.201,251.5693 348.924,249.5363 C350.919,248.6743 352.236,247.0523 352.73,244.8443 C353.773,240.1753 353.024,236.2313 350.503,233.1213 C348.395,230.5133 345.879,228.1983 343.483,226.0503 C338.961,222.0003 337.505,216.6753 339.157,210.2253 C341.02,202.9463 344.201,195.1713 353.664,192.7033 C353.759,192.6773 353.859,192.6733 353.95,192.6863 C353.984,192.6813 354.018,192.6783 354.053,192.6783 L356.151,192.6783 C361.508,192.6783 364.223,194.6443 365.832,199.6903 C366.602,202.0983 367.179,204.5633 367.751,207.0883 C369.199,213.5103 372.425,217.6613 377.614,219.7783 C378.662,220.2043 379.762,220.5823 380.826,220.9483 C381.71,221.2523 382.594,221.5553 383.467,221.8903 C387.851,223.5733 390.807,226.6903 392.253,231.1563 C393.384,234.6553 394.461,238.4433 394.688,242.4403 C394.981,247.5373 393.588,249.8043 388.959,251.7703 C386.242,252.9233 383.399,253.1813 380.651,253.4323 C379.921,253.4993 379.192,253.5653 378.465,253.6483 C376.551,253.8663 374.606,253.9823 372.725,254.0923 C370.752,254.2093 368.714,254.3303 366.734,254.5693 C363.196,254.9993 360.545,256.5023 358.855,259.0383 C358.336,259.8163 357.84,260.6113 357.344,261.4063 C356.617,262.5713 355.864,263.7763 355.044,264.9183 C350.073,271.8363 343.443,275.1563 334.429,275.1563" id="Fill-55" fill="#2280A6"></path>
        <path d="M166.0277,197.0498 C164.0117,197.7488 161.9897,198.4318 159.9667,199.1148 C155.2367,200.7138 150.3437,202.3658 145.6217,204.1958 C139.4647,206.5838 135.2667,209.2238 132.0097,212.7538 C128.8437,216.1878 127.0677,220.3098 126.5807,225.3548 L126.5307,225.8618 C126.2347,228.9068 125.9277,232.0558 126.1997,235.0708 L126.2367,235.4918 C126.9247,243.2888 127.6367,251.3508 132.5307,257.9698 C133.8637,259.7698 135.4017,261.2988 136.9767,262.3908 C139.5537,264.1748 142.4597,264.1838 145.3817,262.4168 C149.6317,259.8448 152.3207,255.9138 154.3897,252.4078 C156.0867,249.5298 158.0007,246.5518 160.0787,243.5558 C163.1287,239.1488 167.6717,236.5958 172.0637,234.1268 C179.1427,230.1468 184.2677,224.9548 187.7317,218.2538 C189.7557,214.3358 189.4387,211.0558 186.7367,207.9318 C182.3077,202.8078 178.3217,199.6888 173.8107,197.8178 C171.9277,197.0358 169.9917,197.0488 167.9437,197.0638 C167.3247,197.0678 166.7037,197.0718 166.0837,197.0538 C166.0637,197.0528 166.0467,197.0528 166.0277,197.0498 M141.0657,265.1918 C139.3677,265.1918 137.7157,264.6528 136.1567,263.5728 C134.4537,262.3938 132.7997,260.7518 131.3737,258.8258 C126.2387,251.8808 125.5087,243.6138 124.8027,235.6188 L124.7657,235.1978 C124.4817,232.0508 124.7957,228.8338 125.0977,225.7218 L125.1467,225.2158 C125.6597,219.9208 127.6117,215.3998 130.9517,211.7788 C134.3647,208.0778 138.7287,205.3248 145.1007,202.8548 C149.8537,201.0128 154.7607,199.3548 159.5067,197.7508 C161.5597,197.0578 163.6127,196.3638 165.6587,195.6538 C165.7717,195.614719 165.8887,195.6068 165.9997,195.6218 C166.0397,195.6158 166.0807,195.614719 166.1247,195.614719 C166.7287,195.6328 167.3327,195.6278 167.9337,195.6238 C170.0287,195.6118 172.2097,195.5948 174.3627,196.4878 C180.4227,199.0008 184.7407,203.4208 187.8267,206.9898 C190.9197,210.5668 191.3067,214.4678 189.0107,218.9148 C185.4147,225.8738 180.1007,231.2598 172.7687,235.3818 C168.5187,237.7708 164.1237,240.2408 161.2617,244.3758 C159.2037,247.3428 157.3087,250.2918 155.6307,253.1408 C153.4687,256.8008 150.6497,260.9108 146.1277,263.6488 C144.4257,264.6778 142.7237,265.1918 141.0657,265.1918" id="Fill-57" fill="#2280A6"></path>
        <path d="M267.556,201.665 C260.669,204.168 256.375,209.338 254.431,217.466 C253.866,219.828 254.234,222.191 255.555,224.692 C257.108,227.634 259.497,229.852 262.464,231.107 C265.598,232.43 269.042,233.197 272.702,233.391 C274.435,233.479 276.191,233.616 277.889,233.748 C280.173,233.926 282.535,234.109 284.854,234.178 C286.915,234.242 288.562,233.711 289.727,232.607 C290.949,231.449 291.624,229.636 291.679,227.362 C291.75,224.375 290.829,221.599 289.825,219.043 C287.034,211.948 282.678,206.779 276.509,203.24 C273.695,201.624 270.594,201.528 267.663,201.668 C267.627,201.668 267.591,201.668 267.556,201.665 M285.16,235.622 C285.045,235.622 284.928,235.62 284.811,235.617 C282.458,235.548 280.078,235.362 277.777,235.184 C276.088,235.052 274.342,234.916 272.627,234.828 C268.8,234.627 265.193,233.821 261.904,232.434 C258.627,231.047 255.992,228.603 254.282,225.365 C252.789,222.541 252.38,219.849 253.031,217.13 C255.108,208.451 259.735,202.936 267.177,200.27 C267.293,200.229 267.411,200.22 267.525,200.236 C267.548,200.232 267.572,200.23 267.595,200.229 C270.743,200.082 274.09,200.191 277.226,201.992 C283.6,205.648 288.289,211.208 291.164,218.516 C292.225,221.212 293.196,224.153 293.118,227.397 C293.054,230.062 292.223,232.226 290.717,233.652 C289.353,234.944 287.437,235.622 285.16,235.622" id="Fill-59" fill="#2280A6"></path>
        <path d="M162.6429,206.6943 C162.6389,206.6953 162.6339,206.6963 162.6299,206.6963 C161.9349,206.7873 161.2369,206.8673 160.5389,206.9483 C159.0969,207.1153 157.6059,207.2863 156.1679,207.5483 C146.3369,209.3323 140.2419,213.4653 136.9849,220.5543 C133.4459,228.2653 135.7249,237.7293 142.1739,242.0993 C144.6299,243.7623 147.1049,243.7543 149.5279,242.0763 C151.6769,240.5893 153.8169,238.9983 155.8849,237.4593 C157.1919,236.4883 158.4969,235.5173 159.8149,234.5633 C161.4549,233.3763 163.1069,232.2063 164.7599,231.0363 C166.2579,229.9753 167.7569,228.9153 169.2459,227.8403 C171.9149,225.9163 173.6609,222.9333 174.1579,219.4443 C174.6369,216.0823 173.8509,212.7013 172.0539,210.4003 C170.5259,208.4413 168.4789,207.3963 165.6149,207.1123 C164.9259,207.0453 164.2399,206.9383 163.5529,206.8323 C163.2509,206.7863 162.9489,206.7383 162.6459,206.6953 C162.6449,206.6953 162.6439,206.6953 162.6429,206.6943 M145.8459,244.7843 C144.3429,244.7843 142.8359,244.2873 141.3669,243.2923 C134.3519,238.5383 131.8519,228.2873 135.6759,219.9543 C139.1469,212.3983 145.5769,208.0063 155.9109,206.1313 C157.3939,205.8613 158.9099,205.6863 160.3739,205.5173 C161.0659,205.4373 161.7559,205.3583 162.4449,205.2693 C162.5119,205.2603 162.5799,205.2613 162.6429,205.2703 C162.7109,205.2603 162.7819,205.2603 162.8499,205.2703 C163.1589,205.3143 163.4659,205.3623 163.7739,205.4093 C164.4339,205.5113 165.0929,205.6153 165.7559,205.6793 C168.9959,206.0013 171.4259,207.2563 173.1889,209.5153 C175.2209,212.1173 176.1169,215.9053 175.5819,219.6473 C175.0299,223.5283 173.0789,226.8523 170.0869,229.0083 C168.5949,230.0853 167.0939,231.1473 165.5919,232.2113 C163.9429,233.3783 162.2939,234.5453 160.6589,235.7293 C159.3459,236.6793 158.0449,237.6473 156.7449,238.6143 C154.6649,240.1603 152.5159,241.7583 150.3479,243.2593 C148.8799,244.2763 147.3649,244.7843 145.8459,244.7843" id="Fill-61" fill="#2280A6"></path>
        <path d="M353.5619,207.5595 C352.4729,208.1345 351.6329,209.2625 351.2979,210.6155 C350.9579,211.9875 351.1939,213.3395 351.9429,214.3255 C352.6809,215.2965 353.8329,216.0495 354.8619,216.6595 C355.3779,216.9675 355.9559,217.0165 356.4089,216.7885 C356.7879,216.5965 357.0219,216.2345 357.0669,215.7695 C357.3239,213.1275 357.2569,210.1415 354.8209,208.0175 C354.6539,207.8715 354.3329,207.7835 353.9959,207.6885 C353.8489,207.6475 353.7039,207.6055 353.5619,207.5595 M355.7909,218.3715 C355.2299,218.3715 354.6539,218.2115 354.1259,217.8965 C352.9789,217.2175 351.6849,216.3655 350.7959,215.1965 C349.7829,213.8625 349.4559,212.0665 349.9009,210.2695 C350.3569,208.4285 351.5619,206.8955 353.1249,206.1695 C353.2559,206.1095 353.3969,206.0915 353.5319,206.1105 C353.6479,206.0945 353.7699,206.1045 353.8889,206.1485 C354.0469,206.2075 354.2149,206.2545 354.3839,206.3025 C354.8389,206.4295 355.3539,206.5745 355.7659,206.9325 C358.6959,209.4855 358.7919,212.9025 358.4999,215.9085 C358.4069,216.8685 357.8809,217.6575 357.0579,218.0735 C356.6659,218.2725 356.2329,218.3715 355.7909,218.3715" id="Fill-63" fill="#2280A6"></path>
        <path d="M270.0755,212.1533 C267.9555,212.9383 267.0765,214.4433 267.0485,217.3183 C267.0345,219.0363 267.8415,220.1133 269.8335,221.0343 C271.3945,221.7543 273.4175,221.5213 274.9905,220.4423 C276.1945,219.6163 276.8435,218.4923 276.7695,217.3573 C276.5925,214.5563 274.0385,212.1763 271.1925,212.1583 L270.1485,212.1573 C270.1245,212.1573 270.0995,212.1553 270.0755,212.1533 M271.7905,222.8823 C270.8955,222.8823 270.0185,222.7053 269.2295,222.3413 C267.6635,221.6173 265.5845,220.3073 265.6085,217.3043 C265.6305,215.1053 266.0785,212.0363 269.7005,210.7573 C269.8155,210.7173 269.9325,210.7093 270.0445,210.7243 C270.0785,210.7193 270.1135,210.7163 270.1485,210.7163 L270.3885,210.7163 L271.2045,210.7193 C274.8365,210.7423 277.9785,213.6783 278.2075,217.2653 C278.3125,218.9203 277.4365,220.5093 275.8045,221.6293 C274.5995,222.4563 273.1745,222.8823 271.7905,222.8823" id="Fill-65" fill="#2280A6"></path>
        <path d="M369.5013,230.1933 C367.2943,230.9903 366.9333,231.5323 366.9423,233.8803 C366.9563,236.5143 367.8323,238.5323 369.6203,240.0473 C370.7123,240.9733 372.5083,241.2863 374.3063,240.8613 C376.0453,240.4503 377.4023,239.4613 377.9363,238.2143 C378.7723,236.2533 377.6423,233.6213 375.2483,231.9603 C373.4893,230.7453 371.6053,230.1473 369.5933,230.1973 C369.5593,230.1993 369.5303,230.1973 369.5013,230.1933 M372.7143,242.4903 C371.1563,242.4903 369.7283,242.0253 368.6893,241.1453 C366.5913,239.3673 365.5193,236.9243 365.5033,233.8863 C365.4893,230.8723 366.2343,229.8263 369.1243,228.7983 C369.2393,228.7583 369.3593,228.7493 369.4713,228.7653 C369.5003,228.7603 369.5293,228.7583 369.5603,228.7573 C371.8663,228.7143 374.0543,229.3833 376.0673,230.7773 C379.0213,232.8263 380.3633,236.1913 379.2603,238.7793 C378.5473,240.4453 376.8183,241.7473 374.6363,242.2613 C373.9863,242.4153 373.3393,242.4903 372.7143,242.4903" id="Fill-67" fill="#2280A6"></path>
        <g id="Group-71" transform="translate(57.000000, 0.517000)">
            <mask id="mask-10" fill="white">
                <use xlink:href="#path-9"></use>
            </mask>
            <g id="Clip-70"></g>
            <path d="M18.4711,3.4346 C15.0001,4.4306 12.8671,7.0796 10.6381,10.1786 C6.4611,15.9906 4.0871,22.6566 3.5831,29.9926 C3.4471,31.9626 3.3361,34.0476 3.6011,35.9846 C3.9931,38.8496 5.5071,40.3066 8.6631,40.8546 C9.2731,40.9606 9.8871,41.0586 10.5001,41.1556 C12.2091,41.4266 13.9771,41.7076 15.7021,42.1696 C21.1011,43.6166 24.0251,46.3996 24.6421,50.6786 C24.9851,53.0636 24.8501,55.8156 24.2291,59.0926 C23.8471,61.1186 23.1281,63.0536 22.4341,64.9246 C22.1951,65.5706 21.9541,66.2166 21.7301,66.8646 C20.5801,70.1616 20.5771,73.5016 21.7211,77.0796 C22.3811,79.1536 24.3351,81.5336 27.6871,81.5336 C27.7521,81.5336 27.8191,81.5326 27.8841,81.5316 C34.4111,81.3486 40.8171,79.8036 47.4641,76.8096 C49.0951,76.0746 50.7401,75.2636 52.3301,74.4776 C54.9261,73.1976 57.6111,71.8726 60.3771,70.8076 C62.1881,70.1096 64.1141,69.9036 65.9761,69.7046 C66.8851,69.6076 67.7431,69.5156 68.5861,69.3706 C69.4071,69.2296 70.2251,69.1396 71.0171,69.0526 C72.8551,68.8496 74.5911,68.6586 76.1811,67.8696 C78.3151,66.8126 79.5111,65.0056 79.9471,62.1816 C80.2481,60.2336 80.4011,58.2016 80.5481,56.2366 C80.6331,55.0986 80.7191,53.9606 80.8311,52.8266 C80.9411,51.7266 81.0781,50.6276 81.2161,49.5296 C81.3731,48.2736 81.5361,46.9756 81.6491,45.7066 C82.0561,41.0536 80.1631,37.1776 75.6911,33.5096 C69.7291,28.6276 63.0771,25.3446 55.0001,21.5596 C43.9671,16.3906 34.5771,11.2856 26.2951,5.9536 C23.8981,4.4086 21.5091,3.0566 18.6721,3.4226 C18.6051,3.4316 18.5451,3.4376 18.4711,3.4346 M27.6931,84.4136 C23.6371,84.4136 20.2351,81.9026 18.9781,77.9546 C17.6381,73.7626 17.6481,69.8246 19.0101,65.9176 C19.2421,65.2526 19.4881,64.5876 19.7351,63.9236 C20.4171,62.0826 21.0631,60.3456 21.4001,58.5586 C21.9601,55.5976 22.0891,53.1546 21.7921,51.0886 C21.3451,47.9916 19.2381,46.0976 14.9571,44.9506 C13.3771,44.5276 11.7601,44.2706 10.0491,43.9986 C9.4221,43.8996 8.7951,43.7996 8.1711,43.6916 C3.8071,42.9336 1.3101,40.4716 0.7471,36.3756 C0.4471,34.1666 0.5641,31.9136 0.7101,29.7946 C1.2521,21.9166 3.8061,14.7516 8.3001,8.4966 C10.8011,5.0216 13.4161,1.8036 17.9041,0.6036 C18.0621,0.5616 18.2191,0.5456 18.3731,0.5586 C22.1371,0.0946 25.2421,1.8496 27.8551,3.5336 C36.0271,8.7946 45.3061,13.8376 56.2221,18.9526 C64.4841,22.8236 71.2961,26.1886 77.5161,31.2826 C82.7181,35.5486 85.0081,40.3496 84.5171,45.9596 C84.4001,47.2816 84.2341,48.6066 84.0731,49.8876 C83.9381,50.9616 83.8031,52.0356 83.6971,53.1106 C83.5861,54.2226 83.5021,55.3376 83.4191,56.4526 C83.2681,58.4726 83.1111,60.5616 82.7921,62.6206 C82.2091,66.3996 80.4651,68.9606 77.4591,70.4496 C75.4131,71.4646 73.3381,71.6926 71.3321,71.9136 C70.5491,72.0006 69.8091,72.0816 69.0751,72.2086 C68.1411,72.3696 67.1961,72.4706 66.2821,72.5676 C64.5271,72.7556 62.8691,72.9326 61.4121,73.4946 C58.7671,74.5126 56.1431,75.8076 53.6051,77.0596 C51.9921,77.8556 50.3241,78.6796 48.6461,79.4346 C41.6451,82.5886 34.8801,84.2156 27.9641,84.4096 C27.8731,84.4116 27.7831,84.4136 27.6931,84.4136" id="Fill-69" fill="#2280A6" mask="url(#mask-10)"></path>
        </g>
        <path d="M52.306,255.788 C49.202,256.741 47.484,259.085 46.905,263.152 C46.494,266.036 46.83,268.293 47.962,270.255 C49.457,272.852 51.114,273.887 53.861,273.815 C56.213,273.755 58.534,271.743 59.258,269.137 C60.489,264.698 58.819,259.481 55.288,256.733 C54.824,256.372 54.111,256.214 53.356,256.046 C53,255.968 52.645,255.888 52.306,255.788 M53.618,275.259 C50.553,275.259 48.416,273.928 46.714,270.974 C45.414,268.719 45.022,266.168 45.479,262.949 C46.145,258.278 48.277,255.475 51.998,254.378 C52.101,254.347 52.205,254.341 52.306,254.355 C52.409,254.34 52.519,254.348 52.625,254.381 C52.959,254.484 53.314,254.562 53.667,254.641 C54.544,254.835 55.452,255.036 56.173,255.598 C60.144,258.688 62.025,264.545 60.645,269.521 C59.743,272.767 56.907,275.178 53.898,275.255 C53.804,275.258 53.71,275.259 53.618,275.259" id="Fill-72" fill="#2280A6"></path>
        <path d="M90.5023,21.2666 C90.1673,21.3676 89.8233,21.4526 89.4793,21.5376 C88.7163,21.7256 87.9953,21.9046 87.4233,22.2546 C85.4953,23.4356 84.7383,24.5876 86.2583,27.2876 C87.4913,29.4776 89.0853,31.5446 90.6263,33.5436 C91.1623,34.2396 91.6983,34.9356 92.2223,35.6376 C95.9983,40.7116 98.2373,46.3366 98.8803,52.3566 C99.1313,54.7026 99.5403,57.1456 100.1293,59.8266 C100.4693,61.3796 101.1243,62.4666 102.0253,62.9716 C102.8183,63.4136 103.8233,63.4306 105.0143,63.0156 C106.0263,62.6636 107.0483,62.3246 108.0703,61.9836 C112.8133,60.4066 117.7173,58.7756 121.7993,55.7846 C126.5503,52.3046 128.6883,47.4086 127.9793,41.6256 C127.6543,38.9806 125.7243,36.8796 124.0773,35.3446 C119.9693,31.5176 114.8803,29.2046 110.4333,27.3366 C106.3073,25.6016 101.9503,23.9916 97.4823,22.5506 C95.9723,22.0636 94.3943,21.8406 92.7223,21.6046 C91.9803,21.5006 91.2363,21.3956 90.5023,21.2666 M103.4173,64.7576 C102.6543,64.7576 101.9543,64.5806 101.3223,64.2266 C100.0523,63.5156 99.1523,62.1006 98.7233,60.1346 C98.1223,57.4036 97.7053,54.9086 97.4483,52.5096 C96.8253,46.6676 94.7383,41.4306 91.0673,36.4976 C90.5493,35.8026 90.0183,35.1126 89.4853,34.4226 C87.9133,32.3836 86.2873,30.2746 85.0043,27.9936 C83.2833,24.9356 83.7973,22.7876 86.6713,21.0266 C87.4343,20.5596 88.2983,20.3466 89.1343,20.1406 C89.4813,20.0546 89.8293,19.9696 90.1643,19.8646 C90.2723,19.8306 90.3803,19.8236 90.4843,19.8386 C90.5613,19.8286 90.6393,19.8296 90.7153,19.8426 C91.4453,19.9716 92.1853,20.0756 92.9233,20.1796 C94.5813,20.4136 96.2963,20.6556 97.9243,21.1806 C102.4313,22.6346 106.8273,24.2586 110.9903,26.0096 C115.5513,27.9256 120.7763,30.3036 125.0593,34.2916 C126.8843,35.9936 129.0263,38.3446 129.4083,41.4506 C130.1843,47.7816 127.8473,53.1396 122.6503,56.9456 C118.3853,60.0706 113.3723,61.7376 108.5243,63.3496 C107.5083,63.6876 106.4933,64.0256 105.4863,64.3756 C104.7553,64.6306 104.0643,64.7576 103.4173,64.7576" id="Fill-74" fill="#2280A6"></path>
        <path d="M154.7904,219.289 C154.4664,219.509 154.1254,219.716 153.7844,219.923 C152.9384,220.436 152.1404,220.922 151.6314,221.576 C151.1734,222.166 151.0634,222.806 151.3234,223.379 C151.6354,224.065 152.4114,224.526 153.3514,224.582 C154.8354,224.671 156.0674,224.216 157.5004,223.072 C158.2874,222.441 158.5194,221.587 158.2084,220.458 C157.9034,219.362 156.5994,219.266 156.0534,219.288 C155.7594,219.295 155.4694,219.293 155.1774,219.291 L154.7904,219.289 Z M153.6994,226.032 C153.5574,226.032 153.4124,226.028 153.2674,226.019 C151.7914,225.932 150.5454,225.148 150.0124,223.974 C149.5284,222.905 149.7044,221.71 150.4944,220.693 C151.1654,219.829 152.1164,219.251 153.0374,218.692 C153.4174,218.462 153.7974,218.232 154.1514,217.981 C154.3104,217.87 154.4994,217.832 154.6724,217.857 C154.7064,217.852 154.7414,217.85 154.7774,217.85 L155.1864,217.852 C155.4674,217.853 155.7424,217.855 156.0194,217.849 C157.8344,217.811 159.2024,218.657 159.5964,220.074 C160.0624,221.77 159.6484,223.195 158.3994,224.196 C156.8234,225.456 155.3564,226.032 153.6994,226.032 L153.6994,226.032 Z" id="Fill-76" fill="#2280A6"></path>
        <path d="M288.5345,293.5429 C286.4495,294.3209 284.6755,296.1759 283.7725,298.5239 C282.8665,300.8829 282.9485,303.3449 283.9965,305.2779 C284.3645,305.9589 285.2535,306.5739 286.2625,306.8479 C287.2315,307.1089 288.1675,307.0309 288.8295,306.6289 C291.2885,305.1309 293.3495,303.5429 294.9565,301.9099 C296.4155,300.4269 296.3205,298.2019 295.6135,296.7629 C295.0005,295.5179 293.5035,293.4529 290.7295,293.5409 C290.2345,293.5599 289.7395,293.5559 289.2445,293.5509 L288.6095,293.5469 C288.5845,293.5469 288.5585,293.5459 288.5345,293.5429 M287.3565,308.4379 C286.8785,308.4379 286.3825,308.3709 285.8865,308.2369 C284.4725,307.8549 283.2935,307.0049 282.7305,305.9639 C281.4815,303.6599 281.3715,300.7609 282.4295,298.0079 C283.5105,295.1909 285.5975,293.0559 288.1565,292.1489 C288.2705,292.1079 288.3905,292.0989 288.5035,292.1149 C288.5385,292.1099 288.5735,292.1069 288.6095,292.1069 L289.2575,292.1109 C289.7305,292.1159 290.2035,292.1199 290.6795,292.1029 C293.3325,291.9989 295.6015,293.4789 296.9055,296.1279 C298.0345,298.4269 297.6545,301.2199 295.9825,302.9199 C294.2935,304.6369 292.1385,306.2989 289.5785,307.8579 C288.9485,308.2409 288.1785,308.4379 287.3565,308.4379" id="Fill-78" fill="#2280A6"></path>
        <path d="M124.8939,87.1303 C123.8069,87.3903 122.7109,87.6263 121.6159,87.8623 C119.2609,88.3693 116.8269,88.8933 114.5389,89.6643 C104.5189,93.0433 94.0799,96.7113 83.5129,100.5663 C80.4409,101.6873 77.5999,103.0763 75.0679,104.6963 C69.1569,108.4813 63.0249,112.6343 56.8439,117.0403 C53.6749,119.2973 51.3449,122.4143 49.9179,126.3023 C47.4399,133.0653 49.3659,139.5533 54.9459,143.2353 C61.1909,147.3543 67.6659,151.0883 73.7649,154.5583 C78.0709,157.0073 81.8189,156.0693 84.3129,151.9153 C85.0499,150.6873 85.7759,149.4533 86.5019,148.2173 C88.4849,144.8463 90.5359,141.3593 92.7899,138.0773 C94.6589,135.3523 97.0129,132.6373 99.9879,129.7793 C105.8469,124.1563 112.9099,124.5843 119.0459,125.7423 C120.0889,125.9403 121.1279,126.1593 122.1659,126.3783 C125.3919,127.0593 128.7749,127.7553 132.1159,127.7283 C135.5109,127.6913 138.3109,126.8063 140.6739,125.0233 C145.5979,121.3103 148.5809,116.9473 149.5419,112.0553 C150.1279,109.0473 149.9799,105.7583 149.1459,103.2593 C146.2249,94.5383 140.3169,89.3973 131.5859,87.9783 C130.0699,87.7333 128.5099,87.5533 127.0009,87.3803 C126.3019,87.2993 125.6019,87.2183 124.9019,87.1313 C124.8989,87.1303 124.8969,87.1303 124.8939,87.1303 M78.2589,157.3513 C76.6219,157.3513 74.8679,156.8423 73.0529,155.8093 C66.9339,152.3283 60.4339,148.5813 54.1529,144.4363 C47.9869,140.3683 45.8459,133.2293 48.5669,125.8063 C50.0949,121.6403 52.5989,118.2973 56.0079,115.8673 C62.2089,111.4483 68.3609,107.2823 74.2909,103.4843 C76.9129,101.8073 79.8489,100.3703 83.0189,99.2133 C93.5969,95.3543 104.0469,91.6823 114.0789,88.3003 C116.4439,87.5033 118.9189,86.9703 121.3129,86.4553 C122.4149,86.2173 123.5189,85.9803 124.6139,85.7173 C124.7059,85.6943 124.7979,85.6923 124.8859,85.7043 C124.9489,85.6953 125.0129,85.6943 125.0799,85.7023 C125.7749,85.7893 126.4709,85.8693 127.1659,85.9493 C128.6909,86.1253 130.2669,86.3073 131.8169,86.5573 C141.1169,88.0683 147.4069,93.5343 150.5109,102.8033 C151.4339,105.5683 151.5959,109.0413 150.9559,112.3323 C149.9229,117.5833 146.7559,122.2403 141.5409,126.1723 C138.9589,128.1193 135.7929,129.1273 132.1309,129.1673 C128.5849,129.2073 125.1699,128.4843 121.8699,127.7873 C120.8399,127.5693 119.8119,127.3523 118.7789,127.1573 C113.0039,126.0673 106.3729,125.6503 100.9849,130.8183 C98.0819,133.6073 95.7899,136.2483 93.9769,138.8923 C91.7499,142.1333 89.7129,145.5973 87.7429,148.9483 C87.0149,150.1863 86.2869,151.4243 85.5469,152.6553 C83.6839,155.7603 81.1539,157.3513 78.2589,157.3513" id="Fill-80" fill="#2280A6"></path>
        <path d="M123.2162,94.6821 C117.0892,96.2041 111.1052,98.5241 105.3182,100.7671 C101.7652,102.1441 98.0912,103.5681 94.4082,104.8001 C91.6332,105.7291 88.6892,107.2281 85.1432,109.5181 C79.6242,113.0771 73.5662,116.5261 66.6222,120.0631 C63.9342,121.4311 61.3932,123.2681 59.2742,125.3771 C57.1942,127.4451 56.1772,130.0991 56.4832,132.6581 C56.7772,135.1091 58.2452,137.2001 60.7312,138.7051 C63.7052,140.5061 66.9492,141.7031 70.3722,142.2611 C74.2812,142.9031 77.1432,141.9881 79.1142,139.4631 C79.4392,139.0471 79.7672,138.6321 80.0952,138.2171 C80.9532,137.1301 81.8412,136.0061 82.6532,134.8691 C85.1122,131.4071 87.7892,127.7511 91.0972,124.4691 C95.5362,120.0561 100.2702,117.4581 105.5662,116.5291 C109.4542,115.8441 113.2202,116.6871 116.5402,117.4281 C117.5582,117.6561 118.5702,117.9071 119.5802,118.1581 C123.1662,119.0491 126.5662,119.8871 130.2012,119.7131 C133.2542,119.5651 136.0592,118.2351 138.1012,115.9671 C140.0752,113.7741 141.1162,110.8951 140.9572,108.0691 C140.6422,102.4891 137.5052,98.3881 131.6342,95.8811 C129.3032,94.8871 126.7402,94.5221 123.3492,94.6871 C123.3052,94.6901 123.2592,94.6881 123.2162,94.6821 M72.6232,143.89411 C71.8352,143.8951 71.0072,143.8241 70.1402,143.6821 C66.5352,143.0941 63.1182,141.8341 59.9852,139.9361 C57.1482,138.2191 55.3972,135.6951 55.0542,132.8291 C54.6952,129.8271 55.8622,126.7391 58.2582,124.3561 C60.4832,122.1431 63.1502,120.2151 65.9692,118.7801 C72.8682,115.2661 78.8852,111.8411 84.3622,108.3081 C88.0122,105.9521 91.0592,104.4031 93.9512,103.4341 C97.6022,102.2141 101.2602,100.7961 104.7982,99.4251 C110.6462,97.1581 116.6932,94.8141 122.9292,93.2701 C123.0222,93.2471 123.1172,93.2441 123.2072,93.2561 C123.2312,93.2531 123.2532,93.2511 123.2772,93.2501 C126.8612,93.0731 129.6922,93.4881 132.1982,94.5571 C138.5252,97.2581 142.0502,101.9021 142.3952,107.9881 C142.5752,111.1941 141.4012,114.4531 139.1712,116.9301 C136.8702,119.4851 133.7102,120.9841 130.2722,121.1511 C126.4182,121.3361 122.7632,120.4311 119.2332,119.5551 C118.2342,119.3071 117.2332,119.0581 116.2262,118.8331 C113.0372,118.1211 109.4252,117.3151 105.8142,117.9471 C100.8192,118.8241 96.3362,121.2911 92.1122,125.4911 C88.8852,128.6921 86.2482,132.2911 83.8252,135.7031 C82.9932,136.8701 82.0942,138.0091 81.2242,139.1091 C80.8992,139.5221 80.5722,139.9341 80.2492,140.3491 C78.4062,142.7071 75.8482,143.89411 72.6232,143.89411" id="Fill-82" fill="#2280A6"></path>
        <path d="M211.3168,101.8144 C207.5668,102.7044 204.6738,104.9064 201.5488,107.4784 C199.6758,109.0204 197.6398,110.3994 195.6708,111.7334 C194.3598,112.6224 193.0048,113.5404 191.7178,114.4934 L190.0458,115.7254 C187.1668,117.8424 184.1888,120.0314 181.5278,122.4494 C177.4718,126.1384 173.3908,130.2124 169.3998,134.5564 C165.5998,138.6934 164.8618,143.7164 167.2068,149.4884 C168.9278,153.7184 170.8058,158.2424 172.8738,162.6614 C174.6068,166.3744 177.2688,169.5304 180.7868,172.0454 C182.2418,173.0864 183.6888,174.1954 185.0878,175.2674 C188.1908,177.6444 191.3978,180.1014 194.8358,181.9184 C200.0658,184.6834 206.1698,185.4944 212.9768,184.3324 C215.2918,183.9334 217.6698,183.7504 219.9678,183.5734 L221.4238,183.4604 C226.0258,183.0904 230.3938,182.0404 234.4088,180.3374 C237.9658,178.8284 242.2958,177.4114 247.4258,178.3634 C253.8188,179.5454 260.0698,178.2194 265.3418,176.7654 C271.4328,175.0864 277.7258,173.3514 283.1858,169.9184 C288.8228,166.3764 292.3798,161.3774 293.7578,155.0624 C295.0448,149.1494 292.4858,142.8594 287.8068,140.4304 C286.0818,139.5334 283.7878,139.0034 280.7948,138.8114 C278.1508,138.6434 275.4378,138.6774 272.8138,138.7094 C271.2938,138.7284 269.7728,138.7474 268.2518,138.7294 C263.4208,138.6724 258.5898,137.5254 253.8968,135.3194 C252.7838,134.7964 251.6778,134.2184 250.6088,133.6594 C247.8568,132.2194 245.0108,130.7314 241.9008,130.1384 C240.2108,129.8164 238.4768,129.5374 236.7998,129.2674 C235.5678,129.0694 234.3358,128.8714 233.1058,128.6544 C228.0188,127.7634 224.3978,125.7534 223.2628,118.8414 C222.7638,115.8034 222.0828,112.5274 221.1798,108.8294 C220.1068,104.4264 216.0158,101.4804 211.4678,101.8184 C211.4168,101.8224 211.3658,101.8214 211.3168,101.8144 M207.1328,186.2874 C202.4058,186.2874 198.0608,185.2524 194.1628,183.1914 C190.6188,181.3174 187.3618,178.8234 184.2128,176.4114 C182.8228,175.3454 181.3848,174.2444 179.9488,173.2164 C176.2278,170.5554 173.4088,167.2094 171.5688,163.2714 C169.4878,158.8234 167.6008,154.2794 165.8728,150.0314 C163.2998,143.6984 164.1298,138.1654 168.3388,133.5834 C172.3598,129.2074 176.4708,125.1024 180.5588,121.3834 C183.2758,118.9154 186.2838,116.7044 189.1928,114.5654 L190.8608,113.3354 C192.1708,112.3654 193.5408,111.4384 194.8638,110.5424 C196.8048,109.2264 198.8128,107.8664 200.6348,106.3664 C203.7958,103.7654 206.9688,101.3514 211.0418,100.3994 C211.1328,100.3794 211.2208,100.3774 211.3108,100.3884 C211.3278,100.3864 211.3438,100.3844 211.3608,100.3834 C216.6058,99.9984 221.3378,103.3984 222.5788,108.4874 C223.4908,112.2224 224.1788,115.5334 224.6828,118.6084 C225.6888,124.7304 228.6248,126.4074 233.3548,127.2364 C234.5778,127.4524 235.8028,127.6494 237.0288,127.8464 C238.7148,128.1174 240.4598,128.3984 242.1708,128.7244 C245.4898,129.3564 248.4308,130.8954 251.2768,132.3834 C252.3328,132.9354 253.4228,133.5064 254.5088,134.0174 C259.0148,136.1344 263.6438,137.2354 268.2688,137.2894 C269.7758,137.3064 271.2868,137.2894 272.7958,137.2704 C275.4458,137.2364 278.1878,137.2024 280.8858,137.3754 C284.0838,137.5804 286.5638,138.1624 288.4708,139.1534 C293.7068,141.8704 296.5848,148.8414 295.1648,155.3694 C293.7008,162.0764 289.9278,167.3814 283.9518,171.1364 C278.3128,174.6834 271.9168,176.4474 265.7308,178.1524 C260.2958,179.6514 253.8468,181.0154 247.1648,179.7794 C243.3798,179.0764 239.7358,179.6394 234.9708,181.6634 C230.8128,183.4254 226.2948,184.5124 221.5408,184.8944 L220.0788,185.0084 C217.8128,185.1834 215.4688,185.3634 213.2198,185.7504 C211.1288,186.1084 209.0968,186.2864 207.1328,186.2874" id="Fill-84" fill="#2280A6"></path>
        <path d="M165.1634,290.6015 C163.8884,290.8645 163.0364,291.4205 162.6334,292.2575 C162.1224,293.3155 162.3104,294.8605 163.1484,296.4985 C164.1234,298.3975 165.9224,299.8755 168.0844,300.5525 C170.2854,301.2445 172.6654,301.0445 174.6064,300.0095 C175.4494,299.5615 176.0314,298.7385 176.2044,297.7485 C176.3834,296.7245 176.1024,295.6845 175.4534,294.9675 C172.7364,291.9655 169.4164,290.5515 165.2774,290.6085 C165.2404,290.6125 165.2004,290.6075 165.1634,290.6015 M170.7244,302.3975 C169.6964,302.3975 168.6584,302.2425 167.6534,301.9265 C165.1254,301.1345 163.0174,299.3955 161.8674,297.1555 C160.8064,295.0815 160.6174,293.1205 161.3364,291.6315 C161.7594,290.7565 162.7224,289.6225 164.9134,289.1835 C164.9974,289.166407 165.0824,289.1655 165.1604,289.1765 C165.1914,289.1715 165.2224,289.1695 165.2544,289.1695 C169.7904,289.0865 173.5084,290.6735 176.5204,294.0005 C177.4654,295.0445 177.8774,296.5385 177.6224,297.9975 C177.3734,299.4255 176.5204,300.6225 175.2834,301.2815 C173.8954,302.0205 172.3224,302.3975 170.7244,302.3975" id="Fill-86" fill="#2280A6"></path>
    </g>
</svg>