<?xml version="1.0" encoding="UTF-8"?>
<svg width="261.59pt" height="261.59pt" version="1.1" viewBox="0 0 261.59 261.59" xmlns="http://www.w3.org/2000/svg">
 <g>
  <path d="m261.59 130.79c0 72.238-58.559 130.8-130.79 130.8-72.238 0-130.8-58.559-130.8-130.8 0-72.234 58.559-130.79 130.8-130.79 72.234 0 130.79 58.559 130.79 130.79" fill="#d6e8e8" fill-rule="evenodd"/>
  <path d="m261.59 130.79c0 72.238-58.559 130.8-130.79 130.8-72.238 0-130.8-58.559-130.8-130.8 0-72.234 58.559-130.79 130.8-130.79 72.234 0 130.79 58.559 130.79 130.79" fill="#45a0de" fill-rule="evenodd"/>
  <g>
   <path d="m124.09 201.02-2.3438-0.16406 14.148-39.367 2.3438 0.71875-14.148 38.812" fill="#222028"/>
   <path d="m177.83 201.02-14.148-38.812 2.3438-0.71875 14.148 39.367-2.3438 0.16406" fill="#222028"/>
   <path d="m219.43 159.4h-136.94v-111.63h136.94v111.63" fill="#bacfd5"/>
   <path d="m220.24 52.68h-138.57v-4.9062h138.57v4.9062" fill="#162c47"/>
   <path d="m179.97 164.3h-58.023v-4.9023h58.023v4.9023" fill="#162c47"/>
   <path d="m124.26 130.82h-3.7539c-3.1914 0-8.0977-1.6328-8.0977-1.6328s1.2266-2.8398 1.2266-5.9141v-5.1172h12.258s0.41015 9.3984-1.6328 12.664" fill="#dfcb6f"/>
   <path d="m171.96 75.676h3.7539c3.1953 0 8.0977-1.6367 8.0977-1.6367s-1.2266-2.8359-1.2266-5.9141v-5.1172h-12.258s-0.41016 9.3984 1.6328 12.668" fill="#c3b231"/>
   <path d="m119.23 117.46 1.2852 1.5742-0.33203 0.25391-1.5312-1.25 0.57813-0.57813" fill="#222028"/>
   <path d="m119.76 117.75c0 0.45313-0.36328 0.81641-0.81641 0.81641-0.44922 0-0.8164-0.36328-0.8164-0.81641 0-0.44921 0.36718-0.8164 0.8164-0.8164 0.45313 0 0.81641 0.36719 0.81641 0.8164" fill="#2f6bb8"/>
   <path d="m187.9 72.406h-12.258c-1.6367-4.9023-0.81641-11.441-0.81641-11.441h12.258s-0.81641 8.1719 0.8164 11.441" fill="#dfcb6f"/>
   <path d="m179.44 62.309-1.2852 1.5742 0.33203 0.25391 1.5312-1.25-0.57812-0.57812" fill="#222028"/>
   <path d="m178.91 62.598c0 0.45312 0.36328 0.81641 0.81641 0.81641 0.44922 0 0.8164-0.36328 0.8164-0.81641 0-0.44922-0.36718-0.81641-0.8164-0.81641-0.45313 0-0.81641 0.36719-0.81641 0.81641" fill="#2f6bb8"/>
   <path d="m102.58 149.18h-12.398v-12.398h12.398v12.398" fill="#c3b231"/>
   <path d="m107.93 143.47h-3.7539c-3.1914 0-8.0977-1.6328-8.0977-1.6328s1.2266-2.8398 1.2266-5.9141v-5.1211h12.258s0.41016 9.3984-1.6328 12.668" fill="#dfcb6f"/>
   <path d="m104.36 131.52-1.2852 1.5742 0.33203 0.25 1.5312-1.2461-0.57812-0.57813" fill="#222028"/>
   <path d="m103.83 131.8c0 0.44922 0.36328 0.8164 0.81641 0.8164 0.44922 0 0.8164-0.36718 0.8164-0.8164 0-0.45313-0.36718-0.82032-0.8164-0.82032-0.45313 0-0.81641 0.36719-0.81641 0.82032" fill="#2f6bb8"/>
   <path d="m198.37 148.91h-12.395v-12.395h12.395v12.395" fill="#fff"/>
   <path d="m96.133 135.96 1.2852 1.5742-0.33203 0.25391-1.5312-1.25 0.57812-0.57813" fill="#222028"/>
   <path d="m96.66 136.25c0 0.45313-0.36719 0.81641-0.81641 0.81641-0.45312 0-0.81641-0.36328-0.81641-0.81641 0-0.44922 0.36328-0.8164 0.81641-0.8164 0.44922 0 0.81641 0.36718 0.81641 0.8164" fill="#2f6bb8"/>
   <path d="m196.39 150.3h-12.258c-1.6367-4.9062-0.82031-11.441-0.82031-11.441h12.262s-0.8164 8.1719 0.81641 11.441" fill="#dfcb6f"/>
   <path d="m187.5 139.92 1.2852 1.5703-0.33203 0.2539-1.5312-1.25 0.57812-0.57422" fill="#222028"/>
   <path d="m188.02 140.21c0 0.44922-0.36719 0.8164-0.81641 0.8164-0.45312 0-0.81641-0.36718-0.81641-0.8164 0-0.45313 0.36329-0.82032 0.81641-0.82032 0.44922 0 0.81641 0.36719 0.81641 0.82032" fill="#2f6bb8"/>
  </g>
 </g>
 <g fill="#1e4c7d">
  <path d="m141.29 72.453c0 2.7031-2.1914 4.8984-4.8945 4.8984-2.7031 0-4.8945-2.1953-4.8945-4.8984s2.1914-4.8945 4.8945-4.8945c2.7031 0 4.8945 2.1914 4.8945 4.8945"/>
  <path d="m170.04 99.777c0 2.7031-2.1914 4.8945-4.8945 4.8945-2.7031 0-4.8945-2.1914-4.8945-4.8945 0-2.7031 2.1914-4.8945 4.8945-4.8945 2.7031 0 4.8945 2.1914 4.8945 4.8945"/>
  <path d="m159.98 129.11c0 2.5391-2.0586 4.5976-4.6016 4.5976-2.5391 0-4.6016-2.0586-4.6016-4.5976 0-2.543 2.0625-4.6016 4.6016-4.6016 2.543 0 4.6016 2.0586 4.6016 4.6016"/>
 </g>
 <path d="m184.91 99.703 5.957-5.9727c0.32032-0.32031 0.31641-0.83984 0-1.1562-0.32031-0.32031-0.83593-0.31641-1.1562 0l-5.957 5.9766-5.9766-5.957c-0.32031-0.32031-0.83984-0.32031-1.1562 0-0.32031 0.32031-0.32031 0.83594 0 1.1562l5.9766 5.9609-5.957 5.9727c-0.32031 0.32032-0.32031 0.83594 0 1.1562 0.16016 0.16016 0.37109 0.23829 0.57813 0.23829 0.21093 0 0.41796-0.082 0.57812-0.23829l5.957-5.9766 5.9766 5.957c0.16016 0.16016 0.3711 0.23828 0.57813 0.23828 0.21094 0 0.41797-0.0781 0.57812-0.23828 0.32032-0.32031 0.31641-0.83593 0-1.1562l-5.9766-5.9609" fill="#162c47"/>
 <path d="m128.65 107.52 3.8203-3.9805c0.20703-0.21093 0.19921-0.55078-0.0156-0.7539-0.21094-0.20703-0.55078-0.19922-0.75391 0.0156l-3.8203 3.9766-3.9805-3.8203c-0.21484-0.20312-0.55078-0.19922-0.75781 0.0156-0.20312 0.21093-0.19531 0.55078 0.0156 0.7539l3.9805 3.8242-3.8242 3.9805c-0.20313 0.21094-0.19532 0.55078 0.0195 0.75391 0.10547 0.10156 0.24219 0.15234 0.3789 0.14843 0.13672-4e-3 0.27344-0.0586 0.375-0.16406l3.8203-3.9805 3.9805 3.8242c0.10547 0.10156 0.2461 0.15235 0.38282 0.14844 0.13281-4e-3 0.26953-0.0586 0.37109-0.16406 0.20703-0.21485 0.19922-0.55078-0.0117-0.75391l-3.9805-3.8242" fill="#162c47"/>
 <path d="m82.574 81.434s21.664-4.0938 33.227 3.418c11.562 7.5078 27.012 26.883 48.789 25.434 34.629-2.3008 42.258 14.039 54.562 19.219" fill="none" stroke="#1e4c7d" stroke-miterlimit="10" stroke-width=".77169"/>
 <path d="m82.711 68.969s17.426-2.9883 37.422 4.3711c19.996 7.3633 17.344 26.68 40.355 26.43 49.109-0.53515 58.93 6.4297 58.93 6.4297" fill="none" stroke="#1e4c7d" stroke-dasharray="51.4458, 25.7229, 51.4458, 25.7229, 51.4458, 25.7229" stroke-miterlimit="10" stroke-width=".77169"/>
 <g>
  <path d="m214.22 197.69 18.461-0.5s1.1133 2.0352 0.0664 2.0312c-1.043 0-15.266 1.0391-16.68 0.85547-2.8867-0.36719-5.5039-1.6641-1.8477-2.3867" fill="#162c47"/>
  <path d="m227.09 180.82-0.16016 12.84 5.7891 0.25391 0.38672-11.965-6.0156-1.1289" fill="#8d473b"/>
  <path d="m232.79 190.74s1.0508 3.0078 0.87109 4.418c-0.0547 0.42969-0.17578 0.87109-0.32031 1.2812-0.34766 0.98828-0.41016 1.4766-1.4531 1.3672-1.9141-0.20313-7.1797 0.14062-10.988 0.59375-5.832 0.6914-8.9688-0.0937-8.9688-0.0937s1.3789-0.84375 4.3867-1.8984c3.0039-1.0547 7.2734-1.0938 9.4062-6.5664 0.53516-1.3672 4.043 3.0977 4.8047 2.9219 2.2891-0.51563 2.2617-2.0234 2.2617-2.0234" fill="#1d4675"/>
  <path d="m233.81 112.78s3.7734 12.633 3.7383 16.445c-0.0352 3.8086-3.4766 24.602-3.4961 26.652-0.0195 2.0547 1.2891 4.7266 1.4531 8.5469 0.17578 4.1016-1.0156 23.738-1.0156 23.738s-2.207 0.46485-4.4844 0.52344c-2.2773 0.0625-3.4062-0.625-3.4062-0.625l-2.4375-35.293-2.3086-32.512 11.957-7.4766" fill="#162c47"/>
  <path d="m204.36 200.98 19.57-0.27344s1.5703 1.707 0.55469 1.957c-0.56641 0.13671-4.1992 0.80078-6.9258 1.0312-6.8828 0.58984-10.871 0.24609-12.059-0.3086 0 0-1.3594-0.74219-1.5117-1.7226-0.0742-0.46094-0.51563-0.95313 0.37109-0.6836" fill="#162c47"/>
  <path d="m215.42 185.27 1.3984 12.555 6.125-0.16015-1.293-14.547-6.2305 2.1524" fill="#8d473b"/>
  <path d="m222.45 194.41s1.7812 2.6758 1.9453 4.0898c0.0508 0.42969 0.0391 0.88672-4e-3 1.3164-0.10156 1.043-0.0469 1.5352-1.082 1.6758-0.97265 0.13672-4.9492 0.73047-8.8281 0.89453-2.9531 0.125-7.5469-0.13672-8.043-0.23828-1.1406-0.23828-1.6445-0.36719-2.4805-1.1602-0.6875-0.65234 2.2031-1.293 4.0742-1.7773 3.1719-0.82422 7.1055-1.8438 7.3828-3.9727 0.19141-1.457 5.1641 1.5977 5.8633 1.2461 2.0938-1.0469 1.1719-2.0742 1.1719-2.0742" fill="#1d4675"/>
  <path d="m221.11 118.02s-1.4961 8.2188-3.7383 15.695c-1.9414 6.4648-5.0781 21.77-5.3125 22.953-0.23437 1.1875 0.91797 12.332 0.84766 16.738-0.0703 4.4062 1.5898 18.344 1.5898 18.344s2.9727 0.75 4.2227 0.71875c1.25-0.0312 3.9844-0.92968 3.9844-0.92968s0.61329-19.312 0.6836-23.723c0.0703-4.4062-1.1211-9.7266-1.1797-10.898-0.0586-1.168 14.773-26.418 14.598-29.93-0.17969-3.5156-1.4961-13.453-1.4961-13.453l-14.199 4.4844" fill="#1d4675"/>
 </g>
 <g fill="#8d473b">
  <path d="m246.8 129.2c-0.0352 0.0742-0.11328 0.13281-0.2539 0.15625-0.58985 0.11328-1.125-0.80859-1.2891-1.1211 0.125 0.2539 0.37109 0.92578-0.20313 1.0352-0.71094 0.13282-2.25-2.1641-2.3164-2.5195-0.0664-0.35546-1.3359-1.2266-1.8281-1.8711-0.48828-0.64453-0.33203-1.7812-0.89063-2.7852-0.55468-1.0039-4.6797-7.2422-5.3008-8.6016-0.625-1.3555-2.2969-4.3672-2.4961-5.4336-0.20313-1.0703 2.5625-7.707 2.5625-7.707l-2.8047-4.957-1.1602-5.8008 6.8828 18.176s1.1797 2.3594 1.8711 4.0742c0.69141 1.7188 3.2305 9.3594 3.7188 10.004 0.49219 0.64844 3.3203 1.9609 3.8125 2.6055 0.4336 0.57422 2.0274 2.6758 1.9297 3.4805-0.0156 0.10156-0.0547 0.18359-0.125 0.24218-0.64844 0.48829-1.1367-0.15625-1.1367-0.15625s0.0156 0.0781 0.0312 0.19922c0.0391 0.3125 0.0703 0.88672-0.1875 0.9375-0.13281 0.0234-0.33984-0.0859-0.55078-0.24218-0.3125-0.22266-0.625-0.53516-0.70313-0.60938 0.0977 0.10547 0.5625 0.625 0.4375 0.89453"/>
  <path d="m228.13 96.195-2.5703 11.105s-4.7852 4.6211-6 5.0625c-1.2148 0.44141-5.332-0.67969-7.3984-1.4414-2.0625-0.76563-9.5234-4.6562-10.352-5.043-0.82813-0.39063-1.2227 0.0312-2.0508-0.35547-0.82813-0.38672-4.5703-2.7422-4.1719-3.1641 0.39844-0.41797-0.42968-0.80469-0.0312-1.2227 0.39844-0.42188-0.84765-1.207-0.45312-1.625 0.39844-0.41797-0.0312-1.2266 0.36719-1.6445 0.39843-0.41797 2.0625 0.76562 2.8906 1.1523l0.82813 0.38672s-0.84766-1.207-0.85938-1.6133c-0.0117-0.41016-0.043-1.6367 0.37891-1.2383 0.41797 0.39844 0.84765 1.207 1.2656 1.6016 0.41797 0.39844 1.2461 0.78516 1.668 1.1836 0.41797 0.39844 1.2891 2.4219 1.707 2.8164 0.41797 0.39844 5.7617 1.4844 7.4062 1.8516 1.6445 0.36719 5.7734 1.8945 5.7734 1.8945s0.34375-2.4648 0.72266-3.6992c0.375-1.2344 1.5156-4.5391 1.5156-4.5391l9.3633-1.4688"/>
  <path d="m224.36 72.965s0.55859 4.4258 4.1914 7.4375c3.6289 3.0117-9.1875 5.1211-9.1875 5.1211s0.32422-4.4453-1.4726-5.2891c-0.875 0.46875-1.5547 0.83984-2.0117 0.41016-0.94922-0.28906-3.3359-1.1562-3.8477-3.8047-0.51172-2.6523-1.9141-5.2773-1.9492-6.6094-0.0352-1.332 0.35157-3.5586 2.0898-4.9375 1.7422-1.3789 4.8008-3.2344 7.0547-1.9609 2.25 1.2734 3.6289 3.0117 4.1172 4.7734 0.49219 1.7656 1.0156 4.8594 1.0156 4.8594"/>
 </g>
 <g>
  <path d="m226.84 78.242s5.9219 3.7891 7.7188 9.875c1.793 6.0859 1.7773 20.391 2.2422 22.422 0.46093 2.0312 2.2422 16.445 2.2422 16.445-2.2422 1.4922-14.949 2.2422-20.93 0 0 0 1.5078-12.172 1.4453-14.621 2.4062-1.6992 3.6758-4.8945 4.3438-5.8359 1.1836-1.668 3.0664-7.8477 3.0664-7.8477s-2.9024-1.5625-5.3438-1.0898c-2.4414 0.47656-3.2461 0.90234-3.2461 0.90234s-0.0312-1.2227 0.34375-2.4609c0.375-1.2344 0.35547-2.0508 0.35547-2.0508l-0.96875-5.6992s-0.0859-3.2695 1.5195-4.5352c4-3.375 6.8555-3.4492 7.2109-5.5039" fill="#9cc2b4"/>
  <path d="m225.15 74.348c-0.28515 1.2656-3.0312 2.2266-3.8086 2.2461-0.88672 0.02344-1.4453-4.4023-3.2344-4.7969-1.7852-0.39844-2.6016 2.2891-2.6016 2.2891l-0.89062 0.01953s-0.5-2.207-0.95313-2.6367c-0.45703-0.43359-3.7695-2.7852-6.0117-2.7852-1.4023 0 1.4961-0.74609 0.75-1.4922-1.0664-1.0664 1.4922-1.4961 1.4922-2.2422 0-2.2422 2.293-1.2969 4.4883-2.2422 0.71485-0.30859 2.4024-3.043 7.4727 0 2.0273 1.2148 3.6562 3.5664 3.2852 6.2422-0.375 2.6719 0.0312 5.3086 0.0117 5.3984" fill="#222028"/>
  <path d="m226.97 98.68s1.2344 0.375 1.6562 0.77344c0.41796 0.39844-2.0352 0.46094-2.0352 0.46094l0.37891-1.2344" fill="#6fa89a"/>
  <path d="m148.15 117.82h3.7539c3.1953 0 8.0977-1.6328 8.0977-1.6328s-1.2266-2.8398-1.2266-5.9141v-5.1172h-12.258s-0.41015 9.3984 1.6328 12.664" fill="#e4eae7"/>
  <path d="m152.68 104.45 1.2852 1.5742-0.33593 0.25391-1.5274-1.25 0.57813-0.57812" fill="#222028"/>
  <path d="m152.52 104.05c0 0.44922-0.36719 0.8164-0.82031 0.8164-0.44922 0-0.81641-0.36718-0.81641-0.8164 0-0.45313 0.36719-0.82031 0.81641-0.82031 0.45312 0 0.82031 0.36718 0.82031 0.82031" fill="#2f6bb8"/>
  <path d="m95.477 98.32 12.258-0.35938c1.6367-4.9492 0.82031-11.465 0.82031-11.465l-12.262 0.35938s0.82031 8.1484-0.81641 11.465" fill="#e4eae7"/>
  <path d="m101.69 87.215 1.2852 1.5742-0.33203 0.25-1.5312-1.25 0.57813-0.57422" fill="#222028"/>
  <path d="m102.22 87.504c0 0.44922-0.36328 0.81641-0.81641 0.81641-0.45312 0-0.8164-0.36719-0.8164-0.81641 0-0.45312 0.36328-0.82031 0.8164-0.82031 0.45313 0 0.81641 0.36719 0.81641 0.82031" fill="#2f6bb8"/>
  <path d="m79.082 183.13s-0.23438 5.7344 0.30469 7.5469c0.70703 2.3711 2.0859 5.6836 2.8867 6.6406 0.42578 0.51171 0.37891 1.125-0.11328 1.2812-1.375 0.42968-3.9219 0.26562-5.0703-0.60938-0.50391-0.38672 0.16016-2.4727-0.42969-3.207-0.58984-0.73828-2.1211-1.9023-2.0977-2.6562 0.03516-1.2539 0.77344-2.1523 0.79688-3.3281 0.01953-0.67968-0.86328-8.2852-0.86328-8.2852l4.5859 2.6172" fill="#040505"/>
  <path d="m64.789 183.13s0.88281 5.4102 0.34766 7.2188c-0.70703 2.375-0.45312 4.3281-1.7461 6.8086-0.3125 0.60156 0.66797 1.9453 1.832 2.3516 0.96094 0.33594 2.5-0.76172 3.1875-1.5195 0.42578-0.47266-0.19141-2.3945 0.10547-3.5352 0.30469-1.168 0.49219-1.9023 0.46875-2.6523-0.03516-1.2539-0.3125-1.6016-0.14844-3.0039 0.07813-0.67578 0.53906-8.2852 0.53906-8.2852l-4.5859 2.6172" fill="#040505"/>
  <path d="m66 182.44 3.375-1.9258s-0.04687 0.8125-0.11719 1.9258h-3.2578" fill="#521345"/>
  <path d="m69.484 88.27s-5.8359 1.1758-9.9727 3.5195c-2.9609 14.082 3.1836 23.277 3.1836 23.277s-2.9258 5.8281-5.4219 16.602c-1.957 8.4297-5.9219 54.742-5.9219 54.742l40.938 0.49609s-3.7812-44.879-6.082-55.895c-0.875-4.1758-5.2617-15.836-5.2617-15.836 4.1172-6.4375 4.4805-14.906 2.957-23.512-4.2852-3.1211-4.0195-2.2656-4.0195-2.2656l-10.398-1.1289" fill="#1f5077"/>
  <path d="m91.941 182.88c0.21875 2.5234 0.34766 4.0273 0.34766 4.0273l-40.938-0.49609s0.10938-1.3086 0.29688-3.5312h40.293" fill="#90b3b7"/>
  <path d="m78.52 84.324c-0.19922 0.87891-0.86328 1.2773-0.89062 1.3008-0.33984 0.10938-0.95703 0.03125-1.2969-0.64844-0.45703-0.92188-0.16016-2.9727 0.125-4.0742 0.08594 0.0625 0.22266 0.10547 0.44531 0.05469-0.11328 0.9375-0.43359 3.7734 0.39062 3.8281 0.76172-0.63672 0.48047-2.6094-0.02734-3.9688-0.07813-0.20703-0.16016-0.40234-0.24219-0.57031-0.125-0.23047 0.20703-0.43359 0.35547-0.21875 0.09375 0.13672 0.19531 0.29297 0.28906 0.46875 0.57422 1.043 1.1133 2.6758 0.85156 3.8281" fill="#dc882b"/>
  <path d="m64.848 70.098c1.1523-1.1484 4.5547-2.6016 8.4688-1.9648 2.9648 0.48438 6.1172 2.0273 6.1172 7.2188 0 0.67969-0.77344 3-0.83594 3.6172-0.41797 4.3164-5.3125 6.4492-9.2695 5.4688-3.2422-0.80469-10.344-8.4727-4.4805-14.34" fill="#162c46"/>
  <path d="m69.516 83.23-0.92969 5.6562 7.6953 0.41797-0.55469-5.0508-6.2109-1.0234" fill="#5c3127"/>
  <path d="m73.73 69.836s2.6484 1.0781 3.6719 2.5625c1.0234 1.4805 1.1758 4 1.1758 5.082 0 1.0859 0.29688 2.0859-0.36719 4.3828-0.37891 1.3125-2.4844 3.8633-3.8203 3.957-1.1914 0.08203-2.8984-0.78516-4.3125-1.9336-1.9922-1.6133-1.7773-6.2305-1.5234-7.8633 0.25-1.6367 1.3438-4.1797 2.4766-4.9727 1.1289-0.79297 2.6992-1.2148 2.6992-1.2148" fill="#5c3127"/>
 </g>
 <g fill="#1e1a34">
  <path d="m74.227 85.945c0.05859 0 0.11328 0 0.17188-0.0039 0.35938-0.02734 0.78125-0.21094 1.25-0.55469 0.05469-0.03906 0.07031-0.11328 0.02734-0.16797-0.03906-0.05859-0.11328-0.07031-0.16797-0.02734-0.42969 0.30859-0.81641 0.48438-1.1289 0.50391-1.0625 0.07422-2.6797-0.65625-4.2266-1.9023-0.05078-0.04297-0.12891-0.03516-0.17188 0.01563-0.03906 0.05469-0.03125 0.13281 0.01953 0.17188 1.1953 0.96875 2.9062 1.9648 4.2266 1.9648"/>
  <path d="m70.176 71.969c0.27344-0.39062 0.5625-0.71094 0.85547-0.91797 1.1289-0.79297 2.7969-1.3516 2.7969-1.3516s2.2422 1.0664 3.3789 2.4375c-2.3086-1.4062-4.3047-1.3281-7.0312-0.16797"/>
  <path d="m73.883 69.648s-2.2539-0.96484-3.3398 0.44531c-1.0859 1.4141-0.75781 1.4648-1.6289 2.0625-0.86719 0.59766-1.7852 1.7305-1.9258 2.6875-0.48828 3.3398 1.4922 4.5312 1.4922 4.5312s-0.46094-4.3672 2.1914-6.168c1.4922-1.0117 1.5664-1.5664 3.3164-2.1367 1.6211-0.52734-0.10547-1.4219-0.10547-1.4219"/>
  <path d="m73.73 69.836s0.87891-0.87891 2.3828-0.26953c0.92969 0.375 0.5625 1.4141 0.99609 1.5859 0.51562 0.20312 2.0508 0.67969 2.4453 1.5898 0.26953 0.62891 0.36328 1.125 0.36328 2.0742 0 1.3633-1.3828 2.4414-1.3828 2.4414-0.20312-3.457-1.4102-5.5078-4.5859-6.2539-0.46094-0.10938 0.19922-0.875-0.21875-1.168"/>
 </g>
 <g>
  <path d="m68.621 77.941s-1.7031-2.4492-2.0625-0.48828c-0.33984 1.8398 0.75391 3.2031 1.4609 3.457 0.70312 0.25 0.75391-0.25391 0.75391-0.25391l-0.15234-2.7148" fill="#5c3127"/>
  <path d="m75.375 97.91c-1.9219-3.3945-4.3945-6.4375-7.2695-9.2227 1.8789-0.54688 1.8242-0.41797 1.8242-0.41797l4.9844 0.16406s2.7305 0.35547 4.9688 0.96484c-1.9766 2.9766-3.2422 5.3281-4.5078 8.5117" fill="#5c3127"/>
  <path d="m74.453 186.29c0.08984 0 0.16016-0.0703 0.16406-0.16407l0.89844-71.051c0-0.16015-0.10547-15.793 0-17.074 0.05859-0.69531 1.2773-3.0703 4.3359-8.1797l0.16016-0.26562c0.04687-0.07813 0.01953-0.17578-0.05859-0.22266-0.07422-0.04687-0.17578-0.02344-0.22266 0.05469l-0.15625 0.26562c-1.9961 3.3359-4.3008 7.3125-4.3828 8.3203-0.10938 1.2969-0.0039 16.457 0 17.102l-0.90234 71.047c0 0.0937 0.07031 0.16406 0.16406 0.16797" fill="#28608c"/>
  <path d="m75.191 97.91c0.02344 0 0.04297-0.0039 0.06641-0.01172 0.08203-0.03906 0.12109-0.13281 0.08594-0.21484-1.5312-3.5898-5.7148-7.8711-6.9609-9.0977-0.0625-0.0625-0.16797-0.0625-0.23047 0s-0.0625 0.16797 0.0039 0.23047c1.2344 1.2148 5.3789 5.457 6.8867 8.9961 0.02734 0.05859 0.08594 0.09766 0.14844 0.09766" fill="#28608c"/>
  <path d="m66.57 84.324c0.19531 0.87891 0.86328 1.2773 0.89062 1.3008 0.33984 0.10938 0.95312 0.03125 1.2969-0.64844 0.45312-0.92188 0.15625-2.9727-0.12891-4.0742-0.08594 0.0625-0.22266 0.10547-0.44141 0.05469 0.11328 0.9375 0.43359 3.7734-0.39453 3.8281-0.75781-0.63672-0.47656-2.6094 0.03125-3.9688 0.07422-0.20703 0.15625-0.40234 0.24219-0.57031 0.125-0.23047-0.20703-0.43359-0.35938-0.21875-0.09375 0.13672-0.19141 0.29297-0.28516 0.46875-0.57812 1.043-1.1172 2.6758-0.85156 3.8281" fill="#dc882b"/>
  <path d="m68.309 79.215c0.01172 0 0.01953-0.0039 0.03125-0.0039 0.0625-0.01563 0.10547-0.08203 0.08984-0.14844-0.22656-0.93359-0.83203-1.3242-0.85938-1.3398-0.05469-0.03906-0.13281-0.01953-0.16797 0.03516-0.03516 0.05859-0.01953 0.13281 0.03906 0.16797 0.0039 0.0039 0.54688 0.36328 0.75 1.1953 0.01172 0.05469 0.0625 0.09375 0.11719 0.09375" fill="#6d1f28"/>
  <path d="m72.152 116.19c3.0039 0 5.8945-0.20703 8.8477-0.61328 0.22266-0.0312 0.37891-0.23438 0.34766-0.46094-0.03125-0.22266-0.23828-0.375-0.45703-0.34375-5.8359 0.80469-11.43 0.80469-18.145-4e-3 -0.22266-0.0273-0.42578 0.13281-0.45312 0.35547-0.02734 0.22656 0.13281 0.42578 0.35547 0.45313 3.3906 0.40625 6.5039 0.61328 9.5039 0.61328" fill="#28608c"/>
  <path d="m69.414 128.58c0.45312 0.0742 3.1562-0.49219 3.8711-1.1758 0.58203-0.55469 1.1836-1.2578 0.91406-1.3633-0.16797-0.0664-1.5078-0.45703-2.5664-0.78125 0.71484-0.0273 0.98438-0.28516 1.0234-0.40625 0.05859-0.17578-1.4414-0.58594-1.9023-0.76172-0.64844-0.24219-1.8242-0.80859-2.4727-0.91406-0.35547-0.0586-2.6914 0.24219-2.8086 0.19531-0.01953-8e-3 -0.85156-0.32031-1.0625-0.38672l-0.6875 3.0234 1.043 0.39062s4.1992 2.1055 4.6484 2.1797" fill="#5c3127"/>
  <path d="m71.746 125.31c0.0039-0.0117 0.0039-0.0195 0.0078-0.0312 0.0078-0.0664-0.03906-0.125-0.10547-0.13671-0.66797-0.0898-2.5156-1.2656-2.5352-1.2774-0.05469-0.0391-0.12891-0.0195-0.16797 0.0352-0.03516 0.0586-0.01953 0.13281 0.03906 0.16797 0.07813 0.0508 1.9102 1.2188 2.6328 1.3164 0.05469 8e-3 0.10938-0.0234 0.12891-0.0742" fill="#1e1a34"/>
  <path d="m59.512 91.789c-4.875 3.5391-7.1484 12.113-7.6836 15.141-0.47266 2.6484-0.71094 6.4805-0.81641 10.516-0.23828 9.0508 12.809 10.098 12.809 10.098l3.0898-5.3516s-7.0469-1.8008-7.1016-4.2188c-0.07422-3.2383 1.1016-7.3438 1.1016-7.3438s-0.44141-19.719-1.3984-18.84" fill="#162c47"/>
  <path d="m106.39 120.17c0.44531-0.0977 2.7422-1.6328 3.1523-2.5312 0.33203-0.73047 0.62891-1.6055 0.33985-1.6055-0.17969 0-1.5703 0.13672-2.6719 0.23047 0.65235-0.28907 0.8086-0.62891 0.80078-0.76172-0.0156-0.17969-1.5586-4e-3 -2.0508 4e-3 -0.69531 0.0195-1.9922-0.0742-2.6367 0.0703-0.35156 0.082-2.4102 1.2305-2.5352 1.2305-0.0195 0-0.90625 0.0156-1.1289 0.0352l0.48828 3.0625 1.1133-0.0273s4.6797 0.39453 5.1289 0.29297" fill="#5c3127"/>
  <path d="m107.33 116.27c0-8e-3 0-0.0195-4e-3 -0.0312-0.0156-0.0625-0.082-0.10157-0.14844-0.0859-0.65234 0.16406-2.8047-0.24219-2.8281-0.2461-0.0664-0.0117-0.12891 0.0312-0.14063 0.0977-0.0117 0.0664 0.0312 0.13281 0.0977 0.14453 0.0898 0.0156 2.2266 0.41797 2.9297 0.23828 0.0586-0.0117 0.0937-0.0625 0.0937-0.11718" fill="#1e1a34"/>
  <path d="m83.902 91.664c0.68359 3.3672 0.45703 7.4727 0.55469 11.055 0.07031 2.6289-1.5898 6.8398-1.3203 8.1133 0.54688 2.6367 0.61719 2.0703 2.0195 5.8555 3.1484 8.4883 15.648 4.6055 15.648 4.6055l0.875-6.1211s-7.2109 0.95312-8.1602-1.2695c-1.2773-2.9805-1.7617-8.4062-2.4492-11.332-1.6641-7.082-6.6016-12.074-7.168-10.906" fill="#162c47"/>
 </g>
 <g fill="#5c3127">
  <path d="m63.621 147.89s-0.16406 0.26953-0.03906 0.75781c0.24219 0.92969 0.49609 2.4688-0.07031 3.582-0.19531 0.38672 0.05859 0.63672 0.25 0.70313 0.40625 0.14062 1.2812-0.58985 1.4062-1.4141 0.04297-0.28515 0-0.57421 0.20703-0.73828 0.17969-0.14062-0.02344-0.6289-0.21875-1.3281-0.24219-0.85547-1.0273-2.5859-1.0273-2.5859l-0.50781 1.0234"/>
  <path d="m63.754 149.25c0.30078 0.98046 0.76562 2.0898 1.3438 1.8906 0.1875-0.0664 0.28125 0.082 0.61328 0.51172 0.26953 0.35156 0.82422-0.0664 1.3828-0.12891 0.57422-0.0664 1.7422-2.3633 1.7422-2.3633-0.02734-0.17969-1.0078-1.9805-2.6133-2.8984-1.7461-1-3.3398 0.17969-2.4688 2.9883"/>
  <path d="m65.652 151.55 1.043 1.6484 0.53516 0.8164 0.53906 0.81641c0.11719 0.17969 0.35938 0.23047 0.54297 0.10938 0.16797-0.11329 0.22266-0.33594 0.12891-0.51563l-0.92969-1.707-0.91016-1.7188c-0.14453-0.26953-0.47656-0.37109-0.74609-0.22656-0.26562 0.14062-0.36719 0.47265-0.22656 0.74218 0.0078 0.0117 0.01563 0.0234 0.02344 0.0352"/>
  <path d="m66.723 151.27 1.1445 1.793c0.19141 0.29687 0.39062 0.58984 0.58594 0.88671l0.58984 0.88672c0.12891 0.19532 0.39844 0.25 0.59375 0.11719 0.1875-0.12109 0.24219-0.36719 0.13672-0.5625l-1.0156-1.8594-1-1.8711c-0.16016-0.28906-0.52344-0.39844-0.8125-0.24219-0.29297 0.15625-0.40234 0.51954-0.24609 0.8086 0.0078 0.0156 0.01563 0.0273 0.02344 0.043"/>
  <path d="m67.496 150.48 1.125 1.7734c0.19141 0.29297 0.38672 0.58594 0.57812 0.875l0.57812 0.87891c0.12891 0.1914 0.39062 0.24609 0.58594 0.11719 0.18359-0.1211 0.24219-0.36329 0.14062-0.55469l-1-1.8398-0.98438-1.8438c-0.15234-0.28906-0.51172-0.39843-0.80078-0.24609-0.28906 0.15234-0.39844 0.51172-0.24219 0.80078 0.0039 0.0117 0.01563 0.0273 0.01953 0.0391"/>
  <path d="m67.688 149.39 1.3008 1.4531 0.66016 0.71875 0.66406 0.71484c0.14844 0.15625 0.39844 0.16797 0.55469 0.0195 0.15234-0.14062 0.16797-0.37109 0.04297-0.52734l-1.1953-1.5352-1.1836-1.543c-0.18359-0.24219-0.52734-0.28906-0.76953-0.10156-0.24219 0.18359-0.28906 0.52734-0.10156 0.76953 0.0078 8e-3 0.01563 0.0234 0.02734 0.0312"/>
 </g>
 <g fill="#f78b68">
  <path d="m39.594 113.27c0.08594 5.75 15.098 6.25 13.359-0.18359-0.64453-2.3789 0.99609-5.3867-1.7266-5.3242-1.7031 0.0391-2.4102-0.92578-2.7969-2.1055-0.71484-2.2109-4.3711-2.375-4.9844 0.53516-0.37891 1.793-2.9805 0.8164-3.8789 2.1602-0.55469 0.83985-1.1797 2.6133 0.02734 4.918"/>
  <path d="m32.219 165.56c0.03906 1.6523 0.09766 3.1367 0.17188 4.3438 0.01172 0.23828 0.02734 0.46875 0.04297 0.68359 0.19531 2.625 1.3008 5.8828 1.5898 8.4961 0.27734 2.5312-0.73047 9.625-0.63672 12.223 0.10547 2.9922 1.0898 10.973 1.6289 15.152 0.03906 0.29297 0.02734 0.58984-0.03125 0.88281-0.30859 1.5898-1.3594 6.9531-1.3594 6.9531-0.05859 0.31641 0.17969 0.60547 0.5 0.60547l7.957-0.0234c0.39844-4e-3 0.65234-0.4336 0.46094-0.78516l-2.2422-3.3867-0.67969-1.668c0.01563-0.0898 1.168-16.656 1.168-16.656s-0.01172-4.7773 0.11328-6.8633c0.12109-2.0898 1.1133-8.8828 1.3047-11.355 0.08984-1.1367 0.1875-2.5938 0.28516-4.2617 0.01563-0.2539 0.03125-0.51562 0.04297-0.78125 0.58594-10.129 1.2695-26.812 1.2695-26.812 0.19531-3.2031-2.2461-5.9609-5.4492-6.1562-3.2031-0.19531-6.3672 20.25-6.1367 29.41"/>
  <path d="m44.176 142.09c0.0039 0.19531 0.02344 0.39453 0.04687 0.58594 0 0 1.4023 15.852 2.3906 23.75 0.11328 0.88281 0.21875 1.6641 0.31641 2.3125 0.05859 0.39062 0.13281 0.84375 0.22266 1.3359 0.66406 3.7031 2.3047 9.6641 2.4336 10.629 0.42969 3.2695 0.03906 8.3008 0.21875 10.648 0.41797 5.3438 3.75 21.109 3.75 21.109 0.16016 1.2344 1.1445 2.1211 2.375 1.9609 1.1562-0.14844 1.9922-1.1562 1.9648-2.293l-0.48047-17.602s-0.35156-5.1875-0.41016-8.4922c-0.03906-2.2383-0.03125-11.895-0.05078-15.453-0.01563-2.3242-0.02344-4.0586-0.02344-4.0586l-0.0078-0.17187s-3.9102-30.355-7.1211-30.254c-3.207 0.10156-5.7266 2.7852-5.625 5.9922"/>
  <path d="m47.75 113.3c-0.37891 0.99219-1.3242 1.6055-2.3281 1.6055-0.30078 4e-3 -0.60547-0.0508-0.90234-0.16406-1.293-0.49219-1.9375-1.9375-1.4453-3.2305 1-2.6133 0.10938-8.0195-0.28125-9.707-0.01563-0.082-0.03125-0.16016-0.03906-0.23828-0.16797-1.2656 0.64844-2.4727 1.9141-2.7656 1.3477-0.3125 2.6914 0.52734 3.0039 1.875 0.08203 0.35547 0.4375 1.9531 0.66406 4.0117 0.29688 2.6562 0.38281 6.0781-0.58594 8.6133"/>
 </g>
 <g>
  <path d="m48.336 104.69c-2.0898-0.19141-4.375-1.4492-5.582-3.1211-0.16797-1.2656 0.64844-2.4727 1.9141-2.7656 1.3477-0.3125 2.6914 0.52734 3.0039 1.875 0.08203 0.35547 0.4375 1.9531 0.66406 4.0117" fill="#e95b4f"/>
  <path d="m53.805 214.77 14.191-0.0508c0.49609 0 0.64844-0.67578 0.19531-0.88672l-10.652-4.9844-4.6016 0.41796 0.86719 5.5039" fill="#f78b68"/>
  <path d="m57.742 209.02c-0.41797 0.21094-2.5742 1.1875-4.6641 0.44141-0.12891-0.0469-0.26172 0.0586-0.23828 0.19531l0.42578 2.8125 6.1289-2.7852-1.4961-0.66797c-0.05078-0.0234-0.10547-0.0195-0.15625 4e-3" fill="#d7f2f5"/>
  <path d="m39.605 208.69c-0.53906 0.082-2.543 0.33593-4.75-0.0859-0.09766-0.0195-0.19141 0.043-0.21094 0.14062l-0.59766 3.3945 6.8711-0.47656-1.1211-2.8594c-0.02734-0.0781-0.10938-0.125-0.19141-0.11328" fill="#d7f2f5"/>
  <path d="m53.824 137.55c-0.42969-2.543 0.03516-11.59 0.5-12.941 0.73047-2.1133 0.58594-4.2891 0.25-5.9609-0.01563-0.0742-0.22266-1.2266-0.23828-1.3008 2.9727 0.10156 4.3242-1.2578 4.3242-1.2578s-0.39844-3.2891-2.3359-5.8125c-1.418-1.8398-3.9414-2.7383-5.6953-2.5703-3.8125 3.3984-8.2891 0.3164-9.0234-0.2461-3.3242 0.27344-5.75 1.0547-6.8828 2.5508-2.332 3.082-2.582 5.8789-2.582 5.8789s2.4336 2.5 5.4141 2.2266c0.14844-0.0117 0.17969-0.4414 0.31641-0.60937 0.39844 4.1562-0.42969 13.84-2.1797 18.848-2.3203 6.6328 19.078 6.7617 18.133 1.1953" fill="#dfcb6f"/>
  <path d="m60.703 209.38c-0.0078-4e-3 -0.01563-0.0117-0.02344-0.0156-0.14062-0.0898-1.6602-0.98828-3.4453 0.83203-0.81641 0.83203-2.0195 1.1953-3.1406 0.8789-0.19531-0.0547-0.38672-0.1289-0.57422-0.23046-0.25-0.13282-0.54688 0.0625-0.52734 0.34375l0.20703 3.2383c0.01172 0.1914 0.17188 0.33984 0.36328 0.33593l15.527-0.0508c0.375 0 0.50391-0.5 0.17188-0.67968l-8.5586-4.6524" fill="#65978e"/>
  <path d="m42.211 214.88-8.1523 0.0273c-0.28516 0-0.5-0.25781-0.44531-0.53906l0.71094-3.6328c0.07422-0.3711 0.27344-0.70703 0.57812-0.9336 1.7656-1.2969 3.7578-0.60546 4.1758-0.41406 0.76172 0.35156 1.3867 0.94141 1.793 1.6758l1.7344 3.1484c0.16406 0.30078-0.05078 0.66797-0.39453 0.66797" fill="#65978e"/>
  <path d="m59.801 118.19c-0.0039 0-0.01172 4e-3 -0.01563 8e-3l0.01563-8e-3" fill="#e95b4f"/>
  <path d="m53.719 136.55s-9.6875 1.5781-17.812-0.86328c0 0-2.8984 3.082-3.9062 14.75-0.96094 11.145 0.57422 31.453 1.6055 57.793 0 0 13.48 5.3281 27.094 0.61329 0 0-1.9805-62.164-6.9805-72.293" fill="#dfcb6f"/>
  <path d="m66.652 145.19s-2.4453 2.9375-4.0117 2.4648c0 0-6.2812-11.781-7.5234-13.934-1.2383-2.1524-1.0781-15.316-1.0781-15.316l0.53125-1.7188 4.0898-0.60156s0.85156 12.508 1.0586 13.871c0.39453 2.5586 4.9648 14.16 6.9336 15.234" fill="#dfcb6f"/>
  <path d="m40.82 97.133c0.52344 0.8125 0.47266 1.7773-0.10938 2.1484-0.58203 0.37109-1.4766 0.01172-2-0.80469-0.51953-0.81641-0.46875-1.7773 0.11328-2.1484s1.4766-0.01172 1.9961 0.80469" fill="#f78b68"/>
  <path d="m53.934 108.38s-1.3164-1.7695-1.3555-8.8945c-0.03906-7.1211-1.2852-13.332-7.1602-13.934-5.875-0.60156-9.9141 4.2344-8.1523 11.691 1.7656 7.457-1.3672 11.715-1.3672 11.715s1.793 0.0547 3.1875 3.0312c1.3945 2.9726 7.6914 6.625 11.582 3.2461 3.4141-2.9609 0.86328-6.8828 3.2656-6.8555" fill="#9e911e"/>
 </g>
 <g fill="#5c3127">
  <path d="m49.344 103.23c-3.0469 1.4336-8.3242-1.3438-8.8242-4.6758l-1.0625-2.8203c-0.5-3.332 1.793-6.4375 5.125-6.9375 3.3281-0.5 6.4336 1.7969 6.9336 5.125l0.41406 2.7461c0.30469 2.9492-1.0859 5.8594-2.5859 6.5625"/>
  <path d="m34.977 150.07s0.26172 0.17188 0.35547 0.66797c0.17969 0.94141 0.61328 2.4414 1.6016 3.2031 0.34766 0.26562 0.22266 0.60156 0.07813 0.74218-0.30469 0.30078-1.4102 0.0156-1.8789-0.67187-0.16016-0.23828-0.24609-0.51953-0.50391-0.57813-0.22266-0.0469-0.24609-0.57812-0.37109-1.293-0.14844-0.875-0.18359-2.7773-0.18359-2.7773l0.90234 0.70703"/>
  <path d="m35.441 151.36c0.14844 1.0195 0.20312 2.2188-0.40234 2.2852-0.19922 0.0234-0.21875 0.19922-0.33203 0.72656-0.09766 0.4336-0.77344 0.29297-1.3086 0.47657-0.54688 0.1914-2.5859-1.3828-2.5859-1.3828-0.05469-0.17578 0.05859-2.2266 1.1133-3.7422 1.1484-1.6524 3.0977-1.2734 3.5156 1.6367"/>
  <path d="m34.715 154.25-0.23438 1.9336-0.13672 0.96875-0.13281 0.96484c-0.03125 0.21485-0.23047 0.36328-0.44531 0.33594-0.20312-0.0273-0.34766-0.21094-0.33594-0.41016l0.10156-1.9414 0.08594-1.9453c0.01563-0.30079 0.27344-0.53907 0.57422-0.52344 0.30469 0.0156 0.53906 0.26953 0.52734 0.57422-0.0039 0.0117-0.0039 0.0273-0.0039 0.043"/>
  <path d="m33.625 154.46-0.26172 2.1094c-0.04687 0.35156-0.10156 0.70313-0.14844 1.0508l-0.15234 1.0547c-0.03516 0.23438-0.25 0.39844-0.48438 0.36328-0.22266-0.0312-0.37891-0.23047-0.36719-0.44922l0.12109-2.1172 0.10156-2.1172c0.01563-0.33203 0.29688-0.58594 0.625-0.57031 0.33203 0.0156 0.58594 0.29687 0.57031 0.6289 0 0.0156 0 0.0312-0.0039 0.0469"/>
  <path d="m32.586 154.08-0.25391 2.082c-0.04297 0.34766-0.09766 0.69531-0.14453 1.0391l-0.14453 1.043c-0.03125 0.23047-0.24609 0.39063-0.47656 0.35938-0.21875-0.0312-0.375-0.22656-0.36328-0.44141l0.10938-2.0898 0.09766-2.0938c0.01172-0.32422 0.28906-0.57813 0.61719-0.5625 0.32422 0.0156 0.57812 0.29297 0.5625 0.61719 0 0.0156 0 0.0312-0.0039 0.0469"/>
  <path d="m31.949 153.18-0.55078 1.8711-0.28906 0.92969-0.29297 0.92969c-0.06641 0.20703-0.28516 0.32421-0.49219 0.25781-0.19531-0.0586-0.30859-0.26172-0.26562-0.45703l0.42188-1.8984 0.40625-1.9062c0.0625-0.29297 0.35156-0.48438 0.64844-0.42188 0.29688 0.0664 0.48828 0.35547 0.42578 0.65235-0.0039 0.0156-0.0078 0.0273-0.01172 0.043"/>
 </g>
 <g>
  <path d="m50.902 92.023s-0.98828-1.3242-3.5391-0.88672c-2.5508 0.44141-5.375 1.3711-7.0195 5.4492l-1.2578-0.28125v-2.4883l2.293-4.5703 4.3008-1.0078 2.8555 0.64453s2.9883 0.98828 2.3672 3.1406" fill="#181919"/>
  <path d="m32.141 115.89s-2.9883 12.633-3.3516 13.293c-0.36719 0.66406 1.8242 13.043 2.9531 19.91 0 0 1.2773 1.5977 4.0312 1.2656 0 0-1.5977-11.348-1.8828-19.188 0 0 3.8672-10.605 3.9805-13.664l-5.7305-1.6172" fill="#dfcb6f"/>
  <path d="m34.426 138.5 1.125 11.668s0.5625-8.7422-0.54297-13.016l-0.58203 1.3476" fill="#c3b231"/>
  <path d="m53.918 125.82s1.1523-3.3281 0.94531-4.957c-0.20703-1.6289-0.62109-3.2539-0.62109-3.2539s1.2734 1.8906 1.3633 3.4023c0.08594 1.5078-0.94922 3.6094-1.6875 4.8086" fill="#c3b231"/>
  <path d="m50.305 90.984c0.0078 0 0.01953 0 0.02734-0.0039 0.03125-0.01563 0.04687-0.05469 0.03125-0.08594-0.0078-0.01563-0.73438-1.6406-2.4258-2.2773-1.1719-0.44141-2.5195-0.31641-4.0078 0.375-0.03125 0.01563-0.04687 0.05469-0.03125 0.08594 0.01563 0.03516 0.05469 0.05078 0.08594 0.03516 1.4531-0.67578 2.7656-0.80469 3.9062-0.375 1.6367 0.61719 2.3477 2.1914 2.3555 2.207 0.01172 0.02734 0.03516 0.03906 0.05859 0.03906" fill="#181919"/>
 </g>
</svg>
